<?xml version="1.0" standalone="no"?>
<!DOCTYPE svg PUBLIC "-//W3C//DTD SVG 1.1//EN" "http://www.w3.org/Graphics/SVG/1.1/DTD/svg11.dtd" >
<svg>
<metadata>
Created by FontForge 20090914 at Fri Oct 19 08:30:44 2018
 By www-data
Copyright (c) 2014 by Graviton. All rights reserved.
</metadata>
<defs>
<font id="Aguda-Regular4" horiz-adv-x="640" >
  <font-face 
    font-family="Aguda"
    font-weight="400"
    font-stretch="normal"
    units-per-em="1000"
    panose-1="0 0 0 0 0 0 0 0 0 0"
    ascent="776"
    descent="-224"
    x-height="560"
    cap-height="720"
    bbox="-60 -240 1205 980"
    underline-thickness="50"
    underline-position="-50"
    unicode-range="U+0020-U+FB99"
  />
<missing-glyph horiz-adv-x="780" 
d="M390 690c90.667 0 168.334 -32.333 233.001 -97s97 -142.334 97 -233.001s-32.333 -168.334 -97 -233.001s-142.334 -97 -233.001 -97s-168.334 32.333 -233.001 97s-97 142.334 -97 233.001s32.333 168.334 97 233.001s142.334 97 233.001 97zM570 222l-138 138l138 138
l-42 42l-138 -138l-138 138l-42 -42l138 -138l-138 -138l42 -42l138 138l138 -138z" />
    <glyph glyph-name="graviton" unicode="&#x6b3;" horiz-adv-x="545" arabic-form="medial" 
d="M221 335c0 6.66699 3.33301 10 10 10h77v-133h-77c-6.66699 0 -10 3.33301 -10 10v113zM272 502c-18.667 0 -34.667 6.66699 -48 20s-20 29.666 -20 48.999s6.66699 35.666 20 48.999s29.333 20 48 20s34.834 -6.66699 48.501 -20s20.5 -29.666 20.5 -48.999
s-6.83301 -35.666 -20.5 -48.999s-29.834 -20 -48.501 -20zM272 465c58.667 0 108.834 -20.833 150.501 -62.5s62.5 -91.834 62.5 -150.501s-20.833 -108.667 -62.5 -150s-91.834 -62 -150.501 -62s-108.667 20.667 -150 62s-62 91.333 -62 150s20.667 108.834 62 150.501
s91.333 62.5 150 62.5zM344 158v217c0 2 -1 3 -3 3h-110c-12.667 0 -23.667 -4.5 -33 -13.5s-14 -19.833 -14 -32.5v-107c0 -12.667 4.66699 -23.667 14 -33s20.333 -14 33 -14h77v-23c0 -6.66699 -3.33301 -10 -10 -10h-70c-2.66699 0 -4 -1 -4 -3v-27
c0 -2 1.33301 -3 4 -3h70c12.667 0 23.5 4.5 32.5 13.5s13.5 19.833 13.5 32.5z" />
    <glyph glyph-name=".notdef" horiz-adv-x="780" 
d="M390 690c90.667 0 168.334 -32.333 233.001 -97s97 -142.334 97 -233.001s-32.333 -168.334 -97 -233.001s-142.334 -97 -233.001 -97s-168.334 32.333 -233.001 97s-97 142.334 -97 233.001s32.333 168.334 97 233.001s142.334 97 233.001 97zM570 222l-138 138l138 138
l-42 42l-138 -138l-138 138l-42 -42l138 -138l-138 -138l42 -42l138 138l138 -138z" />
    <glyph glyph-name="space" unicode=" " horiz-adv-x="320" 
 />
    <glyph glyph-name="exclam" unicode="!" horiz-adv-x="230" 
d="M70 720h90v-530h-90v530zM115 -10c-18 0 -33.333 6.33301 -46 19s-19 28 -19 46s6.33301 33.333 19 46s28 19 46 19s33.333 -6.33301 46 -19s19 -28 19 -46s-6.33301 -33.333 -19 -46s-28 -19 -46 -19z" />
    <glyph glyph-name="quotedbl" unicode="&#x22;" horiz-adv-x="390" 
d="M70 560v160h90v-160h-90zM230 720h90v-160h-90v160z" />
    <glyph glyph-name="numbersign" unicode="#" 
d="M580 486h-100v-252h100v-54h-100v-100h-60v100h-200v-100h-60v100h-100v54h100v252h-100v54h100v100h60v-100h200v100h60v-100h100v-54zM420 234v252h-200v-252h200z" />
    <glyph glyph-name="dollar" unicode="$" horiz-adv-x="620" 
d="M560 450h-90v30c0 28 -5 47.667 -15 59s-28.333 17 -55 17h-180c-26.667 0 -45 -5.66699 -55 -17s-15 -31 -15 -59c0 -15.333 4.33301 -26.333 13 -33s27.667 -13.667 57 -21l180 -45c31.333 -8 54.333 -14.333 69 -19s30.334 -12.167 47.001 -22.5
s28.167 -23.5 34.5 -39.5s9.5 -36 9.5 -60c0 -54.667 -13 -95 -39 -121s-66.333 -39 -121 -39h-45v-80h-90v80h-45c-54.667 0 -95 13 -121 39s-39 66.333 -39 121v30h90v-30c0 -28 5 -47.667 15 -59s28.333 -17 55 -17h180c26.667 0 45 5.66699 55 17s15 31 15 59
c0 15.333 -4.33301 26.333 -13 33s-27.667 13.667 -57 21l-180 45c-31.333 8 -54.333 14.333 -69 19s-30.334 12.167 -47.001 22.5s-28.167 23.5 -34.5 39.5s-9.5 36 -9.5 60c0 54.667 13 95 39 121s66.333 39 121 39h45v80h90v-80h45c54.667 0 95 -13 121 -39
s39 -66.333 39 -121v-30z" />
    <glyph glyph-name="percent" unicode="%" horiz-adv-x="890" 
d="M375 480c0 -45.333 -8.83301 -76.666 -26.5 -93.999s-48.834 -26 -93.501 -26h-70c-44.667 0 -75.834 8.66699 -93.501 26s-26.5 48.666 -26.5 93.999v120c0 45.333 8.83301 76.666 26.5 93.999s48.834 26 93.501 26h70c44.667 0 75.834 -8.66699 93.501 -26
s26.5 -48.666 26.5 -93.999v-120zM125 480c0 -27.333 3.5 -45.166 10.5 -53.499s23.5 -12.5 49.5 -12.5h70c25.333 0 41.666 4.16699 48.999 12.5s11 26.166 11 53.499v120c0 26.667 -3.66699 44.334 -11 53.001s-23.666 13 -48.999 13h-70c-26 0 -42.5 -4.33301 -49.5 -13
s-10.5 -26.334 -10.5 -53.001v-120zM705 360c44.667 0 75.834 -8.66699 93.501 -26s26.5 -48.666 26.5 -93.999v-120c0 -45.333 -8.83301 -76.666 -26.5 -93.999s-48.834 -26 -93.501 -26h-70c-44.667 0 -75.834 8.66699 -93.501 26s-26.5 48.666 -26.5 93.999v120
c0 45.333 8.83301 76.666 26.5 93.999s48.834 26 93.501 26h70zM765 120v120c0 26.667 -3.66699 44.334 -11 53.001s-23.666 13 -48.999 13h-70c-26 0 -42.5 -4.33301 -49.5 -13s-10.5 -26.334 -10.5 -53.001v-120c0 -27.333 3.5 -45.166 10.5 -53.499
s23.5 -12.5 49.5 -12.5h70c25.333 0 41.666 4.16699 48.999 12.5s11 26.166 11 53.499zM591 720h67l-360 -720h-67z" />
    <glyph glyph-name="ampersand" unicode="&#x26;" horiz-adv-x="685" 
d="M225 402h440v-84h-80v-158c0 -54.667 -12.833 -95 -38.5 -121s-66.167 -39 -121.5 -39h-200c-55.333 0 -95.833 13 -121.5 39s-38.5 66.333 -38.5 121v85c0 19.333 2.33301 36.5 7 51.5s10.5 26 17.5 33s14 12.667 21 17s12.833 6.83301 17.5 7.5l7 1v10
c-2 0 -4.5 0.333008 -7.5 1s-8.5 3.16699 -16.5 7.5s-15.167 10 -21.5 17s-12 18 -17 33s-7.5 32.167 -7.5 51.5v85c0 54.667 12.833 95 38.5 121s66.167 39 121.5 39h160c55.333 0 95.833 -13 121.5 -39s38.5 -66.333 38.5 -121v-70h-90v70c0 28 -5 47.667 -15 59
s-28.333 17 -55 17h-160c-26.667 0 -45 -5.66699 -55 -17s-15 -31 -15 -59v-85c0 -28 4.83301 -47.167 14.5 -57.5s28.167 -15.5 55.5 -15.5zM495 160v158h-270c-27.333 0 -45.833 -5.16699 -55.5 -15.5s-14.5 -29.5 -14.5 -57.5v-85c0 -28 5 -47.667 15 -59
s28.333 -17 55 -17h200c26.667 0 45 5.66699 55 17s15 31 15 59z" />
    <glyph glyph-name="quotesingle" unicode="'" horiz-adv-x="230" 
d="M70 720h90v-160h-90v160z" />
    <glyph glyph-name="parenleft" unicode="(" horiz-adv-x="335" 
d="M305 -156v-84h-80c-55.333 0 -95.833 13 -121.5 39s-38.5 66.333 -38.5 121v680c0 54.667 12.833 95 38.5 121s66.167 39 121.5 39h80v-84h-80c-26.667 0 -45 -5.66699 -55 -17s-15 -31 -15 -59v-680c0 -28 5 -47.667 15 -59s28.333 -17 55 -17h80z" />
    <glyph glyph-name="parenright" unicode=")" horiz-adv-x="335" 
d="M30 -156h80c26.667 0 45 5.66699 55 17s15 31 15 59v680c0 28 -5 47.667 -15 59s-28.333 17 -55 17h-80v84h80c54.667 0 95 -13 121 -39s39 -66.333 39 -121v-680c0 -54.667 -13 -95 -39 -121s-66.333 -39 -121 -39h-80v84z" />
    <glyph glyph-name="asterisk" unicode="*" horiz-adv-x="510" 
d="M450 567v-54h-145l77 -133l-52 -30l-75 130l-75 -130l-52 30l77 133h-145v54h145l-77 133l52 30l75 -130l75 130l52 -30l-77 -133h145z" />
    <glyph glyph-name="plus" unicode="+" horiz-adv-x="600" 
d="M540 322v-84h-195v-198h-90v198h-195v84h195v198h90v-198h195z" />
    <glyph glyph-name="comma" unicode="," horiz-adv-x="250" 
d="M105 -60h-65l42 170h108z" />
    <glyph glyph-name="hyphen" unicode="-" horiz-adv-x="400" 
d="M340 322v-84h-280v84h280z" />
    <glyph glyph-name="period" unicode="." horiz-adv-x="250" 
d="M125 120c18 0 33.333 -6.33301 46 -19s19 -28 19 -46s-6.33301 -33.333 -19 -46s-28 -19 -46 -19s-33.333 6.33301 -46 19s-19 28 -19 46s6.33301 33.333 19 46s28 19 46 19z" />
    <glyph glyph-name="slash" unicode="/" horiz-adv-x="415" 
d="M280 720h95l-240 -720h-95z" />
    <glyph glyph-name="zero" unicode="0" horiz-adv-x="670" 
d="M445 720c55.333 0 95.833 -13 121.5 -39s38.5 -66.333 38.5 -121v-400c0 -54.667 -12.833 -95 -38.5 -121s-66.167 -39 -121.5 -39h-220c-55.333 0 -95.833 13 -121.5 39s-38.5 66.333 -38.5 121v400c0 54.667 12.833 95 38.5 121s66.167 39 121.5 39h220zM515 160v400
c0 28 -5 47.667 -15 59s-28.333 17 -55 17h-220c-26.667 0 -45 -5.66699 -55 -17s-15 -31 -15 -59v-400c0 -28 5 -47.667 15 -59s28.333 -17 55 -17h220c26.667 0 45 5.66699 55 17s15 31 15 59z" />
    <glyph glyph-name="one" unicode="1" horiz-adv-x="310" 
d="M30 636v84h210v-720h-90v636h-120z" />
    <glyph glyph-name="two" unicode="2" horiz-adv-x="665" 
d="M65 160c0 64.667 11 110.334 33 137.001s64.333 50.334 127 71.001l220 73c29.333 10 48.333 22.667 57 38s13 42.333 13 81c0 28 -5 47.667 -15 59s-28.333 17 -55 17h-220c-26.667 0 -45 -5.66699 -55 -17s-15 -31 -15 -59v-70h-90v70c0 54.667 12.833 95 38.5 121
s66.167 39 121.5 39h220c55.333 0 95.833 -13 121.5 -39s38.5 -66.333 38.5 -121c0 -64.667 -11 -110.334 -33 -137.001s-64.333 -50.334 -127 -71.001l-220 -73c-29.333 -10 -48.333 -22.667 -57 -38s-13 -42.333 -13 -81v-76h450v-84h-540v160z" />
    <glyph glyph-name="three" unicode="3" horiz-adv-x="665" 
d="M440 720c54.667 0 95 -13 121 -39s39 -66.333 39 -121v-85c0 -19.333 -2.33301 -36.5 -7 -51.5s-10.5 -26 -17.5 -33s-14 -12.667 -21 -17s-12.833 -6.83301 -17.5 -7.5l-7 -1v-10c2 0 4.5 -0.333008 7.5 -1s8.5 -3.16699 16.5 -7.5s15.167 -10 21.5 -17s12 -18 17 -33
s7.5 -32.167 7.5 -51.5v-85c0 -54.667 -13 -95 -39 -121s-66.333 -39 -121 -39h-220c-54.667 0 -95 13 -121 39s-39 66.333 -39 121v70h90v-70c0 -28 5 -47.667 15 -59s28.333 -17 55 -17h220c26.667 0 45 5.66699 55 17s15 31 15 59v85c0 28 -4.83301 47.167 -14.5 57.5
s-28.167 15.5 -55.5 15.5h-210v84h210c27.333 0 45.833 5.16699 55.5 15.5s14.5 29.5 14.5 57.5v85c0 28 -5 47.667 -15 59s-28.333 17 -55 17h-220c-26.667 0 -45 -5.66699 -55 -17s-15 -31 -15 -59v-70h-90v70c0 54.667 13 95 39 121s66.333 39 121 39h220z" />
    <glyph glyph-name="four" unicode="4" horiz-adv-x="615" 
d="M470 560h90v-560h-90v180h-450v119l255 421h105l-270 -446v-10h360v296z" />
    <glyph glyph-name="five" unicode="5" horiz-adv-x="665" 
d="M445 442c55.333 0 95.833 -13 121.5 -39s38.5 -66.333 38.5 -121v-122c0 -54.667 -12.833 -95 -38.5 -121s-66.167 -39 -121.5 -39h-220c-55.333 0 -95.833 13 -121.5 39s-38.5 66.333 -38.5 121v70h90v-70c0 -28 5 -47.667 15 -59s28.333 -17 55 -17h220
c26.667 0 45 5.66699 55 17s15 31 15 59v122c0 28 -5 47.667 -15 59s-28.333 17 -55 17h-380v362h530v-84h-440v-194h290z" />
    <glyph glyph-name="six" unicode="6" horiz-adv-x="670" 
d="M605 490h-90v70c0 28 -5 47.667 -15 59s-28.333 17 -55 17h-220c-26.667 0 -45 -5.66699 -55 -17s-15 -31 -15 -59v-158h290c55.333 0 95.833 -13 121.5 -39s38.5 -66.333 38.5 -121v-82c0 -54.667 -12.833 -95 -38.5 -121s-66.167 -39 -121.5 -39h-220
c-55.333 0 -95.833 13 -121.5 39s-38.5 66.333 -38.5 121v400c0 54.667 12.833 95 38.5 121s66.167 39 121.5 39h220c55.333 0 95.833 -13 121.5 -39s38.5 -66.333 38.5 -121v-70zM445 318h-290v-158c0 -28 5 -47.667 15 -59s28.333 -17 55 -17h220
c26.667 0 45 5.66699 55 17s15 31 15 59v82c0 28 -5 47.667 -15 59s-28.333 17 -55 17z" />
    <glyph glyph-name="seven" unicode="7" horiz-adv-x="610" 
d="M30 720h540v-114l-281 -606h-99l290 626v10h-450v84z" />
    <glyph glyph-name="eight" unicode="8" horiz-adv-x="670" 
d="M445 720c55.333 0 95.833 -13 121.5 -39s38.5 -66.333 38.5 -121v-85c0 -19.333 -2.33301 -36.5 -7 -51.5s-10.5 -26 -17.5 -33s-14 -12.667 -21 -17s-12.833 -6.83301 -17.5 -7.5l-7 -1v-10c2 0 4.5 -0.333008 7.5 -1s8.5 -3.16699 16.5 -7.5s15.167 -10 21.5 -17
s12 -18 17 -33s7.5 -32.167 7.5 -51.5v-85c0 -54.667 -12.833 -95 -38.5 -121s-66.167 -39 -121.5 -39h-220c-55.333 0 -95.833 13 -121.5 39s-38.5 66.333 -38.5 121v85c0 19.333 2.33301 36.5 7 51.5s10.5 26 17.5 33s14 12.667 21 17s12.833 6.83301 17.5 7.5l7 1v10
c-2 0 -4.5 0.333008 -7.5 1s-8.5 3.16699 -16.5 7.5s-15.167 10 -21.5 17s-12 18 -17 33s-7.5 32.167 -7.5 51.5v85c0 54.667 12.833 95 38.5 121s66.167 39 121.5 39h220zM515 160v85c0 28 -4.83301 47.167 -14.5 57.5s-28.167 15.5 -55.5 15.5h-220
c-27.333 0 -45.833 -5.16699 -55.5 -15.5s-14.5 -29.5 -14.5 -57.5v-85c0 -28 5 -47.667 15 -59s28.333 -17 55 -17h220c26.667 0 45 5.66699 55 17s15 31 15 59zM515 475v85c0 28 -5 47.667 -15 59s-28.333 17 -55 17h-220c-26.667 0 -45 -5.66699 -55 -17s-15 -31 -15 -59
v-85c0 -28 4.83301 -47.167 14.5 -57.5s28.167 -15.5 55.5 -15.5h220c27.333 0 45.833 5.16699 55.5 15.5s14.5 29.5 14.5 57.5z" />
    <glyph glyph-name="nine" unicode="9" horiz-adv-x="670" 
d="M65 230h90v-70c0 -28 5 -47.667 15 -59s28.333 -17 55 -17h220c26.667 0 45 5.66699 55 17s15 31 15 59v158h-290c-55.333 0 -95.833 13 -121.5 39s-38.5 66.333 -38.5 121v82c0 54.667 12.833 95 38.5 121s66.167 39 121.5 39h220c55.333 0 95.833 -13 121.5 -39
s38.5 -66.333 38.5 -121v-400c0 -54.667 -12.833 -95 -38.5 -121s-66.167 -39 -121.5 -39h-220c-55.333 0 -95.833 13 -121.5 39s-38.5 66.333 -38.5 121v70zM225 402h290v158c0 28 -5 47.667 -15 59s-28.333 17 -55 17h-220c-26.667 0 -45 -5.66699 -55 -17
s-15 -31 -15 -59v-82c0 -28 5 -47.667 15 -59s28.333 -17 55 -17z" />
    <glyph glyph-name="colon" unicode=":" horiz-adv-x="250" 
d="M125 120c18 0 33.333 -6.33301 46 -19s19 -28 19 -46s-6.33301 -33.333 -19 -46s-28 -19 -46 -19s-33.333 6.33301 -46 19s-19 28 -19 46s6.33301 33.333 19 46s28 19 46 19zM125 440c-18 0 -33.333 6.33301 -46 19s-19 28 -19 46s6.33301 33.333 19 46s28 19 46 19
s33.333 -6.33301 46 -19s19 -28 19 -46s-6.33301 -33.333 -19 -46s-28 -19 -46 -19z" />
    <glyph glyph-name="semicolon" unicode=";" horiz-adv-x="250" 
d="M40 -60l42 170h108l-85 -170h-65zM125 440c-18 0 -33.333 6.33301 -46 19s-19 28 -19 46s6.33301 33.333 19 46s28 19 46 19s33.333 -6.33301 46 -19s19 -28 19 -46s-6.33301 -33.333 -19 -46s-28 -19 -46 -19z" />
    <glyph glyph-name="less" unicode="&#x3c;" horiz-adv-x="600" 
d="M60 341l480 181v-90l-390 -147v-10l390 -148v-89l-480 181v122z" />
    <glyph glyph-name="equal" unicode="=" horiz-adv-x="600" 
d="M60 410h480v-84h-480v84zM60 150v84h480v-84h-480z" />
    <glyph glyph-name="greater" unicode="&#x3e;" horiz-adv-x="600" 
d="M540 341v-122l-480 -181v89l390 148v10l-390 147v90z" />
    <glyph glyph-name="question" unicode="?" horiz-adv-x="660" 
d="M450 720c54.667 0 95 -13 121 -39s39 -66.333 39 -121v-120c0 -54.667 -13 -95 -39 -121s-66.333 -39 -121 -39h-105v-90h-90v174h195c26.667 0 45 5.66699 55 17s15 31 15 59v120c0 28 -5 47.667 -15 59s-28.333 17 -55 17h-260c-26.667 0 -45 -5.66699 -55 -17
s-15 -31 -15 -59v-70h-90v70c0 54.667 13 95 39 121s66.333 39 121 39h260zM300 120c18 0 33.333 -6.33301 46 -19s19 -28 19 -46s-6.33301 -33.333 -19 -46s-28 -19 -46 -19s-33.333 6.33301 -46 19s-19 28 -19 46s6.33301 33.333 19 46s28 19 46 19z" />
    <glyph glyph-name="at" unicode="@" horiz-adv-x="800" 
d="M435 540c44 0 75.001 -7.66602 93.001 -22.999s27 -41 27 -77v-140c0 -45.333 -8.83301 -76.666 -26.5 -93.999s-48.834 -26 -93.501 -26h-70c-44 0 -75 7.66699 -93 23s-27 41 -27 77c0 31.333 7 52.333 21 63s47 22.667 99 36l130 33v28
c0 17.333 -3.83301 29.333 -11.5 36s-23.834 10 -48.501 10h-70c-26 0 -42.5 -4.33301 -49.5 -13s-10.5 -26.334 -10.5 -53.001v-20h-60v20c0 45.333 8.83301 76.666 26.5 93.999s48.834 26 93.501 26h70zM435.001 234.001c25.333 0 41.667 4.16797 49 12.501
s11 26.166 11 53.499v56l-130 -33c-29.333 -7.33301 -46.666 -13 -51.999 -17s-8 -12.667 -8 -26c0 -17.333 3.66699 -29.333 11 -36s23.666 -10 48.999 -10h70zM400.002 700.002c94 0 174.167 -33.167 240.5 -99.5s99.5 -146.5 99.5 -240.5s-33.167 -174.167 -99.5 -240.5
s-146.5 -99.5 -240.5 -99.5s-174.167 33.167 -240.5 99.5s-99.5 146.5 -99.5 240.5s33.167 174.167 99.5 240.5s146.5 99.5 240.5 99.5zM400.002 80.002c77.333 0 143.333 27.333 198 82s82 120.667 82 198s-27.333 143.333 -82 198s-120.667 82 -198 82
s-143.333 -27.333 -198 -82s-82 -120.667 -82 -198s27.333 -143.333 82 -198s120.667 -82 198 -82z" />
    <glyph glyph-name="A" unicode="A" horiz-adv-x="680" 
d="M410 720l250 -720h-95l-69 198h-313l-68 -198h-95l247 720h143zM212 282h255l-123 354h-10z" />
    <glyph glyph-name="B" unicode="B" horiz-adv-x="715" 
d="M650 475c0 -19.333 -2.33301 -36.5 -7 -51.5s-10.5 -26 -17.5 -33s-14 -12.667 -21 -17s-12.833 -6.83301 -17.5 -7.5l-7 -1v-10c2 0 4.5 -0.333008 7.5 -1s8.5 -3.16699 16.5 -7.5s15.167 -10 21.5 -17s12 -18 17 -33s7.5 -32.167 7.5 -51.5v-85
c0 -54.667 -13 -95 -39 -121s-66.333 -39 -121 -39h-420v720h420c54.667 0 95 -13 121 -39s39 -66.333 39 -121v-85zM560 160v85c0 28 -4.83301 47.167 -14.5 57.5s-28.167 15.5 -55.5 15.5h-330v-234h330c26.667 0 45 5.66699 55 17s15 31 15 59zM560 475v85
c0 28 -5 47.667 -15 59s-28.333 17 -55 17h-330v-234h330c27.333 0 45.833 5.16699 55.5 15.5s14.5 29.5 14.5 57.5z" />
    <glyph glyph-name="C" unicode="C" horiz-adv-x="705" 
d="M555 230h90v-70c0 -54.667 -12.833 -95 -38.5 -121s-66.167 -39 -121.5 -39h-260c-55.333 0 -95.833 13 -121.5 39s-38.5 66.333 -38.5 121v400c0 54.667 12.833 95 38.5 121s66.167 39 121.5 39h260c55.333 0 95.833 -13 121.5 -39s38.5 -66.333 38.5 -121v-70h-90v70
c0 28 -5 47.667 -15 59s-28.333 17 -55 17h-260c-26.667 0 -45 -5.66699 -55 -17s-15 -31 -15 -59v-400c0 -28 5 -47.667 15 -59s28.333 -17 55 -17h260c26.667 0 45 5.66699 55 17s15 31 15 59v70z" />
    <glyph glyph-name="D" unicode="D" horiz-adv-x="715" 
d="M490 720c54.667 0 95 -13 121 -39s39 -66.333 39 -121v-400c0 -54.667 -13 -95 -39 -121s-66.333 -39 -121 -39h-420v720h420zM560 160v400c0 28 -5 47.667 -15 59s-28.333 17 -55 17h-330v-552h330c26.667 0 45 5.66699 55 17s15 31 15 59z" />
    <glyph glyph-name="E" unicode="E" horiz-adv-x="665" 
d="M610 636h-450v-234h440v-84h-440v-234h450v-84h-540v720h540v-84z" />
    <glyph glyph-name="F" unicode="F" horiz-adv-x="655" 
d="M160 0h-90v720h540v-84h-450v-234h440v-84h-440v-318z" />
    <glyph glyph-name="G" unicode="G" horiz-adv-x="710" 
d="M645 490h-90v70c0 28 -5 47.667 -15 59s-28.333 17 -55 17h-260c-26.667 0 -45 -5.66699 -55 -17s-15 -31 -15 -59v-400c0 -28 5 -47.667 15 -59s28.333 -17 55 -17h260c26.667 0 45 5.66699 55 17s15 31 15 59v158h-200v84h290v-242c0 -54.667 -12.833 -95 -38.5 -121
s-66.167 -39 -121.5 -39h-260c-55.333 0 -95.833 13 -121.5 39s-38.5 66.333 -38.5 121v400c0 54.667 12.833 95 38.5 121s66.167 39 121.5 39h260c55.333 0 95.833 -13 121.5 -39s38.5 -66.333 38.5 -121v-70z" />
    <glyph glyph-name="H" unicode="H" horiz-adv-x="720" 
d="M560 720h90v-720h-90v318h-400v-318h-90v720h90v-318h400v318z" />
    <glyph glyph-name="I" unicode="I" horiz-adv-x="230" 
d="M70 0v720h90v-720h-90z" />
    <glyph glyph-name="J" unicode="J" horiz-adv-x="700" 
d="M540 720h90v-560c0 -54.667 -13 -95 -39 -121s-66.333 -39 -121 -39h-260c-54.667 0 -95 13 -121 39s-39 66.333 -39 121v200h90v-200c0 -28 5 -47.667 15 -59s28.333 -17 55 -17h260c26.667 0 45 5.66699 55 17s15 31 15 59v560z" />
    <glyph glyph-name="K" unicode="K" horiz-adv-x="691" 
d="M671 720l-226 -360l226 -360h-106l-200 318h-205v-318h-90v720h90v-318h205l200 318h106z" />
    <glyph glyph-name="L" unicode="L" horiz-adv-x="630" 
d="M610 84v-84h-540v720h90v-636h450z" />
    <glyph glyph-name="M" unicode="M" horiz-adv-x="830" 
d="M602 720h158v-720h-90v636h-10l-183 -456h-125l-182 456h-10v-636h-90v720h157l183 -456h10z" />
    <glyph glyph-name="N" unicode="N" horiz-adv-x="720" 
d="M560 720h90v-720h-155l-325 636h-10v-636h-90v720h155l325 -636h10v636z" />
    <glyph glyph-name="O" unicode="O" horiz-adv-x="710" 
d="M485 720c55.333 0 95.833 -13 121.5 -39s38.5 -66.333 38.5 -121v-400c0 -54.667 -12.833 -95 -38.5 -121s-66.167 -39 -121.5 -39h-260c-55.333 0 -95.833 13 -121.5 39s-38.5 66.333 -38.5 121v400c0 54.667 12.833 95 38.5 121s66.167 39 121.5 39h260zM555 160v400
c0 28 -5 47.667 -15 59s-28.333 17 -55 17h-260c-26.667 0 -45 -5.66699 -55 -17s-15 -31 -15 -59v-400c0 -28 5 -47.667 15 -59s28.333 -17 55 -17h260c26.667 0 45 5.66699 55 17s15 31 15 59z" />
    <glyph glyph-name="P" unicode="P" horiz-adv-x="700" 
d="M490 720c54.667 0 95 -13 121 -39s39 -66.333 39 -121v-140c0 -54.667 -13 -95 -39 -121s-66.333 -39 -121 -39h-330v-260h-90v720h420zM560 420v140c0 28 -5 47.667 -15 59s-28.333 17 -55 17h-330v-292h330c26.667 0 45 5.66699 55 17s15 31 15 59z" />
    <glyph glyph-name="Q" unicode="Q" horiz-adv-x="710" 
d="M485 720c55.333 0 95.833 -13 121.5 -39s38.5 -66.333 38.5 -121v-400c0 -54.667 -12.833 -95 -38.5 -121s-66.167 -39 -121.5 -39h-85v-160h-90v160h-85c-55.333 0 -95.833 13 -121.5 39s-38.5 66.333 -38.5 121v400c0 54.667 12.833 95 38.5 121s66.167 39 121.5 39
h260zM555 160v400c0 28 -5 47.667 -15 59s-28.333 17 -55 17h-260c-26.667 0 -45 -5.66699 -55 -17s-15 -31 -15 -59v-400c0 -28 5 -47.667 15 -59s28.333 -17 55 -17h260c26.667 0 45 5.66699 55 17s15 31 15 59z" />
    <glyph glyph-name="R" unicode="R" horiz-adv-x="710" 
d="M650 420c0 -54.667 -13 -95 -39 -121s-66.333 -39 -121 -39h-19l164 -260h-107l-163 260h-205v-260h-90v720h420c54.667 0 95 -13 121 -39s39 -66.333 39 -121v-140zM160 344h330c26.667 0 45 5.66699 55 17s15 31 15 59v140c0 28 -5 47.667 -15 59s-28.333 17 -55 17
h-330v-292z" />
    <glyph glyph-name="S" unicode="S" horiz-adv-x="700" 
d="M640 490h-90v70c0 28 -5 47.667 -15 59s-28.333 17 -55 17h-260c-26.667 0 -45 -5.66699 -55 -17s-15 -31 -15 -59c0 -36 4.33301 -61.167 13 -75.5s27.667 -26.5 57 -36.5l260 -87c63.333 -21.333 105.833 -44.5 127.5 -69.5s32.5 -68.833 32.5 -131.5
c0 -54.667 -13 -95 -39 -121s-66.333 -39 -121 -39h-260c-54.667 0 -95 13 -121 39s-39 66.333 -39 121v70h90v-70c0 -28 5 -47.667 15 -59s28.333 -17 55 -17h260c26.667 0 45 5.66699 55 17s15 31 15 59c0 36 -4.33301 61.167 -13 75.5s-27.667 26.5 -57 36.5l-260 87
c-63.333 21.333 -105.833 44.5 -127.5 69.5s-32.5 68.833 -32.5 131.5c0 54.667 13 95 39 121s66.333 39 121 39h260c54.667 0 95 -13 121 -39s39 -66.333 39 -121v-70z" />
    <glyph glyph-name="T" unicode="T" horiz-adv-x="620" 
d="M600 720v-84h-245v-636h-90v636h-245v84h580z" />
    <glyph glyph-name="U" unicode="U" horiz-adv-x="720" 
d="M560 720h90v-560c0 -54.667 -13 -95 -39 -121s-66.333 -39 -121 -39h-260c-54.667 0 -95 13 -121 39s-39 66.333 -39 121v560h90v-560c0 -28 5 -47.667 15 -59s28.333 -17 55 -17h260c26.667 0 45 5.66699 55 17s15 31 15 59v560z" />
    <glyph glyph-name="V" unicode="V" horiz-adv-x="680" 
d="M660 720l-250 -720h-143l-247 720h95l219 -636h10l221 636h95z" />
    <glyph glyph-name="W" unicode="W" horiz-adv-x="1056" 
d="M933 720h93l-186 -720h-146l-161 636h-10l-164 -636h-147l-182 720h93l161 -636h10l164 636h140l161 -636h10z" />
    <glyph glyph-name="X" unicode="X" horiz-adv-x="663" 
d="M536 720h107l-227 -360l227 -360h-107l-200 318h-10l-200 -318h-106l226 360l-226 360h106l200 -318h10z" />
    <glyph glyph-name="Y" unicode="Y" horiz-adv-x="661" 
d="M641 720l-266 -480v-240h-90v240l-265 480h103l202 -366h10l203 366h103z" />
    <glyph glyph-name="Z" unicode="Z" horiz-adv-x="690" 
d="M635 592l-490 -498v-10h490v-84h-580v127l490 499v10h-490v84h580v-128z" />
    <glyph glyph-name="bracketleft" unicode="[" horiz-adv-x="340" 
d="M310 676h-150v-832h150v-84h-240v1000h240v-84z" />
    <glyph glyph-name="backslash" unicode="\" horiz-adv-x="415" 
d="M135 720l240 -720h-95l-240 720h95z" />
    <glyph glyph-name="bracketright" unicode="]" horiz-adv-x="340" 
d="M30 676v84h240v-1000h-240v84h150v832h-150z" />
    <glyph glyph-name="asciicircum" unicode="^" horiz-adv-x="611" 
d="M347 720l204 -320h-71l-169 266h-10l-170 -266h-71l204 320h83z" />
    <glyph glyph-name="underscore" unicode="_" horiz-adv-x="660" 
d="M600 54v-54h-540v54h540z" />
    <glyph glyph-name="grave" unicode="`" horiz-adv-x="315" 
d="M60 790h95l100 -150h-65z" />
    <glyph glyph-name="a" unicode="a" horiz-adv-x="625" 
d="M400 560c54.667 0 94.999 -13 120.999 -39s39 -66.333 39 -121v-240c0 -54.667 -13 -95 -39 -121s-66.333 -39 -121 -39h-180c-54.667 0 -95 13 -121 39s-39 66.333 -39 121c0 24 3.16699 44 9.5 60s17.833 29.167 34.5 39.5s32.334 17.833 47.001 22.5s37.667 11 69 19
l250 62v37c0 28 -5 47.667 -15 59s-28.333 17 -55 17h-180c-26.667 0 -45 -5.66699 -55 -17s-15 -31 -15 -59v-30h-90v30c0 54.667 13 95 39 121s66.333 39 121 39h180zM469.999 160v117l-250 -63c-29.333 -7.33301 -48.333 -14.333 -57 -21s-13 -17.667 -13 -33
c0 -28 5 -47.667 15 -59s28.333 -17 55 -17h180c26.667 0 45 5.66699 55 17s15 31 15 59z" />
    <glyph glyph-name="b" unicode="b" horiz-adv-x="635" 
d="M160 760v-200h250c54.667 0 95 -13 121 -39s39 -66.333 39 -121v-240c0 -54.667 -13 -95 -39 -121s-66.333 -39 -121 -39h-180c-54.667 0 -95 13 -121 39s-39 66.333 -39 121v600h90zM230 84h180c26.667 0 45 5.66699 55 17s15 31 15 59v240c0 28 -5 47.667 -15 59
s-28.333 17 -55 17h-250v-316c0 -28 5 -47.667 15 -59s28.333 -17 55 -17z" />
    <glyph glyph-name="c" unicode="c" horiz-adv-x="625" 
d="M475 190h90v-30c0 -54.667 -12.833 -95 -38.5 -121s-66.167 -39 -121.5 -39h-180c-55.333 0 -95.833 13 -121.5 39s-38.5 66.333 -38.5 121v240c0 54.667 12.833 95 38.5 121s66.167 39 121.5 39h180c55.333 0 95.833 -13 121.5 -39s38.5 -66.333 38.5 -121v-30h-90v30
c0 28 -5 47.667 -15 59s-28.333 17 -55 17h-180c-26.667 0 -45 -5.66699 -55 -17s-15 -31 -15 -59v-240c0 -28 5 -47.667 15 -59s28.333 -17 55 -17h180c26.667 0 45 5.66699 55 17s15 31 15 59v30z" />
    <glyph glyph-name="d" unicode="d" horiz-adv-x="635" 
d="M475 760h90v-600c0 -54.667 -12.833 -95 -38.5 -121s-66.167 -39 -121.5 -39h-180c-55.333 0 -95.833 13 -121.5 39s-38.5 66.333 -38.5 121v240c0 54.667 12.833 95 38.5 121s66.167 39 121.5 39h250v200zM405 84c26.667 0 45 5.66699 55 17s15 31 15 59v316h-250
c-26.667 0 -45 -5.66699 -55 -17s-15 -31 -15 -59v-240c0 -28 5 -47.667 15 -59s28.333 -17 55 -17h180z" />
    <glyph glyph-name="e" unicode="e" horiz-adv-x="630" 
d="M405 560c55.333 0 95.833 -13 121.5 -39s38.5 -66.333 38.5 -121v-162h-410v-78c0 -28 5 -47.667 15 -59s28.333 -17 55 -17h180c26.667 0 45 5.66699 55 17s15 31 15 59v30h90v-30c0 -54.667 -12.833 -95 -38.5 -121s-66.167 -39 -121.5 -39h-180
c-55.333 0 -95.833 13 -121.5 39s-38.5 66.333 -38.5 121v240c0 54.667 12.833 95 38.5 121s66.167 39 121.5 39h180zM475 322v78c0 28 -5 47.667 -15 59s-28.333 17 -55 17h-180c-26.667 0 -45 -5.66699 -55 -17s-15 -31 -15 -59v-78h320z" />
    <glyph glyph-name="f" unicode="f" horiz-adv-x="415" 
d="M210 676c-19.333 0 -32.5 -4.16699 -39.5 -12.5s-10.5 -22.833 -10.5 -43.5v-60h190v-84h-190v-476h-90v620c0 50 10.833 85.833 32.5 107.5s57.5 32.5 107.5 32.5h160v-84h-160z" />
    <glyph glyph-name="g" unicode="g" horiz-adv-x="590" 
d="M410 81c31.333 -8 54.332 -14.333 68.999 -19s30.334 -12.167 47.001 -22.5s28.167 -23.5 34.5 -39.5s9.5 -36 9.5 -60c0 -54.667 -13 -95 -39 -121s-66.333 -39 -121 -39h-180c-54.667 0 -95 13 -121 39s-39 66.333 -39 121v460c0 54.667 13 95 39 121s66.333 39 121 39
h140c54.667 0 95 -13 121 -39s39 -66.333 39 -121v-40c0 -54.667 -13 -95 -39 -121s-66.333 -39 -121 -39h-210v-57zM159.999 400v-116h210c26.667 0 45 5.66699 55 17s15 31 15 59v40c0 28 -5 47.667 -15 59s-28.333 17 -55 17h-140c-26.667 0 -45 -5.66699 -55 -17
s-15 -31 -15 -59zM409.999 -136c26.667 0 45 5.66699 55 17s15 31 15 59c0 15.333 -4.33301 26.333 -13 33s-27.667 13.667 -57 21l-250 63v-117c0 -28 5 -47.667 15 -59s28.333 -17 55 -17h180z" />
    <glyph glyph-name="h" unicode="h" 
d="M160 0h-90v760h90v-200h250c54.667 0 95 -13 121 -39s39 -66.333 39 -121v-400h-90v400c0 28 -5 47.667 -15 59s-28.333 17 -55 17h-250v-476z" />
    <glyph glyph-name="i" unicode="i" horiz-adv-x="230" 
d="M70 0v560h90v-560h-90zM115 760c18 0 33.333 -6.33301 46 -19s19 -28 19 -46s-6.33301 -33.333 -19 -46s-28 -19 -46 -19s-33.333 6.33301 -46 19s-19 28 -19 46s6.33301 33.333 19 46s28 19 46 19z" />
    <glyph glyph-name="j" unicode="j" horiz-adv-x="230" 
d="M115 760c18 0 33.333 -6.33301 46 -19s19 -28 19 -46s-6.33301 -33.333 -19 -46s-28 -19 -46 -19s-33.333 6.33301 -46 19s-19 28 -19 46s6.33301 33.333 19 46s28 19 46 19zM70 -60v620h90v-620c0 -50 -10.833 -85.833 -32.5 -107.5s-57.5 -32.5 -107.5 -32.5h-80v84h80
c19.333 0 32.5 4.16699 39.5 12.5s10.5 22.833 10.5 43.5z" />
    <glyph glyph-name="k" unicode="k" horiz-adv-x="610" 
d="M405 280l185 -280h-108l-157 238h-165v-238h-90v760h90v-438h165l157 238h108z" />
    <glyph glyph-name="l" unicode="l" horiz-adv-x="320" 
d="M160 140c0 -20.667 3.5 -35.167 10.5 -43.5s20.167 -12.5 39.5 -12.5h80v-84h-80c-50 -0 -85.833 10.833 -107.5 32.5s-32.5 57.5 -32.5 107.5v620h90v-620z" />
    <glyph glyph-name="m" unicode="m" horiz-adv-x="930" 
d="M700 560c54.667 0 95 -13 121 -39s39 -66.333 39 -121v-400h-90v400c0 28 -5 47.667 -15 59s-28.333 17 -55 17h-120c-26.667 0 -45 -5.66699 -55 -17s-15 -31 -15 -59v-400h-90v400c0 28 -5 47.667 -15 59s-28.333 17 -55 17h-120c-26.667 0 -45 -5.66699 -55 -17
s-15 -31 -15 -59v-400h-90v400c0 54.667 13 95 39 121s66.333 39 121 39h120c19.333 0 36.5 -2.33301 51.5 -7s26 -10.5 33 -17.5s12.667 -14 17 -21s6.83301 -12.833 7.5 -17.5l1 -7h10c0 2 0.333008 4.5 1 7.5s3.16699 8.5 7.5 16.5s10 15.167 17 21.5s18 12 33 17
s32.167 7.5 51.5 7.5h120z" />
    <glyph glyph-name="n" unicode="n" 
d="M480 0v400c0 28 -5 47.667 -15 59s-28.333 17 -55 17h-180c-26.667 0 -45 -5.66699 -55 -17s-15 -31 -15 -59v-400h-90v400c0 54.667 13 95 39 121s66.333 39 121 39h180c54.667 0 95 -13 121 -39s39 -66.333 39 -121v-400h-90z" />
    <glyph glyph-name="o" unicode="o" horiz-adv-x="630" 
d="M405 560c55.333 0 95.833 -13 121.5 -39s38.5 -66.333 38.5 -121v-240c0 -54.667 -12.833 -95 -38.5 -121s-66.167 -39 -121.5 -39h-180c-55.333 0 -95.833 13 -121.5 39s-38.5 66.333 -38.5 121v240c0 54.667 12.833 95 38.5 121s66.167 39 121.5 39h180zM475 160v240
c0 28 -5 47.667 -15 59s-28.333 17 -55 17h-180c-26.667 0 -45 -5.66699 -55 -17s-15 -31 -15 -59v-240c0 -28 5 -47.667 15 -59s28.333 -17 55 -17h180c26.667 0 45 5.66699 55 17s15 31 15 59z" />
    <glyph glyph-name="p" unicode="p" horiz-adv-x="635" 
d="M160 -200h-90v600c0 54.667 13 95 39 121s66.333 39 121 39h180c54.667 0 95 -13 121 -39s39 -66.333 39 -121v-240c0 -54.667 -13 -95 -39 -121s-66.333 -39 -121 -39h-250v-200zM230 476c-26.667 0 -45 -5.66699 -55 -17s-15 -31 -15 -59v-316h250
c26.667 0 45 5.66699 55 17s15 31 15 59v240c0 28 -5 47.667 -15 59s-28.333 17 -55 17h-180z" />
    <glyph glyph-name="q" unicode="q" horiz-adv-x="635" 
d="M475 -200v200h-250c-55.333 0 -95.833 13 -121.5 39s-38.5 66.333 -38.5 121v240c0 54.667 12.833 95 38.5 121s66.167 39 121.5 39h180c55.333 0 95.833 -13 121.5 -39s38.5 -66.333 38.5 -121v-600h-90zM405 476h-180c-26.667 0 -45 -5.66699 -55 -17s-15 -31 -15 -59
v-240c0 -28 5 -47.667 15 -59s28.333 -17 55 -17h250v316c0 28 -5 47.667 -15 59s-28.333 17 -55 17z" />
    <glyph glyph-name="r" unicode="r" horiz-adv-x="400" 
d="M370 560v-84h-140c-26.667 0 -45 -5.66699 -55 -17s-15 -31 -15 -59v-400h-90v400c0 54.667 13 95 39 121s66.333 39 121 39h140z" />
    <glyph glyph-name="s" unicode="s" horiz-adv-x="620" 
d="M560 370h-90v30c0 28 -5 47.667 -15 59s-28.333 17 -55 17h-180c-26.667 0 -45 -5.66699 -55 -17s-15 -31 -15 -59c0 -15.333 4.33301 -26.333 13 -33s27.667 -13.667 57 -21l180 -45c31.333 -8 54.333 -14.333 69 -19s30.334 -12.167 47.001 -22.5
s28.167 -23.5 34.5 -39.5s9.5 -36 9.5 -60c0 -54.667 -13 -95 -39 -121s-66.333 -39 -121 -39h-180c-54.667 0 -95 13 -121 39s-39 66.333 -39 121v30h90v-30c0 -28 5 -47.667 15 -59s28.333 -17 55 -17h180c26.667 0 45 5.66699 55 17s15 31 15 59
c0 15.333 -4.33301 26.333 -13 33s-27.667 13.667 -57 21l-180 45c-31.333 8 -54.333 14.333 -69 19s-30.334 12.167 -47.001 22.5s-28.167 23.5 -34.5 39.5s-9.5 36 -9.5 60c0 54.667 13 95 39 121s66.333 39 121 39h180c54.667 0 95 -13 121 -39s39 -66.333 39 -121v-30z
" />
    <glyph glyph-name="t" unicode="t" horiz-adv-x="415" 
d="M210 84h160v-84h-160c-50 -0 -85.833 10.833 -107.5 32.5s-32.5 57.5 -32.5 107.5v520h90v-100h190v-84h-190v-336c0 -20.667 3.5 -35.167 10.5 -43.5s20.167 -12.5 39.5 -12.5z" />
    <glyph glyph-name="u" unicode="u" 
d="M480 560h90v-400c0 -54.667 -13 -95 -39 -121s-66.333 -39 -121 -39h-180c-54.667 0 -95 13 -121 39s-39 66.333 -39 121v400h90v-400c0 -28 5 -47.667 15 -59s28.333 -17 55 -17h180c26.667 0 45 5.66699 55 17s15 31 15 59v400z" />
    <glyph glyph-name="v" unicode="v" horiz-adv-x="602" 
d="M296 84h10l180 476h96l-211 -560h-139l-212 560h96z" />
    <glyph glyph-name="w" unicode="w" horiz-adv-x="896" 
d="M773 560h93l-144 -560h-146l-123 476h-10l-122 -476h-147l-144 560h93l122 -476h10l123 476h140l123 -476h10z" />
    <glyph glyph-name="x" unicode="x" horiz-adv-x="581" 
d="M375 280l186 -280h-108l-158 238h-10l-157 -238h-108l185 280l-185 280h108l157 -238h10l158 238h108z" />
    <glyph glyph-name="y" unicode="y" horiz-adv-x="602" 
d="M486 560h96l-287 -760h-96l75 200h-42l-212 560h96l180 -476h10z" />
    <glyph glyph-name="z" unicode="z" horiz-adv-x="610" 
d="M555 427l-410 -333v-10h410v-84h-500v132l410 334v10h-410v84h500v-133z" />
    <glyph glyph-name="braceleft" unicode="{" horiz-adv-x="400" 
d="M220 375c0 -19.333 -2.33301 -36.5 -7 -51.5s-10.5 -26 -17.5 -33s-14 -12.667 -21 -17s-12.833 -6.83301 -17.5 -7.5l-7 -1v-10c2 0 4.5 -0.333008 7.5 -1s8.5 -3.16699 16.5 -7.5s15.167 -10 21.5 -17s12 -18 17 -33s7.5 -32.167 7.5 -51.5v-225
c0 -28 5 -47.667 15 -59s28.333 -17 55 -17h80v-84h-80c-54.667 0 -95 13 -121 39s-39 66.333 -39 121v225c0 28 -4.83301 47.167 -14.5 57.5s-28.167 15.5 -55.5 15.5h-40v84h40c27.333 0 45.833 5.16699 55.5 15.5s14.5 29.5 14.5 57.5v225c0 54.667 13 95 39 121
s66.333 39 121 39h80v-84h-80c-26.667 0 -45 -5.66699 -55 -17s-15 -31 -15 -59v-225z" />
    <glyph glyph-name="bar" unicode="|" horiz-adv-x="200" 
d="M70 -240v1040h60v-1040h-60z" />
    <glyph glyph-name="braceright" unicode="}" horiz-adv-x="400" 
d="M180 375v225c0 28 -5 47.667 -15 59s-28.333 17 -55 17h-80v84h80c54.667 0 95 -13 121 -39s39 -66.333 39 -121v-225c0 -28 4.83301 -47.167 14.5 -57.5s28.167 -15.5 55.5 -15.5h40v-84h-40c-27.333 0 -45.833 -5.16699 -55.5 -15.5s-14.5 -29.5 -14.5 -57.5v-225
c0 -54.667 -13 -95 -39 -121s-66.333 -39 -121 -39h-80v84h80c26.667 0 45 5.66699 55 17s15 31 15 59v225c0 19.333 2.33301 36.5 7 51.5s10.5 26 17.5 33s14 12.667 21 17s12.833 6.83301 17.5 7.5l7 1v10c-2 0 -4.5 0.333008 -7.5 1s-8.5 3.16699 -16.5 7.5
s-15.167 10 -21.5 17s-12 18 -17 33s-7.5 32.167 -7.5 51.5z" />
    <glyph glyph-name="asciitilde" unicode="~" horiz-adv-x="600" 
d="M450 420h90v-42c0 -50 -10.833 -85.833 -32.5 -107.5s-57.5 -32.5 -107.5 -32.5h-200c-19.333 0 -32.5 -4.16699 -39.5 -12.5s-10.5 -22.833 -10.5 -43.5v-42h-90v42c0 50 10.833 85.833 32.5 107.5s57.5 32.5 107.5 32.5h200c19.333 0 32.5 4.16699 39.5 12.5
s10.5 22.833 10.5 43.5v42z" />
    <glyph glyph-name="uni00A0" unicode="&#xa0;" horiz-adv-x="320" 
 />
    <glyph glyph-name="exclamdown" unicode="&#xa1;" horiz-adv-x="230" 
d="M70 -160v530h90v-530h-90zM115 570c18 0 33.333 -6.33301 46 -19s19 -28 19 -46s-6.33301 -33.333 -19 -46s-28 -19 -46 -19s-33.333 6.33301 -46 19s-19 28 -19 46s6.33301 33.333 19 46s28 19 46 19z" />
    <glyph glyph-name="cent" unicode="&#xa2;" horiz-adv-x="625" 
d="M565 450h-90v30c0 28 -5 47.667 -15 59s-28.333 17 -55 17h-180c-26.667 0 -45 -5.66699 -55 -17s-15 -31 -15 -59v-240c0 -28 5 -47.667 15 -59s28.333 -17 55 -17h180c26.667 0 45 5.66699 55 17s15 31 15 59v30h90v-30c0 -54.667 -12.833 -95 -38.5 -121
s-66.167 -39 -121.5 -39h-45v-80h-90v80h-45c-55.333 0 -95.833 13 -121.5 39s-38.5 66.333 -38.5 121v240c0 54.667 12.833 95 38.5 121s66.167 39 121.5 39h45v80h90v-80h45c55.333 0 95.833 -13 121.5 -39s38.5 -66.333 38.5 -121v-30z" />
    <glyph glyph-name="sterling" unicode="&#xa3;" horiz-adv-x="720" 
d="M660 490h-90v70c0 28 -5 47.667 -15 59s-28.333 17 -55 17h-220c-26.667 0 -45 -5.66699 -55 -17s-15 -31 -15 -59v-153h180v-84h-180v-239h450v-84h-620v84h80v239h-80v84h80v153c0 54.667 13 95 39 121s66.333 39 121 39h220c54.667 0 95 -13 121 -39
s39 -66.333 39 -121v-70z" />
    <glyph glyph-name="currency" unicode="&#xa4;" horiz-adv-x="600" 
d="M510 360c0 -42 -11 -79.667 -33 -113l63 -63l-64 -64l-63 63c-33.333 -22 -71 -33 -113 -33s-79.667 11 -113 33l-63 -63l-64 64l63 63c-22 33.333 -33 71 -33 113s11 79.667 33 113l-63 63l64 64l63 -63c33.333 22 71 33 113 33s79.667 -11 113 -33l63 63l64 -64
l-63 -63c22 -33.333 33 -71 33 -113zM180 360c0 -33.333 11.667 -61.666 35 -84.999s51.666 -35 84.999 -35s61.666 11.667 84.999 35s35 51.666 35 84.999s-11.667 61.666 -35 84.999s-51.666 35 -84.999 35s-61.666 -11.667 -84.999 -35s-35 -51.666 -35 -84.999z" />
    <glyph glyph-name="yen" unicode="&#xa5;" horiz-adv-x="661" 
d="M641 720l-203 -366h82v-54h-380v54h82l-202 366h103l202 -366h10l203 366h103zM140 154v54h380v-54h-145v-154h-90v154h-145z" />
    <glyph glyph-name="brokenbar" unicode="&#xa6;" horiz-adv-x="200" 
d="M70 -160v320h60v-320h-60zM70 720h60v-320h-60v320z" />
    <glyph glyph-name="section" unicode="&#xa7;" horiz-adv-x="620" 
d="M560 530h-90v30c0 28 -5 47.667 -15 59s-28.333 17 -55 17h-180c-26.667 0 -45 -5.66699 -55 -17s-15 -31 -15 -59c0 -15.333 4.33301 -26.333 13 -33s27.667 -13.667 57 -21l180 -45c31.333 -8 54.333 -14.333 69 -19s30.334 -12.167 47.001 -22.5
s28.167 -23.5 34.5 -39.5s9.5 -36 9.5 -60v-60h-90v60c0 15.333 -4.33301 26.333 -13 33s-27.667 13.667 -57 21l-180 45c-31.333 8 -54.333 14.333 -69 19s-30.334 12.167 -47.001 22.5s-28.167 23.5 -34.5 39.5s-9.5 36 -9.5 60c0 54.667 13 95 39 121s66.333 39 121 39
h180c54.667 0 95 -13 121 -39s39 -66.333 39 -121v-30zM400 221c31.333 -8 54.333 -14.333 69 -19s30.334 -12.167 47.001 -22.5s28.167 -23.5 34.5 -39.5s9.5 -36 9.5 -60c0 -54.667 -13 -95 -39 -121s-66.333 -39 -121 -39h-180c-54.667 0 -95 13 -121 39
s-39 66.333 -39 121v30h90v-30c0 -28 5 -47.667 15 -59s28.333 -17 55 -17h180c26.667 0 45 5.66699 55 17s15 31 15 59c0 15.333 -4.33301 26.333 -13 33s-27.667 13.667 -57 21l-180 45c-31.333 8 -54.333 14.333 -69 19s-30.334 12.167 -47.001 22.5
s-28.167 23.5 -34.5 39.5s-9.5 36 -9.5 60v60h90v-60c0 -15.333 4.33301 -26.333 13 -33s27.667 -13.667 57 -21z" />
    <glyph glyph-name="dieresis" unicode="&#xa8;" horiz-adv-x="390" 
d="M115 740c15.333 0 28.333 -5.33301 39 -16s16 -23.667 16 -39s-5.33301 -28.333 -16 -39s-23.667 -16 -39 -16s-28.333 5.33301 -39 16s-16 23.667 -16 39s5.33301 28.333 16 39s23.667 16 39 16zM275 740c15.333 0 28.333 -5.33301 39 -16s16 -23.667 16 -39
s-5.33301 -28.333 -16 -39s-23.667 -16 -39 -16s-28.333 5.33301 -39 16s-16 23.667 -16 39s5.33301 28.333 16 39s23.667 16 39 16z" />
    <glyph glyph-name="copyright" unicode="&#xa9;" horiz-adv-x="800" 
d="M435 540c44.667 0 75.834 -8.66699 93.501 -26s26.5 -48.666 26.5 -93.999v-20h-60v20c0 26.667 -3.66699 44.334 -11 53.001s-23.666 13 -48.999 13h-70c-26 0 -42.5 -4.33301 -49.5 -13s-10.5 -26.334 -10.5 -53.001v-120c0 -27.333 3.5 -45.166 10.5 -53.499
s23.5 -12.5 49.5 -12.5h70c25.333 0 41.666 4.16699 48.999 12.5s11 26.166 11 53.499v20h60v-20c0 -45.333 -8.83301 -76.666 -26.5 -93.999s-48.834 -26 -93.501 -26h-70c-44.667 0 -75.834 8.66699 -93.501 26s-26.5 48.666 -26.5 93.999v120
c0 45.333 8.83301 76.666 26.5 93.999s48.834 26 93.501 26h70zM400 700c94 0 174.167 -33.167 240.5 -99.5s99.5 -146.5 99.5 -240.5s-33.167 -174.167 -99.5 -240.5s-146.5 -99.5 -240.5 -99.5s-174.167 33.167 -240.5 99.5s-99.5 146.5 -99.5 240.5
s33.167 174.167 99.5 240.5s146.5 99.5 240.5 99.5zM400 80c77.333 0 143.333 27.333 198 82s82 120.667 82 198s-27.333 143.333 -82 198s-120.667 82 -198 82s-143.333 -27.333 -198 -82s-82 -120.667 -82 -198s27.333 -143.333 82 -198s120.667 -82 198 -82z" />
    <glyph glyph-name="ordfeminine" unicode="&#xaa;" horiz-adv-x="435" 
d="M250 720c44 0 75.001 -7.66602 93.001 -22.999s27 -41 27 -77v-140c0 -45.333 -8.66699 -76.666 -26 -93.999s-48.666 -26 -93.999 -26h-70c-44 0 -75 7.66699 -93 23s-27 41 -27 77c0 31.333 7 52.333 21 63s47 22.667 99 36l130 33v28
c0 17.333 -3.83301 29.333 -11.5 36s-23.834 10 -48.501 10h-70c-26 0 -42.5 -4.33301 -49.5 -13s-10.5 -26.334 -10.5 -53.001v-20h-60v20c0 45.333 8.66699 76.666 26 93.999s48.666 26 93.999 26h70zM250.001 414.001c25.333 0 41.667 4.16797 49 12.501
s11 26.166 11 53.499v56l-130 -33c-29.333 -7.33301 -46.666 -13 -51.999 -17s-8 -12.667 -8 -26c0 -17.333 3.66699 -29.333 11 -36s23.666 -10 48.999 -10h70z" />
    <glyph glyph-name="guillemotleft" unicode="&#xab;" horiz-adv-x="635" 
d="M322 480l-150 -200l150 -200h-112l-150 200l150 200h112zM575 480l-150 -200l150 -200h-113l-150 200l150 200h113z" />
    <glyph glyph-name="logicalnot" unicode="&#xac;" horiz-adv-x="600" 
d="M60 380h480v-200h-90v116h-390v84z" />
    <glyph glyph-name="uni00AD" unicode="&#xad;" horiz-adv-x="400" 
d="M340 322v-84h-280v84h280z" />
    <glyph glyph-name="registered" unicode="&#xae;" horiz-adv-x="800" 
d="M445 540c44.667 0 75.833 -8.33301 93.5 -25s26.5 -45 26.5 -85v-20c0 -35.333 -6.66699 -61.5 -20 -78.5s-36.333 -27.167 -69 -30.5l79 -121h-72l-78 120h-90v-120h-60v360h190zM504.999 410v20c0 22 -3.66699 36.833 -11 44.5s-23.666 11.5 -48.999 11.5h-130v-132
h130c25.333 0 41.666 3.83301 48.999 11.5s11 22.5 11 44.5zM399.999 700c94 0 174.167 -33.167 240.5 -99.5s99.5 -146.5 99.5 -240.5s-33.167 -174.167 -99.5 -240.5s-146.5 -99.5 -240.5 -99.5s-174.167 33.167 -240.5 99.5s-99.5 146.5 -99.5 240.5
s33.167 174.167 99.5 240.5s146.5 99.5 240.5 99.5zM399.999 80c77.333 0 143.333 27.333 198 82s82 120.667 82 198s-27.333 143.333 -82 198s-120.667 82 -198 82s-143.333 -27.333 -198 -82s-82 -120.667 -82 -198s27.333 -143.333 82 -198s120.667 -82 198 -82z" />
    <glyph glyph-name="macron" unicode="&#xaf;" horiz-adv-x="370" 
d="M60 640v54h250v-54h-250z" />
    <glyph glyph-name="degree" unicode="&#xb0;" horiz-adv-x="500" 
d="M250 730c52.667 0 97.5 -18.5 134.5 -55.5s55.5 -81.833 55.5 -134.5s-18.5 -97.5 -55.5 -134.5s-81.833 -55.5 -134.5 -55.5s-97.5 18.5 -134.5 55.5s-55.5 81.833 -55.5 134.5s18.5 97.5 55.5 134.5s81.833 55.5 134.5 55.5zM250 410c36 0 66.667 12.667 92 38
s38 56 38 92s-12.667 66.667 -38 92s-56 38 -92 38s-66.667 -12.667 -92 -38s-38 -56 -38 -92s12.667 -66.667 38 -92s56 -38 92 -38z" />
    <glyph glyph-name="plusminus" unicode="&#xb1;" horiz-adv-x="600" 
d="M60 40v84h480v-84h-480zM345 382h195v-84h-195v-138h-90v138h-195v84h195v138h90v-138z" />
    <glyph glyph-name="twosuperior" unicode="&#xb2;" horiz-adv-x="435" 
d="M185 493c-29.333 -7.33301 -46.6689 -12.998 -52.002 -16.998s-8 -12.667 -8 -26v-36h250v-54h-310v90c0 31.333 7 52.333 21 63s47 22.667 99 36l70 18c29.333 7.33301 46.666 13 51.999 17s8 12.667 8 26c0 22 -3.66699 36.833 -11 44.5s-23.666 11.5 -48.999 11.5h-70
c-26 0 -42.5 -4.33301 -49.5 -13s-10.5 -26.334 -10.5 -53.001v-20h-60v20c0 45.333 8.83301 76.666 26.5 93.999s48.834 26 93.501 26h70c44.667 0 75.834 -8.33301 93.501 -25s26.5 -45 26.5 -85c0 -31.333 -7 -52.333 -21 -63s-47 -22.667 -99 -36z" />
    <glyph glyph-name="threesuperior" unicode="&#xb3;" horiz-adv-x="435" 
d="M320 535c1.33301 0 3.16699 -0.330078 5.5 -0.99707s6.33301 -2.33398 12 -5.00098s10.667 -6 15 -10s8.33301 -10.333 12 -19s5.5 -18.667 5.5 -30c0 -40 -8.83301 -68.333 -26.5 -85s-48.834 -25 -93.501 -25h-70c-45.333 0 -76.666 8.66699 -93.999 26
s-26 48.666 -26 93.999v10h60v-10c0 -27.333 3.5 -45.166 10.5 -53.499s23.5 -12.5 49.5 -12.5h70c25.333 0 41.666 3.83301 48.999 11.5s11 22.5 11 44.5c0 14 -4 24.667 -12 32s-24 11 -48 11h-90v54h90c24 0 40 3.66699 48 11s12 18 12 32c0 22 -3.66699 36.833 -11 44.5
s-23.666 11.5 -48.999 11.5h-70c-26 0 -42.5 -4.33301 -49.5 -13s-10.5 -26.334 -10.5 -53.001v-10h-60v10c0 45.333 8.66699 76.666 26 93.999s48.666 26 93.999 26h70c44.667 0 75.834 -8.33301 93.501 -25s26.5 -45 26.5 -85c0 -18 -4.16699 -32.333 -12.5 -43
s-16.833 -17 -25.5 -19l-12 -3v-10z" />
    <glyph glyph-name="acute" unicode="&#xb4;" horiz-adv-x="315" 
d="M255 790l-130 -150h-65l100 150h95z" />
    <glyph glyph-name="mu" unicode="&#xb5;" 
d="M480 560h90v-400c0 -54.667 -13 -95 -39 -121s-66.333 -39 -121 -39h-250v-160h-90v720h90v-476h250c26.667 0 45 5.66699 55 17s15 31 15 59v400z" />
    <glyph glyph-name="paragraph" unicode="&#xb6;" horiz-adv-x="560" 
d="M430 720h60v-840h-60v840zM50 560c0 54.667 13 95 39 121s66.333 39 121 39h100v-840h-60v320h-40c-54.667 0 -95 13 -121 39s-39 66.333 -39 121v200z" />
    <glyph glyph-name="periodcentered" unicode="&#xb7;" horiz-adv-x="250" 
d="M125 345c18 0 33.333 -6.33301 46 -19s19 -28 19 -46s-6.33301 -33.333 -19 -46s-28 -19 -46 -19s-33.333 6.33301 -46 19s-19 28 -19 46s6.33301 33.333 19 46s28 19 46 19z" />
    <glyph glyph-name="cedilla" unicode="&#xb8;" horiz-adv-x="370" 
d="M120 0h60v-45h50c30 0 50.833 -5.83301 62.5 -17.5s17.5 -32.5 17.5 -62.5v-25c0 -30 -5.83301 -50.833 -17.5 -62.5s-32.5 -17.5 -62.5 -17.5h-170v54h170c8 0 13.333 2 16 6s4 10.667 4 20v25c0 9.33301 -1.33301 16 -4 20s-8 6 -16 6h-110v99z" />
    <glyph glyph-name="onesuperior" unicode="&#xb9;" horiz-adv-x="240" 
d="M30 720h140v-360h-60v306h-80v54z" />
    <glyph glyph-name="ordmasculine" unicode="&#xba;" horiz-adv-x="440" 
d="M255 720c44.667 0 75.834 -8.66699 93.501 -26s26.5 -48.666 26.5 -93.999v-120c0 -45.333 -8.83301 -76.666 -26.5 -93.999s-48.834 -26 -93.501 -26h-70c-44.667 0 -75.834 8.66699 -93.501 26s-26.5 48.666 -26.5 93.999v120c0 45.333 8.83301 76.666 26.5 93.999
s48.834 26 93.501 26h70zM315 480v120c0 26.667 -3.66699 44.334 -11 53.001s-23.666 13 -48.999 13h-70c-26 0 -42.5 -4.33301 -49.5 -13s-10.5 -26.334 -10.5 -53.001v-120c0 -27.333 3.5 -45.166 10.5 -53.499s23.5 -12.5 49.5 -12.5h70
c25.333 0 41.666 4.16699 48.999 12.5s11 26.166 11 53.499z" />
    <glyph glyph-name="guillemotright" unicode="&#xbb;" horiz-adv-x="635" 
d="M312 480h113l150 -200l-150 -200h-113l150 200zM60 480h112l150 -200l-150 -200h-112l150 200z" />
    <glyph glyph-name="onequarter" unicode="&#xbc;" horiz-adv-x="675" 
d="M110 360v306h-80v54h140v-360h-60zM426 720h67l-360 -720h-67zM560 280h60v-280h-60v70h-250v82l138 208h72l-150 -226v-10h190v156z" />
    <glyph glyph-name="onehalf" unicode="&#xbd;" horiz-adv-x="720" 
d="M110 360v306h-80v54h140v-360h-60zM426 720h67l-360 -720h-67zM410 90l-0.000976562 -35.998h250v-54h-310v90c0 31.333 7 52.333 21 63s47 22.667 99 36l70 18c29.333 7.33301 46.666 13 51.999 17s8 12.667 8 26c0 22 -3.66699 36.833 -11 44.5
s-23.666 11.5 -48.999 11.5h-70c-26 0 -42.5 -4.33301 -49.5 -13s-10.5 -26.334 -10.5 -53.001v-20h-60v20c0 45.333 8.66699 76.666 26 93.999s48.666 26 93.999 26h70c44.667 0 75.834 -8.33301 93.501 -25s26.5 -45 26.5 -85c0 -31.333 -7 -52.333 -21 -63
s-47 -22.667 -99 -36l-70 -18c-29.333 -7.33301 -46.666 -13 -51.999 -17s-8 -12.667 -8 -26z" />
    <glyph glyph-name="threequarters" unicode="&#xbe;" horiz-adv-x="835" 
d="M370 470c0 -40 -8.83203 -68.3301 -26.499 -84.9971s-48.834 -25 -93.501 -25h-70c-45.333 0 -76.666 8.66699 -93.999 26s-26 48.666 -26 93.999v10h60v-10c0 -27.333 3.5 -45.166 10.5 -53.499s23.5 -12.5 49.5 -12.5h70c25.333 0 41.666 3.83301 48.999 11.5
s11 22.5 11 44.5c0 14 -4 24.667 -12 32s-24 11 -48 11h-90v54h90c24 0 40 3.66699 48 11s12 18 12 32c0 22 -3.66699 36.833 -11 44.5s-23.666 11.5 -48.999 11.5h-70c-26 0 -42.5 -4.33301 -49.5 -13s-10.5 -26.334 -10.5 -53.001v-10h-60v10
c0 45.333 8.66699 76.666 26 93.999s48.666 26 93.999 26h70c44.667 0 75.834 -8.33301 93.501 -25s26.5 -45 26.5 -85c0 -18 -4.16699 -32.333 -12.5 -43s-16.833 -17 -25.5 -19l-12 -3v-10c1.33301 0 3.16602 -0.333008 5.49902 -1s6.33301 -2.33398 12 -5.00098
s10.667 -6 15 -10s8.33301 -10.333 12 -19s5.5 -18.667 5.5 -30zM586.001 720.003h67l-360 -720h-67zM720.001 280.003h60v-280h-60v70h-250v82l138 208h72l-150 -226v-10h190v156z" />
    <glyph glyph-name="questiondown" unicode="&#xbf;" horiz-adv-x="660" 
d="M210 -160c-54.667 0 -95 13 -121 39s-39 66.333 -39 121v120c0 54.667 13 95 39 121s66.333 39 121 39h105v90h90v-174h-195c-26.667 0 -45 -5.66699 -55 -17s-15 -31 -15 -59v-120c0 -28 5 -47.667 15 -59s28.333 -17 55 -17h260c26.667 0 45 5.66699 55 17s15 31 15 59
v70h90v-70c0 -54.667 -13 -95 -39 -121s-66.333 -39 -121 -39h-260zM360 440c-18 0 -33.333 6.33301 -46 19s-19 28 -19 46s6.33301 33.333 19 46s28 19 46 19s33.333 -6.33301 46 -19s19 -28 19 -46s-6.33301 -33.333 -19 -46s-28 -19 -46 -19z" />
    <glyph glyph-name="Agrave" unicode="&#xc0;" horiz-adv-x="680" 
d="M395 800h-65l-130 150h95zM410 720l250 -720h-95l-69 198h-313l-68 -198h-95l247 720h143zM212 282h255l-123 354h-10z" />
    <glyph glyph-name="Aacute" unicode="&#xc1;" horiz-adv-x="680" 
d="M285 800l100 150h95l-130 -150h-65zM271 720h142l247 -720h-95l-68 198h-313l-69 -198h-95zM468 282l-121 354h-10l-124 -354h255z" />
    <glyph glyph-name="Acircumflex" unicode="&#xc2;" horiz-adv-x="680" 
d="M410 720l250 -720h-95l-69 198h-313l-68 -198h-95l247 720h143zM212 282h255l-123 354h-10zM335 896l-72 -96h-76l114 150h79l113 -150h-75l-73 96h-10z" />
    <glyph glyph-name="Atilde" unicode="&#xc3;" horiz-adv-x="680" 
d="M410 720l250 -720h-95l-69 198h-313l-68 -198h-95l247 720h143zM212 282h255l-123 354h-10zM275 827v-27h-60v27c0 30 5.83301 50.833 17.5 62.5s32.5 17.5 62.5 17.5h90c8.66699 0 14.167 1.83301 16.5 5.5s3.5 10.5 3.5 20.5v27h60v-27
c0 -30 -5.83301 -50.833 -17.5 -62.5s-32.5 -17.5 -62.5 -17.5h-90c-8 0 -13.333 -2 -16 -6s-4 -10.667 -4 -20z" />
    <glyph glyph-name="Adieresis" unicode="&#xc4;" horiz-adv-x="680" 
d="M410 720l250 -720h-95l-69 198h-313l-68 -198h-95l247 720h143zM212 282h255l-123 354h-10zM420 790c-14.667 0 -27.5 5.33301 -38.5 16s-16.5 23.667 -16.5 39s5.5 28.333 16.5 39s23.833 16 38.5 16c15.333 0 28.333 -5.33301 39 -16s16 -23.667 16 -39
s-5.33301 -28.333 -16 -39s-23.667 -16 -39 -16zM260 790c-14.667 0 -27.5 5.33301 -38.5 16s-16.5 23.667 -16.5 39s5.5 28.333 16.5 39s23.833 16 38.5 16c15.333 0 28.333 -5.33301 39 -16s16 -23.667 16 -39s-5.33301 -28.333 -16 -39s-23.667 -16 -39 -16z" />
    <glyph glyph-name="Aring" unicode="&#xc5;" horiz-adv-x="680" 
d="M340 790c-26 0 -48.333 9.16699 -67 27.5s-28 40.833 -28 67.5c0 26 9.33301 48.333 28 67s41 28 67 28c26.667 0 49.167 -9.33301 67.5 -28s27.5 -41 27.5 -67c0 -26.667 -9.16699 -49.167 -27.5 -67.5s-40.833 -27.5 -67.5 -27.5zM340 925
c-10.667 0 -20 -3.83301 -28 -11.5s-12 -17.167 -12 -28.5s4 -20.833 12 -28.5s17.333 -11.5 28 -11.5s20 3.83301 28 11.5s12 17.167 12 28.5s-4 20.833 -12 28.5s-17.333 11.5 -28 11.5zM410 720l250 -720h-95l-69 198h-313l-68 -198h-95l247 720h143zM212 282h255
l-123 354h-10z" />
    <glyph glyph-name="AE" unicode="&#xc6;" horiz-adv-x="1060" 
d="M1005 636h-450v-234h440v-84h-440v-234h450v-84h-540v198h-240l-103 -198h-102l377 720h608v-84zM269 282h196v354h-10z" />
    <glyph glyph-name="Ccedilla" unicode="&#xc7;" horiz-adv-x="705" 
d="M645 490h-90v70c0 28 -5 47.667 -15 59s-28.333 17 -55 17h-260c-26.667 0 -45 -5.66699 -55 -17s-15 -31 -15 -59v-400c0 -28 5 -47.667 15 -59s28.333 -17 55 -17h260c26.667 0 45 5.66699 55 17s15 31 15 59v70h90v-70c0 -54.667 -12.833 -95 -38.5 -121
s-66.167 -39 -121.5 -39h-135v-45h50c30 0 50.833 -5.83301 62.5 -17.5s17.5 -32.5 17.5 -62.5v-25c0 -30 -5.83301 -50.833 -17.5 -62.5s-32.5 -17.5 -62.5 -17.5h-170v54h170c8 0 13.333 2 16 6s4 10.667 4 20v25c0 9.33301 -1.33301 16 -4 20s-8 6 -16 6h-110v99h-65
c-55.333 0 -95.833 13 -121.5 39s-38.5 66.333 -38.5 121v400c0 54.667 12.833 95 38.5 121s66.167 39 121.5 39h260c55.333 0 95.833 -13 121.5 -39s38.5 -66.333 38.5 -121v-70z" />
    <glyph glyph-name="Egrave" unicode="&#xc8;" horiz-adv-x="665" 
d="M395 800h-65l-130 150h95zM610 636h-450v-234h440v-84h-440v-234h450v-84h-540v720h540v-84z" />
    <glyph glyph-name="Eacute" unicode="&#xc9;" horiz-adv-x="665" 
d="M610 636h-450v-234h440v-84h-440v-234h450v-84h-540v720h540v-84zM480 950l-130 -150h-65l100 150h95z" />
    <glyph glyph-name="Ecircumflex" unicode="&#xca;" horiz-adv-x="665" 
d="M610 636h-450v-234h440v-84h-440v-234h450v-84h-540v720h540v-84zM335 896l-73 -96h-75l114 150h78l114 -150h-76l-72 96h-10z" />
    <glyph glyph-name="Edieresis" unicode="&#xcb;" horiz-adv-x="665" 
d="M610 636h-450v-234h440v-84h-440v-234h450v-84h-540v720h540v-84zM420 790c-14.667 0 -27.5 5.33301 -38.5 16s-16.5 23.667 -16.5 39s5.5 28.333 16.5 39s23.833 16 38.5 16s27.5 -5.33301 38.5 -16s16.5 -23.667 16.5 -39s-5.5 -28.333 -16.5 -39
s-23.833 -16 -38.5 -16zM260 790c-14.667 0 -27.5 5.33301 -38.5 16s-16.5 23.667 -16.5 39s5.5 28.333 16.5 39s23.833 16 38.5 16s27.5 -5.33301 38.5 -16s16.5 -23.667 16.5 -39s-5.5 -28.333 -16.5 -39s-23.833 -16 -38.5 -16z" />
    <glyph glyph-name="Igrave" unicode="&#xcc;" horiz-adv-x="230" 
d="M160 0h-90v720h90v-720zM-25 950h95l100 -150h-65z" />
    <glyph glyph-name="Iacute" unicode="&#xcd;" horiz-adv-x="230" 
d="M70 0v720h90v-720h-90zM255 950l-130 -150h-65l100 150h95z" />
    <glyph glyph-name="Icircumflex" unicode="&#xce;" horiz-adv-x="230" 
d="M70 0v720h90v-720h-90zM154 950l113 -150h-75l-72 96h-10l-73 -96h-75l113 150h79z" />
    <glyph glyph-name="Idieresis" unicode="&#xcf;" horiz-adv-x="230" 
d="M70 0v720h90v-720h-90zM195 900c15.333 0 28.333 -5.33301 39 -16s16 -23.667 16 -39s-5.33301 -28.333 -16 -39s-23.667 -16 -39 -16s-28.333 5.33301 -39 16s-16 23.667 -16 39s5.33301 28.333 16 39s23.667 16 39 16zM90 845c0 -15.333 -5.33301 -28.333 -16 -39
s-23.667 -16 -39 -16s-28.333 5.33301 -39 16s-16 23.667 -16 39s5.33301 28.333 16 39s23.667 16 39 16s28.333 -5.33301 39 -16s16 -23.667 16 -39z" />
    <glyph glyph-name="Eth" unicode="&#xd0;" horiz-adv-x="755" 
d="M530 720c54.667 0 95 -13 121 -39s39 -66.333 39 -121v-400c0 -54.667 -13 -95 -39 -121s-66.333 -39 -121 -39h-420v318h-80v84h80v318h420zM600 160v400c0 28 -5 47.667 -15 59s-28.333 17 -55 17h-330v-234h200v-84h-200v-234h330c26.667 0 45 5.66699 55 17
s15 31 15 59z" />
    <glyph glyph-name="Ntilde" unicode="&#xd1;" horiz-adv-x="720" 
d="M295 827v-27h-60v27c0 30 5.83301 50.833 17.5 62.5s32.5 17.5 62.5 17.5h90c8 0 13.333 2 16 6s4 10.667 4 20v27h60v-27c0 -30 -5.83301 -50.833 -17.5 -62.5s-32.5 -17.5 -62.5 -17.5h-90c-8.66699 0 -14.167 -2 -16.5 -6s-3.5 -10.667 -3.5 -20zM560 720h90v-720
h-155l-325 636h-10v-636h-90v720h155l325 -636h10v636z" />
    <glyph glyph-name="Ograve" unicode="&#xd2;" horiz-adv-x="710" 
d="M225 720h260c55.333 0 95.833 -13 121.5 -39s38.5 -66.333 38.5 -121v-400c0 -54.667 -12.833 -95 -38.5 -121s-66.167 -39 -121.5 -39h-260c-55.333 0 -95.833 13 -121.5 39s-38.5 66.333 -38.5 121v400c0 54.667 12.833 95 38.5 121s66.167 39 121.5 39zM155 160
c0 -28 5 -47.667 15 -59s28.333 -17 55 -17h260c26.667 0 45 5.66699 55 17s15 31 15 59v400c0 28 -5 47.667 -15 59s-28.333 17 -55 17h-260c-26.667 0 -45 -5.66699 -55 -17s-15 -31 -15 -59v-400zM215 950h95l100 -150h-65z" />
    <glyph glyph-name="Oacute" unicode="&#xd3;" horiz-adv-x="710" 
d="M485 720c55.333 0 95.833 -13 121.5 -39s38.5 -66.333 38.5 -121v-400c0 -54.667 -12.833 -95 -38.5 -121s-66.167 -39 -121.5 -39h-260c-55.333 0 -95.833 13 -121.5 39s-38.5 66.333 -38.5 121v400c0 54.667 12.833 95 38.5 121s66.167 39 121.5 39h260zM555 160v400
c0 28 -5 47.667 -15 59s-28.333 17 -55 17h-260c-26.667 0 -45 -5.66699 -55 -17s-15 -31 -15 -59v-400c0 -28 5 -47.667 15 -59s28.333 -17 55 -17h260c26.667 0 45 5.66699 55 17s15 31 15 59zM495 950l-130 -150h-65l100 150h95z" />
    <glyph glyph-name="Ocircumflex" unicode="&#xd4;" horiz-adv-x="710" 
d="M485 720c55.333 0 95.833 -13 121.5 -39s38.5 -66.333 38.5 -121v-400c0 -54.667 -12.833 -95 -38.5 -121s-66.167 -39 -121.5 -39h-260c-55.333 0 -95.833 13 -121.5 39s-38.5 66.333 -38.5 121v400c0 54.667 12.833 95 38.5 121s66.167 39 121.5 39h260zM555 160v400
c0 28 -5 47.667 -15 59s-28.333 17 -55 17h-260c-26.667 0 -45 -5.66699 -55 -17s-15 -31 -15 -59v-400c0 -28 5 -47.667 15 -59s28.333 -17 55 -17h260c26.667 0 45 5.66699 55 17s15 31 15 59zM350 896l-73 -96h-75l114 150h78l114 -150h-76l-72 96h-10z" />
    <glyph glyph-name="Otilde" unicode="&#xd5;" horiz-adv-x="710" 
d="M290 827v-27h-60v27c0 30 5.83301 50.833 17.5 62.5s32.5 17.5 62.5 17.5h90c8 0 13.333 2 16 6s4 10.667 4 20v27h60v-27c0 -30 -5.83301 -50.833 -17.5 -62.5s-32.5 -17.5 -62.5 -17.5h-90c-8.66699 0 -14.167 -2 -16.5 -6s-3.5 -10.667 -3.5 -20zM485 720
c55.333 0 95.833 -13 121.5 -39s38.5 -66.333 38.5 -121v-400c0 -54.667 -12.833 -95 -38.5 -121s-66.167 -39 -121.5 -39h-260c-55.333 0 -95.833 13 -121.5 39s-38.5 66.333 -38.5 121v400c0 54.667 12.833 95 38.5 121s66.167 39 121.5 39h260zM555 160v400
c0 28 -5 47.667 -15 59s-28.333 17 -55 17h-260c-26.667 0 -45 -5.66699 -55 -17s-15 -31 -15 -59v-400c0 -28 5 -47.667 15 -59s28.333 -17 55 -17h260c26.667 0 45 5.66699 55 17s15 31 15 59z" />
    <glyph glyph-name="Odieresis" unicode="&#xd6;" horiz-adv-x="710" 
d="M485 720c55.333 0 95.833 -13 121.5 -39s38.5 -66.333 38.5 -121v-400c0 -54.667 -12.833 -95 -38.5 -121s-66.167 -39 -121.5 -39h-260c-55.333 0 -95.833 13 -121.5 39s-38.5 66.333 -38.5 121v400c0 54.667 12.833 95 38.5 121s66.167 39 121.5 39h260zM555 160v400
c0 28 -5 47.667 -15 59s-28.333 17 -55 17h-260c-26.667 0 -45 -5.66699 -55 -17s-15 -31 -15 -59v-400c0 -28 5 -47.667 15 -59s28.333 -17 55 -17h260c26.667 0 45 5.66699 55 17s15 31 15 59zM435 790c-15.333 0 -28.333 5.33301 -39 16s-16 23.667 -16 39
s5.33301 28.333 16 39s23.667 16 39 16s28.333 -5.33301 39 -16s16 -23.667 16 -39s-5.33301 -28.333 -16 -39s-23.667 -16 -39 -16zM275 790c-15.333 0 -28.333 5.33301 -39 16s-16 23.667 -16 39s5.33301 28.333 16 39s23.667 16 39 16s28.333 -5.33301 39 -16
s16 -23.667 16 -39s-5.33301 -28.333 -16 -39s-23.667 -16 -39 -16z" />
    <glyph glyph-name="multiply" unicode="&#xd7;" horiz-adv-x="580" 
d="M456 510l64 -64l-166 -166l166 -166l-64 -64l-166 166l-166 -166l-64 64l166 166l-166 166l64 64l166 -166z" />
    <glyph glyph-name="Oslash" unicode="&#xd8;" horiz-adv-x="710" 
d="M485 720c55.333 0 95.833 -13 121.5 -39s38.5 -66.333 38.5 -121v-400c0 -54.667 -12.833 -95 -38.5 -121s-66.167 -39 -121.5 -39h-260c-55.333 0 -95.833 13 -121.5 39s-38.5 66.333 -38.5 121v400c0 54.667 12.833 95 38.5 121s66.167 39 121.5 39h260zM225 636
c-26.667 0 -45 -5.66699 -55 -17s-15 -31 -15 -59v-270l400 200v70c0 28 -5 47.667 -15 59s-28.333 17 -55 17h-260zM485 84c26.667 0 45 5.66699 55 17s15 31 15 59v270l-400 -200v-70c0 -28 5 -47.667 15 -59s28.333 -17 55 -17h260z" />
    <glyph glyph-name="Ugrave" unicode="&#xd9;" horiz-adv-x="720" 
d="M160 720v-560c0 -28 5 -47.667 15 -59s28.333 -17 55 -17h260c26.667 0 45 5.66699 55 17s15 31 15 59v560h90v-560c0 -54.667 -13 -95 -39 -121s-66.333 -39 -121 -39h-260c-54.667 0 -95 13 -121 39s-39 66.333 -39 121v560h90zM220 950h95l100 -150h-65z" />
    <glyph glyph-name="Uacute" unicode="&#xda;" horiz-adv-x="720" 
d="M560 720h90v-560c0 -54.667 -13 -95 -39 -121s-66.333 -39 -121 -39h-260c-54.667 0 -95 13 -121 39s-39 66.333 -39 121v560h90v-560c0 -28 5 -47.667 15 -59s28.333 -17 55 -17h260c26.667 0 45 5.66699 55 17s15 31 15 59v560zM500 950l-130 -150h-65l100 150h95z" />
    <glyph glyph-name="Ucircumflex" unicode="&#xdb;" horiz-adv-x="720" 
d="M560 720h90v-560c0 -54.667 -13 -95 -39 -121s-66.333 -39 -121 -39h-260c-54.667 0 -95 13 -121 39s-39 66.333 -39 121v560h90v-560c0 -28 5 -47.667 15 -59s28.333 -17 55 -17h260c26.667 0 45 5.66699 55 17s15 31 15 59v560zM355 896l-73 -96h-75l114 150h78
l114 -150h-76l-72 96h-10z" />
    <glyph glyph-name="Udieresis" unicode="&#xdc;" horiz-adv-x="720" 
d="M560 720h90v-560c0 -54.667 -13 -95 -39 -121s-66.333 -39 -121 -39h-260c-54.667 0 -95 13 -121 39s-39 66.333 -39 121v560h90v-560c0 -28 5 -47.667 15 -59s28.333 -17 55 -17h260c26.667 0 45 5.66699 55 17s15 31 15 59v560zM440 790
c-14.667 0 -27.5 5.33301 -38.5 16s-16.5 23.667 -16.5 39s5.5 28.333 16.5 39s23.833 16 38.5 16s27.5 -5.33301 38.5 -16s16.5 -23.667 16.5 -39s-5.5 -28.333 -16.5 -39s-23.833 -16 -38.5 -16zM280 790c-14.667 0 -27.5 5.33301 -38.5 16s-16.5 23.667 -16.5 39
s5.5 28.333 16.5 39s23.833 16 38.5 16s27.5 -5.33301 38.5 -16s16.5 -23.667 16.5 -39s-5.5 -28.333 -16.5 -39s-23.833 -16 -38.5 -16z" />
    <glyph glyph-name="Yacute" unicode="&#xdd;" horiz-adv-x="661" 
d="M538 720h103l-266 -480v-240h-90v240l-265 480h103l202 -366h10zM470 950l-130 -150h-65l100 150h95z" />
    <glyph glyph-name="Thorn" unicode="&#xde;" horiz-adv-x="700" 
d="M490 590c54.667 0 95 -13 121 -39s39 -66.333 39 -121v-140c0 -54.667 -13 -95 -39 -121s-66.333 -39 -121 -39h-330v-130h-90v720h90v-130h330zM560 290v140c0 28 -5 47.667 -15 59s-28.333 17 -55 17h-330v-292h330c26.667 0 45 5.66699 55 17s15 31 15 59z" />
    <glyph glyph-name="germandbls" unicode="&#xdf;" horiz-adv-x="635" 
d="M570 475c0 -19.333 -2.33301 -36.5 -7 -51.5s-10.5 -26 -17.5 -33s-14 -12.667 -21 -17s-12.833 -6.83301 -17.5 -7.5l-7 -1v-10c2 0 4.5 -0.333008 7.5 -1s8.5 -3.16699 16.5 -7.5s15.167 -10 21.5 -17s12 -18 17 -33s7.5 -32.167 7.5 -51.5v-85
c0 -54.667 -13 -95 -39 -121s-66.333 -39 -121 -39h-170v84h170c26.667 0 45 5.66699 55 17s15 31 15 59v85c0 28 -4.83301 47.167 -14.5 57.5s-28.167 15.5 -55.5 15.5h-90v84h90c27.333 0 45.833 5.16699 55.5 15.5s14.5 29.5 14.5 57.5v85c0 28 -5 47.667 -15 59
s-28.333 17 -55 17h-180c-26.667 0 -45 -5.66699 -55 -17s-15 -31 -15 -59v-560h-90v560c0 54.667 13 95 39 121s66.333 39 121 39h180c54.667 0 95 -13 121 -39s39 -66.333 39 -121v-85z" />
    <glyph glyph-name="agrave" unicode="&#xe0;" horiz-adv-x="625" 
d="M400 560c54.667 0 94.999 -13 120.999 -39s39 -66.333 39 -121v-240c0 -54.667 -13 -95 -39 -121s-66.333 -39 -121 -39h-180c-54.667 0 -95 13 -121 39s-39 66.333 -39 121c0 24 3.16699 44 9.5 60s17.833 29.167 34.5 39.5s32.334 17.833 47.001 22.5s37.667 11 69 19
l250 62v37c0 28 -5 47.667 -15 59s-28.333 17 -55 17h-180c-26.667 0 -45 -5.66699 -55 -17s-15 -31 -15 -59v-30h-90v30c0 54.667 13 95 39 121s66.333 39 121 39h180zM469.999 160v117l-250 -63c-29.333 -7.33301 -48.333 -14.333 -57 -21s-13 -17.667 -13 -33
c0 -28 5 -47.667 15 -59s28.333 -17 55 -17h180c26.667 0 45 5.66699 55 17s15 31 15 59zM364.999 640h-65l-130 150h95z" />
    <glyph glyph-name="aacute" unicode="&#xe1;" horiz-adv-x="625" 
d="M400 560c54.667 0 94.999 -13 120.999 -39s39 -66.333 39 -121v-240c0 -54.667 -13 -95 -39 -121s-66.333 -39 -121 -39h-180c-54.667 0 -95 13 -121 39s-39 66.333 -39 121c0 24 3.16699 44 9.5 60s17.833 29.167 34.5 39.5s32.334 17.833 47.001 22.5s37.667 11 69 19
l250 62v37c0 28 -5 47.667 -15 59s-28.333 17 -55 17h-180c-26.667 0 -45 -5.66699 -55 -17s-15 -31 -15 -59v-30h-90v30c0 54.667 13 95 39 121s66.333 39 121 39h180zM469.999 160v117l-250 -63c-29.333 -7.33301 -48.333 -14.333 -57 -21s-13 -17.667 -13 -33
c0 -28 5 -47.667 15 -59s28.333 -17 55 -17h180c26.667 0 45 5.66699 55 17s15 31 15 59zM449.999 790l-130 -150h-65l100 150h95z" />
    <glyph glyph-name="acircumflex" unicode="&#xe2;" horiz-adv-x="625" 
d="M400 560c54.667 0 94.999 -13 120.999 -39s39 -66.333 39 -121v-240c0 -54.667 -13 -95 -39 -121s-66.333 -39 -121 -39h-180c-54.667 0 -95 13 -121 39s-39 66.333 -39 121c0 24 3.16699 44 9.5 60s17.833 29.167 34.5 39.5s32.334 17.833 47.001 22.5s37.667 11 69 19
l250 62v37c0 28 -5 47.667 -15 59s-28.333 17 -55 17h-180c-26.667 0 -45 -5.66699 -55 -17s-15 -31 -15 -59v-30h-90v30c0 54.667 13 95 39 121s66.333 39 121 39h180zM469.999 160v117l-250 -63c-29.333 -7.33301 -48.333 -14.333 -57 -21s-13 -17.667 -13 -33
c0 -28 5 -47.667 15 -59s28.333 -17 55 -17h180c26.667 0 45 5.66699 55 17s15 31 15 59zM304.999 736l-73 -96h-75l114 150h78l114 -150h-76l-72 96h-10z" />
    <glyph glyph-name="atilde" unicode="&#xe3;" horiz-adv-x="625" 
d="M400 560c54.667 0 94.999 -13 120.999 -39s39 -66.333 39 -121v-240c0 -54.667 -13 -95 -39 -121s-66.333 -39 -121 -39h-180c-54.667 0 -95 13 -121 39s-39 66.333 -39 121c0 24 3.16699 44 9.5 60s17.833 29.167 34.5 39.5s32.334 17.833 47.001 22.5s37.667 11 69 19
l250 62v37c0 28 -5 47.667 -15 59s-28.333 17 -55 17h-180c-26.667 0 -45 -5.66699 -55 -17s-15 -31 -15 -59v-30h-90v30c0 54.667 13 95 39 121s66.333 39 121 39h180zM469.999 160v117l-250 -63c-29.333 -7.33301 -48.333 -14.333 -57 -21s-13 -17.667 -13 -33
c0 -28 5 -47.667 15 -59s28.333 -17 55 -17h180c26.667 0 45 5.66699 55 17s15 31 15 59zM244.999 667v-27h-60v27c0 30 5.83301 50.833 17.5 62.5s32.5 17.5 62.5 17.5h90c8 0 13.333 2 16 6s4 10.667 4 20v27h60v-27c0 -30 -5.83301 -50.833 -17.5 -62.5
s-32.5 -17.5 -62.5 -17.5h-90c-8.66699 0 -14.167 -2 -16.5 -6s-3.5 -10.667 -3.5 -20z" />
    <glyph glyph-name="adieresis" unicode="&#xe4;" horiz-adv-x="625" 
d="M400 560c54.667 0 94.999 -13 120.999 -39s39 -66.333 39 -121v-240c0 -54.667 -13 -95 -39 -121s-66.333 -39 -121 -39h-180c-54.667 0 -95 13 -121 39s-39 66.333 -39 121c0 24 3.16699 44 9.5 60s17.833 29.167 34.5 39.5s32.334 17.833 47.001 22.5s37.667 11 69 19
l250 62v37c0 28 -5 47.667 -15 59s-28.333 17 -55 17h-180c-26.667 0 -45 -5.66699 -55 -17s-15 -31 -15 -59v-30h-90v30c0 54.667 13 95 39 121s66.333 39 121 39h180zM469.999 160v117l-250 -63c-29.333 -7.33301 -48.333 -14.333 -57 -21s-13 -17.667 -13 -33
c0 -28 5 -47.667 15 -59s28.333 -17 55 -17h180c26.667 0 45 5.66699 55 17s15 31 15 59zM389.999 630c-14.667 0 -27.5 5.33301 -38.5 16s-16.5 23.667 -16.5 39s5.5 28.333 16.5 39s23.833 16 38.5 16s27.5 -5.33301 38.5 -16s16.5 -23.667 16.5 -39
s-5.5 -28.333 -16.5 -39s-23.833 -16 -38.5 -16zM229.999 630c-14.667 0 -27.5 5.33301 -38.5 16s-16.5 23.667 -16.5 39s5.5 28.333 16.5 39s23.833 16 38.5 16s27.5 -5.33301 38.5 -16s16.5 -23.667 16.5 -39s-5.5 -28.333 -16.5 -39s-23.833 -16 -38.5 -16z" />
    <glyph glyph-name="aring" unicode="&#xe5;" horiz-adv-x="625" 
d="M400 560c54.667 0 94.999 -13 120.999 -39s39 -66.333 39 -121v-240c0 -54.667 -13 -95 -39 -121s-66.333 -39 -121 -39h-180c-54.667 0 -95 13 -121 39s-39 66.333 -39 121c0 24 3.16699 44 9.5 60s17.833 29.167 34.5 39.5s32.334 17.833 47.001 22.5s37.667 11 69 19
l250 62v37c0 28 -5 47.667 -15 59s-28.333 17 -55 17h-180c-26.667 0 -45 -5.66699 -55 -17s-15 -31 -15 -59v-30h-90v30c0 54.667 13 95 39 121s66.333 39 121 39h180zM469.999 160v117l-250 -63c-29.333 -7.33301 -48.333 -14.333 -57 -21s-13 -17.667 -13 -33
c0 -28 5 -47.667 15 -59s28.333 -17 55 -17h180c26.667 0 45 5.66699 55 17s15 31 15 59zM309.999 630c-26.667 0 -49.167 9.16699 -67.5 27.5s-27.5 40.833 -27.5 67.5c0 26 9.16699 48.333 27.5 67s40.833 28 67.5 28c26 0 48.333 -9.33301 67 -28s28 -41 28 -67
c0 -26.667 -9.33301 -49.167 -28 -67.5s-41 -27.5 -67 -27.5zM309.999 765c-10.667 0 -20 -3.83301 -28 -11.5s-12 -17.167 -12 -28.5s4 -20.833 12 -28.5s17.333 -11.5 28 -11.5s20 3.83301 28 11.5s12 17.167 12 28.5s-4 20.833 -12 28.5s-17.333 11.5 -28 11.5z" />
    <glyph glyph-name="ae" unicode="&#xe6;" horiz-adv-x="1035" 
d="M970 238h-410.001v-78c0 -28 5 -47.667 15 -59s28.333 -17 55 -17h180c26.667 0 45 5.66699 55 17s15 31 15 59v30h90v-30c0 -54.667 -13 -95 -39 -121s-66.333 -39 -121 -39h-180c-19.333 -0 -36.5 2.33301 -51.5 7s-26 10.5 -33 17.5s-12.667 14 -17 21
s-6.83301 12.833 -7.5 17.5l-1 7h-10c0 -2 -0.333008 -4.5 -1 -7.5s-3.16699 -8.5 -7.5 -16.5s-10 -15.167 -17 -21.5s-18 -12 -33 -17s-32.167 -7.5 -51.5 -7.5h-180c-54.667 0 -95 13 -121 39s-39 66.333 -39 121c0 24 3.16699 44 9.5 60s17.833 29.167 34.5 39.5
s32.334 17.833 47.001 22.5s37.667 11 69 19l250 62v37c0 28 -5 47.667 -15 59s-28.333 17 -55 17h-180c-26.667 0 -45 -5.66699 -55 -17s-15 -31 -15 -59v-30h-90v30c0 54.667 13 95 39 121s66.333 39 121 39h180c19.333 0 36.5 -2.33301 51.5 -7s26 -10.5 33 -17.5
s12.667 -14 17 -21s6.83301 -12.833 7.5 -17.5l1 -7h10c0 2 0.333008 4.5 1 7.5s3.16699 8.5 7.5 16.5s10 15.167 17 21.5s18 12 33 17s32.167 7.5 51.5 7.5h180c54.667 0 95 -13 121 -39s39 -66.333 39 -121v-162zM559.999 400v-78h320v78c0 28 -5 47.667 -15 59
s-28.333 17 -55 17h-180c-26.667 0 -45 -5.66699 -55 -17s-15 -31 -15 -59zM469.999 160v117l-250 -63c-29.333 -7.33301 -48.333 -14.333 -57 -21s-13 -17.667 -13 -33c0 -28 5 -47.667 15 -59s28.333 -17 55 -17h180c26.667 0 45 5.66699 55 17s15 31 15 59z" />
    <glyph glyph-name="ccedilla" unicode="&#xe7;" horiz-adv-x="625" 
d="M565 370h-90v30c0 28 -5 47.667 -15 59s-28.333 17 -55 17h-180c-26.667 0 -45 -5.66699 -55 -17s-15 -31 -15 -59v-240c0 -28 5 -47.667 15 -59s28.333 -17 55 -17h180c26.667 0 45 5.66699 55 17s15 31 15 59v30h90v-30c0 -54.667 -12.833 -95 -38.5 -121
s-66.167 -39 -121.5 -39h-95v-45h50c30 0 50.833 -5.83301 62.5 -17.5s17.5 -32.5 17.5 -62.5v-25c0 -30 -5.83301 -50.833 -17.5 -62.5s-32.5 -17.5 -62.5 -17.5h-170v54h170c8 0 13.333 2 16 6s4 10.667 4 20v25c0 9.33301 -1.33301 16 -4 20s-8 6 -16 6h-110v99h-25
c-55.333 0 -95.833 13 -121.5 39s-38.5 66.333 -38.5 121v240c0 54.667 12.833 95 38.5 121s66.167 39 121.5 39h180c55.333 0 95.833 -13 121.5 -39s38.5 -66.333 38.5 -121v-30z" />
    <glyph glyph-name="egrave" unicode="&#xe8;" horiz-adv-x="630" 
d="M565 238h-410v-78c0 -28 5 -47.667 15 -59s28.333 -17 55 -17h180c26.667 0 45 5.66699 55 17s15 31 15 59v30h90v-30c0 -54.667 -12.833 -95 -38.5 -121s-66.167 -39 -121.5 -39h-180c-55.333 0 -95.833 13 -121.5 39s-38.5 66.333 -38.5 121v240
c0 54.667 12.833 95 38.5 121s66.167 39 121.5 39h180c55.333 0 95.833 -13 121.5 -39s38.5 -66.333 38.5 -121v-162zM155 400v-78h320v78c0 28 -5 47.667 -15 59s-28.333 17 -55 17h-180c-26.667 0 -45 -5.66699 -55 -17s-15 -31 -15 -59zM370 640h-65l-130 150h95z" />
    <glyph glyph-name="eacute" unicode="&#xe9;" horiz-adv-x="630" 
d="M565 238h-410v-78c0 -28 5 -47.667 15 -59s28.333 -17 55 -17h180c26.667 0 45 5.66699 55 17s15 31 15 59v30h90v-30c0 -54.667 -12.833 -95 -38.5 -121s-66.167 -39 -121.5 -39h-180c-55.333 0 -95.833 13 -121.5 39s-38.5 66.333 -38.5 121v240
c0 54.667 12.833 95 38.5 121s66.167 39 121.5 39h180c55.333 0 95.833 -13 121.5 -39s38.5 -66.333 38.5 -121v-162zM155 400v-78h320v78c0 28 -5 47.667 -15 59s-28.333 17 -55 17h-180c-26.667 0 -45 -5.66699 -55 -17s-15 -31 -15 -59zM455 790l-130 -150h-65l100 150
h95z" />
    <glyph glyph-name="ecircumflex" unicode="&#xea;" horiz-adv-x="630" 
d="M565 238h-410v-78c0 -28 5 -47.667 15 -59s28.333 -17 55 -17h180c26.667 0 45 5.66699 55 17s15 31 15 59v30h90v-30c0 -54.667 -12.833 -95 -38.5 -121s-66.167 -39 -121.5 -39h-180c-55.333 0 -95.833 13 -121.5 39s-38.5 66.333 -38.5 121v240
c0 54.667 12.833 95 38.5 121s66.167 39 121.5 39h180c55.333 0 95.833 -13 121.5 -39s38.5 -66.333 38.5 -121v-162zM155 400v-78h320v78c0 28 -5 47.667 -15 59s-28.333 17 -55 17h-180c-26.667 0 -45 -5.66699 -55 -17s-15 -31 -15 -59zM310 736l-73 -96h-75l114 150h78
l114 -150h-76l-72 96h-10z" />
    <glyph glyph-name="edieresis" unicode="&#xeb;" horiz-adv-x="630" 
d="M565 238h-410v-78c0 -28 5 -47.667 15 -59s28.333 -17 55 -17h180c26.667 0 45 5.66699 55 17s15 31 15 59v30h90v-30c0 -54.667 -12.833 -95 -38.5 -121s-66.167 -39 -121.5 -39h-180c-55.333 0 -95.833 13 -121.5 39s-38.5 66.333 -38.5 121v240
c0 54.667 12.833 95 38.5 121s66.167 39 121.5 39h180c55.333 0 95.833 -13 121.5 -39s38.5 -66.333 38.5 -121v-162zM155 400v-78h320v78c0 28 -5 47.667 -15 59s-28.333 17 -55 17h-180c-26.667 0 -45 -5.66699 -55 -17s-15 -31 -15 -59zM395 630
c-15.333 0 -28.333 5.33301 -39 16s-16 23.667 -16 39s5.33301 28.333 16 39s23.667 16 39 16s28.333 -5.33301 39 -16s16 -23.667 16 -39s-5.33301 -28.333 -16 -39s-23.667 -16 -39 -16zM235 630c-15.333 0 -28.333 5.33301 -39 16s-16 23.667 -16 39
s5.33301 28.333 16 39s23.667 16 39 16s28.333 -5.33301 39 -16s16 -23.667 16 -39s-5.33301 -28.333 -16 -39s-23.667 -16 -39 -16z" />
    <glyph glyph-name="igrave" unicode="&#xec;" horiz-adv-x="230" 
d="M160 0h-90v560h90v-560zM-25 790h95l100 -150h-65z" />
    <glyph glyph-name="iacute" unicode="&#xed;" horiz-adv-x="230" 
d="M70 0v560h90v-560h-90zM255 790l-130 -150h-65l100 150h95z" />
    <glyph glyph-name="icircumflex" unicode="&#xee;" horiz-adv-x="230" 
d="M70 0v560h90v-560h-90zM154 790l113 -150h-75l-72 96h-10l-73 -96h-75l113 150h79z" />
    <glyph glyph-name="idieresis" unicode="&#xef;" horiz-adv-x="230" 
d="M70 0v560h90v-560h-90zM195 740c15.333 0 28.333 -5.33301 39 -16s16 -23.667 16 -39s-5.33301 -28.333 -16 -39s-23.667 -16 -39 -16s-28.333 5.33301 -39 16s-16 23.667 -16 39s5.33301 28.333 16 39s23.667 16 39 16zM90 685c0 -15.333 -5.33301 -28.333 -16 -39
s-23.667 -16 -39 -16s-28.333 5.33301 -39 16s-16 23.667 -16 39s5.33301 28.333 16 39s23.667 16 39 16s28.333 -5.33301 39 -16s16 -23.667 16 -39z" />
    <glyph glyph-name="eth" unicode="&#xf0;" horiz-adv-x="630" 
d="M405 720c55.333 0 95.833 -13 121.5 -39s38.5 -66.333 38.5 -121v-400c0 -54.667 -12.833 -95 -38.5 -121s-66.167 -39 -121.5 -39h-180c-55.333 0 -95.833 13 -121.5 39s-38.5 66.333 -38.5 121v160c0 54.667 12.833 95 38.5 121s66.167 39 121.5 39h250v80
c0 28 -5 47.667 -15 59s-28.333 17 -55 17h-80v-80h-60v80h-120v84h120v80h60v-80h80zM475 160v236h-250c-26.667 0 -45 -5.66699 -55 -17s-15 -31 -15 -59v-160c0 -28 5 -47.667 15 -59s28.333 -17 55 -17h180c26.667 0 45 5.66699 55 17s15 31 15 59z" />
    <glyph glyph-name="ntilde" unicode="&#xf1;" 
d="M410 560c54.667 0 95 -13 121 -39s39 -66.333 39 -121v-400h-90v400c0 28 -5 47.667 -15 59s-28.333 17 -55 17h-180c-26.667 0 -45 -5.66699 -55 -17s-15 -31 -15 -59v-400h-90v400c0 54.667 13 95 39 121s66.333 39 121 39h180zM255 667v-27h-60v27
c0 30 5.83301 50.833 17.5 62.5s32.5 17.5 62.5 17.5h90c8 0 13.333 2 16 6s4 10.667 4 20v27h60v-27c0 -30 -5.83301 -50.833 -17.5 -62.5s-32.5 -17.5 -62.5 -17.5h-90c-8.66699 0 -14.167 -2 -16.5 -6s-3.5 -10.667 -3.5 -20z" />
    <glyph glyph-name="ograve" unicode="&#xf2;" horiz-adv-x="630" 
d="M405 560c55.333 0 95.833 -13 121.5 -39s38.5 -66.333 38.5 -121v-240c0 -54.667 -12.833 -95 -38.5 -121s-66.167 -39 -121.5 -39h-180c-55.333 0 -95.833 13 -121.5 39s-38.5 66.333 -38.5 121v240c0 54.667 12.833 95 38.5 121s66.167 39 121.5 39h180zM475 160v240
c0 28 -5 47.667 -15 59s-28.333 17 -55 17h-180c-26.667 0 -45 -5.66699 -55 -17s-15 -31 -15 -59v-240c0 -28 5 -47.667 15 -59s28.333 -17 55 -17h180c26.667 0 45 5.66699 55 17s15 31 15 59zM370 640h-65l-130 150h95z" />
    <glyph glyph-name="oacute" unicode="&#xf3;" horiz-adv-x="630" 
d="M225 560h180c55.333 0 95.833 -13 121.5 -39s38.5 -66.333 38.5 -121v-240c0 -54.667 -12.833 -95 -38.5 -121s-66.167 -39 -121.5 -39h-180c-55.333 0 -95.833 13 -121.5 39s-38.5 66.333 -38.5 121v240c0 54.667 12.833 95 38.5 121s66.167 39 121.5 39zM155 160
c0 -28 5 -47.667 15 -59s28.333 -17 55 -17h180c26.667 0 45 5.66699 55 17s15 31 15 59v240c0 28 -5 47.667 -15 59s-28.333 17 -55 17h-180c-26.667 0 -45 -5.66699 -55 -17s-15 -31 -15 -59v-240zM260 640l100 150h95l-130 -150h-65z" />
    <glyph glyph-name="ocircumflex" unicode="&#xf4;" horiz-adv-x="630" 
d="M405 560c55.333 0 95.833 -13 121.5 -39s38.5 -66.333 38.5 -121v-240c0 -54.667 -12.833 -95 -38.5 -121s-66.167 -39 -121.5 -39h-180c-55.333 0 -95.833 13 -121.5 39s-38.5 66.333 -38.5 121v240c0 54.667 12.833 95 38.5 121s66.167 39 121.5 39h180zM475 160v240
c0 28 -5 47.667 -15 59s-28.333 17 -55 17h-180c-26.667 0 -45 -5.66699 -55 -17s-15 -31 -15 -59v-240c0 -28 5 -47.667 15 -59s28.333 -17 55 -17h180c26.667 0 45 5.66699 55 17s15 31 15 59zM310 736l-73 -96h-75l114 150h78l114 -150h-76l-72 96h-10z" />
    <glyph glyph-name="otilde" unicode="&#xf5;" horiz-adv-x="630" 
d="M250 667v-27h-60v27c0 30 5.83301 50.833 17.5 62.5s32.5 17.5 62.5 17.5h90c8 0 13.333 2 16 6s4 10.667 4 20v27h60v-27c0 -30 -5.83301 -50.833 -17.5 -62.5s-32.5 -17.5 -62.5 -17.5h-90c-8.66699 0 -14.167 -2 -16.5 -6s-3.5 -10.667 -3.5 -20zM405 560
c55.333 0 95.833 -13 121.5 -39s38.5 -66.333 38.5 -121v-240c0 -54.667 -12.833 -95 -38.5 -121s-66.167 -39 -121.5 -39h-180c-55.333 0 -95.833 13 -121.5 39s-38.5 66.333 -38.5 121v240c0 54.667 12.833 95 38.5 121s66.167 39 121.5 39h180zM475 160v240
c0 28 -5 47.667 -15 59s-28.333 17 -55 17h-180c-26.667 0 -45 -5.66699 -55 -17s-15 -31 -15 -59v-240c0 -28 5 -47.667 15 -59s28.333 -17 55 -17h180c26.667 0 45 5.66699 55 17s15 31 15 59z" />
    <glyph glyph-name="odieresis" unicode="&#xf6;" horiz-adv-x="630" 
d="M405 560c55.333 0 95.833 -13 121.5 -39s38.5 -66.333 38.5 -121v-240c0 -54.667 -12.833 -95 -38.5 -121s-66.167 -39 -121.5 -39h-180c-55.333 0 -95.833 13 -121.5 39s-38.5 66.333 -38.5 121v240c0 54.667 12.833 95 38.5 121s66.167 39 121.5 39h180zM475 160v240
c0 28 -5 47.667 -15 59s-28.333 17 -55 17h-180c-26.667 0 -45 -5.66699 -55 -17s-15 -31 -15 -59v-240c0 -28 5 -47.667 15 -59s28.333 -17 55 -17h180c26.667 0 45 5.66699 55 17s15 31 15 59zM395 630c-15.333 0 -28.333 5.33301 -39 16s-16 23.667 -16 39
s5.33301 28.333 16 39s23.667 16 39 16s28.333 -5.33301 39 -16s16 -23.667 16 -39s-5.33301 -28.333 -16 -39s-23.667 -16 -39 -16zM235 630c-15.333 0 -28.333 5.33301 -39 16s-16 23.667 -16 39s5.33301 28.333 16 39s23.667 16 39 16s28.333 -5.33301 39 -16
s16 -23.667 16 -39s-5.33301 -28.333 -16 -39s-23.667 -16 -39 -16z" />
    <glyph glyph-name="divide" unicode="&#xf7;" horiz-adv-x="600" 
d="M60 322h480v-84h-480v84zM300 180c18 0 33.333 -6.33301 46 -19s19 -28 19 -46s-6.33301 -33.333 -19 -46s-28 -19 -46 -19s-33.333 6.33301 -46 19s-19 28 -19 46s6.33301 33.333 19 46s28 19 46 19zM300 380c-18 0 -33.333 6.33301 -46 19s-19 28 -19 46
s6.33301 33.333 19 46s28 19 46 19s33.333 -6.33301 46 -19s19 -28 19 -46s-6.33301 -33.333 -19 -46s-28 -19 -46 -19z" />
    <glyph glyph-name="oslash" unicode="&#xf8;" horiz-adv-x="630" 
d="M405 560c55.333 0 95.833 -13 121.5 -39s38.5 -66.333 38.5 -121v-240c0 -54.667 -12.833 -95 -38.5 -121s-66.167 -39 -121.5 -39h-180c-55.333 0 -95.833 13 -121.5 39s-38.5 66.333 -38.5 121v240c0 54.667 12.833 95 38.5 121s66.167 39 121.5 39h180zM225 476
c-26.667 0 -45 -5.66699 -55 -17s-15 -31 -15 -59v-170l320 160v10c0 28 -5 47.667 -15 59s-28.333 17 -55 17h-180zM405 84c26.667 0 45 5.66699 55 17s15 31 15 59v170l-320 -160v-10c0 -28 5 -47.667 15 -59s28.333 -17 55 -17h180z" />
    <glyph glyph-name="ugrave" unicode="&#xf9;" 
d="M480 560h90v-400c0 -54.667 -13 -95 -39 -121s-66.333 -39 -121 -39h-180c-54.667 0 -95 13 -121 39s-39 66.333 -39 121v400h90v-400c0 -28 5 -47.667 15 -59s28.333 -17 55 -17h180c26.667 0 45 5.66699 55 17s15 31 15 59v400zM375 640h-65l-130 150h95z" />
    <glyph glyph-name="uacute" unicode="&#xfa;" 
d="M160 560v-400c0 -28 5 -47.667 15 -59s28.333 -17 55 -17h180c26.667 0 45 5.66699 55 17s15 31 15 59v400h90v-400c0 -54.667 -13 -95 -39 -121s-66.333 -39 -121 -39h-180c-54.667 0 -95 13 -121 39s-39 66.333 -39 121v400h90zM265 640l100 150h95l-130 -150h-65z" />
    <glyph glyph-name="ucircumflex" unicode="&#xfb;" 
d="M480 560h90v-400c0 -54.667 -13 -95 -39 -121s-66.333 -39 -121 -39h-180c-54.667 0 -95 13 -121 39s-39 66.333 -39 121v400h90v-400c0 -28 5 -47.667 15 -59s28.333 -17 55 -17h180c26.667 0 45 5.66699 55 17s15 31 15 59v400zM315 736l-73 -96h-75l114 150h78
l114 -150h-76l-72 96h-10z" />
    <glyph glyph-name="udieresis" unicode="&#xfc;" 
d="M480 560h90v-400c0 -54.667 -13 -95 -39 -121s-66.333 -39 -121 -39h-180c-54.667 0 -95 13 -121 39s-39 66.333 -39 121v400h90v-400c0 -28 5 -47.667 15 -59s28.333 -17 55 -17h180c26.667 0 45 5.66699 55 17s15 31 15 59v400zM400 630
c-14.667 0 -27.5 5.33301 -38.5 16s-16.5 23.667 -16.5 39s5.5 28.333 16.5 39s23.833 16 38.5 16s27.5 -5.33301 38.5 -16s16.5 -23.667 16.5 -39s-5.5 -28.333 -16.5 -39s-23.833 -16 -38.5 -16zM240 630c-14.667 0 -27.5 5.33301 -38.5 16s-16.5 23.667 -16.5 39
s5.5 28.333 16.5 39s23.833 16 38.5 16s27.5 -5.33301 38.5 -16s16.5 -23.667 16.5 -39s-5.5 -28.333 -16.5 -39s-23.833 -16 -38.5 -16z" />
    <glyph glyph-name="yacute" unicode="&#xfd;" horiz-adv-x="602" 
d="M441 790l-130 -150h-65l100 150h95zM486 560h96l-287 -760h-96l75 200h-42l-212 560h96l180 -476h10z" />
    <glyph glyph-name="thorn" unicode="&#xfe;" horiz-adv-x="635" 
d="M410 560c54.667 0 95 -13 121 -39s39 -66.333 39 -121v-240c0 -54.667 -13 -95 -39 -121s-66.333 -39 -121 -39h-250v-200h-90v960h90v-200h250zM480 160v240c0 28 -5 47.667 -15 59s-28.333 17 -55 17h-250v-392h250c26.667 0 45 5.66699 55 17s15 31 15 59z" />
    <glyph glyph-name="ydieresis" unicode="&#xff;" horiz-adv-x="602" 
d="M486 560h96l-287 -760h-96l75 200h-42l-212 560h96l180 -476h10zM221 630c-15.333 0 -28.333 5.33301 -39 16s-16 23.667 -16 39s5.33301 28.333 16 39s23.667 16 39 16s28.333 -5.33301 39 -16s16 -23.667 16 -39s-5.33301 -28.333 -16 -39s-23.667 -16 -39 -16z
M381 630c-15.333 0 -28.333 5.33301 -39 16s-16 23.667 -16 39s5.33301 28.333 16 39s23.667 16 39 16s28.333 -5.33301 39 -16s16 -23.667 16 -39s-5.33301 -28.333 -16 -39s-23.667 -16 -39 -16z" />
    <glyph glyph-name="dotlessi" unicode="&#x131;" horiz-adv-x="230" 
d="M70 0v560h90v-560h-90z" />
    <glyph glyph-name="Lslash" unicode="&#x141;" horiz-adv-x="700" 
d="M230 84h450v-84h-540v267l-120 -60v61l120 60v392h90v-347l240 120v-61l-240 -120v-228z" />
    <glyph glyph-name="lslash" unicode="&#x142;" horiz-adv-x="410" 
d="M280 84h80v-84h-80c-50 -0 -85.833 10.833 -107.5 32.5s-32.5 57.5 -32.5 107.5v187l-120 -60v61l120 60v372h90v-327l120 60v-61l-120 -60v-232c0 -20.667 3.5 -35.167 10.5 -43.5s20.167 -12.5 39.5 -12.5z" />
    <glyph glyph-name="OE" unicode="&#x152;" horiz-adv-x="1150" 
d="M1095 636h-450v-234h440v-84h-440v-234h450v-84h-870c-55.333 0 -95.833 13 -121.5 39s-38.5 66.333 -38.5 121v400c0 54.667 12.833 95 38.5 121s66.167 39 121.5 39h870v-84zM225 84h330v552h-330c-26.667 0 -45 -5.66699 -55 -17s-15 -31 -15 -59v-400
c0 -28 5 -47.667 15 -59s28.333 -17 55 -17z" />
    <glyph glyph-name="oe" unicode="&#x153;" horiz-adv-x="1040" 
d="M975 238h-410v-78c0 -28 5 -47.667 15 -59s28.333 -17 55 -17h180c26.667 0 45 5.66699 55 17s15 31 15 59v30h90v-30c0 -54.667 -12.833 -95 -38.5 -121s-66.167 -39 -121.5 -39h-180c-19.333 -0 -36.5 2.33301 -51.5 7s-26 10.5 -33 17.5s-12.667 14 -17 21
s-6.83301 12.833 -7.5 17.5l-1 7h-10c0 -2 -0.333008 -4.5 -1 -7.5s-3.16699 -8.5 -7.5 -16.5s-10 -15.167 -17 -21.5s-18 -12 -33 -17s-32.167 -7.5 -51.5 -7.5h-180c-55.333 0 -95.833 13 -121.5 39s-38.5 66.333 -38.5 121v240c0 54.667 12.833 95 38.5 121
s66.167 39 121.5 39h180c19.333 0 36.5 -2.33301 51.5 -7s26 -10.5 33 -17.5s12.667 -14 17 -21s6.83301 -12.833 7.5 -17.5l1 -7h10c0 2 0.333008 4.5 1 7.5s3.16699 8.5 7.5 16.5s10 15.167 17 21.5s18 12 33 17s32.167 7.5 51.5 7.5h180c55.333 0 95.833 -13 121.5 -39
s38.5 -66.333 38.5 -121v-162zM565 400v-78h320v78c0 28 -5 47.667 -15 59s-28.333 17 -55 17h-180c-26.667 0 -45 -5.66699 -55 -17s-15 -31 -15 -59zM475 160v240c0 28 -5 47.667 -15 59s-28.333 17 -55 17h-180c-26.667 0 -45 -5.66699 -55 -17s-15 -31 -15 -59v-240
c0 -28 5 -47.667 15 -59s28.333 -17 55 -17h180c26.667 0 45 5.66699 55 17s15 31 15 59z" />
    <glyph glyph-name="Scaron" unicode="&#x160;" horiz-adv-x="700" 
d="M640 490h-90v70c0 28 -5 47.667 -15 59s-28.333 17 -55 17h-260c-26.667 0 -45 -5.66699 -55 -17s-15 -31 -15 -59c0 -36 4.33301 -61.167 13 -75.5s27.667 -26.5 57 -36.5l260 -87c63.333 -21.333 105.833 -44.5 127.5 -69.5s32.5 -68.833 32.5 -131.5
c0 -54.667 -13 -95 -39 -121s-66.333 -39 -121 -39h-260c-54.667 0 -95 13 -121 39s-39 66.333 -39 121v70h90v-70c0 -28 5 -47.667 15 -59s28.333 -17 55 -17h260c26.667 0 45 5.66699 55 17s15 31 15 59c0 36 -4.33301 61.167 -13 75.5s-27.667 26.5 -57 36.5l-260 87
c-63.333 21.333 -105.833 44.5 -127.5 69.5s-32.5 68.833 -32.5 131.5c0 54.667 13 95 39 121s66.333 39 121 39h260c54.667 0 95 -13 121 -39s39 -66.333 39 -121v-70zM389 800h-78l-114 150h75l73 -96h10l72 96h76z" />
    <glyph glyph-name="scaron" unicode="&#x161;" horiz-adv-x="620" 
d="M560 370h-90v30c0 28 -5 47.667 -15 59s-28.333 17 -55 17h-180c-26.667 0 -45 -5.66699 -55 -17s-15 -31 -15 -59c0 -15.333 4.33301 -26.333 13 -33s27.667 -13.667 57 -21l180 -45c31.333 -8 54.333 -14.333 69 -19s30.334 -12.167 47.001 -22.5
s28.167 -23.5 34.5 -39.5s9.5 -36 9.5 -60c0 -54.667 -13 -95 -39 -121s-66.333 -39 -121 -39h-180c-54.667 0 -95 13 -121 39s-39 66.333 -39 121v30h90v-30c0 -28 5 -47.667 15 -59s28.333 -17 55 -17h180c26.667 0 45 5.66699 55 17s15 31 15 59
c0 15.333 -4.33301 26.333 -13 33s-27.667 13.667 -57 21l-180 45c-31.333 8 -54.333 14.333 -69 19s-30.334 12.167 -47.001 22.5s-28.167 23.5 -34.5 39.5s-9.5 36 -9.5 60c0 54.667 13 95 39 121s66.333 39 121 39h180c54.667 0 95 -13 121 -39s39 -66.333 39 -121v-30z
M349 640h-78l-114 150h75l73 -96h10l72 96h76z" />
    <glyph glyph-name="Ydieresis" unicode="&#x178;" horiz-adv-x="661" 
d="M538 720h103l-266 -480v-240h-90v240l-265 480h103l202 -366h10zM410 790c-14.667 0 -27.5 5.33301 -38.5 16s-16.5 23.667 -16.5 39s5.5 28.333 16.5 39s23.833 16 38.5 16c15.333 0 28.333 -5.33301 39 -16s16 -23.667 16 -39s-5.33301 -28.333 -16 -39
s-23.667 -16 -39 -16zM250 790c-14.667 0 -27.5 5.33301 -38.5 16s-16.5 23.667 -16.5 39s5.5 28.333 16.5 39s23.833 16 38.5 16c15.333 0 28.333 -5.33301 39 -16s16 -23.667 16 -39s-5.33301 -28.333 -16 -39s-23.667 -16 -39 -16z" />
    <glyph glyph-name="Zcaron" unicode="&#x17d;" horiz-adv-x="690" 
d="M635 592l-490 -498v-10h490v-84h-580v127l490 499v10h-490v84h580v-128zM384 800h-78l-114 150h75l73 -96h10l72 96h76z" />
    <glyph glyph-name="zcaron" unicode="&#x17e;" horiz-adv-x="610" 
d="M555 427l-410 -333v-10h410v-84h-500v132l410 334v10h-410v84h500v-133zM344 640h-78l-114 150h75l73 -96h10l72 96h76z" />
    <glyph glyph-name="florin" unicode="&#x192;" horiz-adv-x="415" 
d="M210 676c-19.333 0 -32.5 -4.16699 -39.5 -12.5s-10.5 -22.833 -10.5 -43.5v-60h190v-84h-190v-536c0 -50 -10.833 -85.833 -32.5 -107.5s-57.5 -32.5 -107.5 -32.5h-80v84h80c19.333 0 32.5 4.16699 39.5 12.5s10.5 22.833 10.5 43.5v680c0 50 10.833 85.833 32.5 107.5
s57.5 32.5 107.5 32.5h160v-84h-160z" />
    <glyph glyph-name="circumflex" unicode="&#x2c6;" horiz-adv-x="425" 
d="M60 640l113 150h79l113 -150h-75l-72 96h-10l-73 -96h-75z" />
    <glyph glyph-name="caron" unicode="&#x2c7;" horiz-adv-x="425" 
d="M60 790h75l73 -96h10l72 96h75l-113 -150h-79z" />
    <glyph glyph-name="uni02C9" unicode="&#x2c9;" horiz-adv-x="370" 
d="M60 640v54h250v-54h-250z" />
    <glyph glyph-name="breve" unicode="&#x2d8;" horiz-adv-x="370" 
d="M250 790h60v-70c0 -30 -5.83301 -50.833 -17.5 -62.5s-32.5 -17.5 -62.5 -17.5h-90c-30 0 -50.833 5.83301 -62.5 17.5s-17.5 32.5 -17.5 62.5v70h60v-70c0 -10 1.16699 -16.833 3.5 -20.5s7.83301 -5.5 16.5 -5.5h90c8 0 13.333 2 16 6s4 10.667 4 20v70z" />
    <glyph glyph-name="dotaccent" unicode="&#x2d9;" horiz-adv-x="250" 
d="M125 760c18 0 33.333 -6.33301 46 -19s19 -28 19 -46s-6.33301 -33.333 -19 -46s-28 -19 -46 -19s-33.333 6.33301 -46 19s-19 28 -19 46s6.33301 33.333 19 46s28 19 46 19z" />
    <glyph glyph-name="ring" unicode="&#x2da;" horiz-adv-x="310" 
d="M155 820c26 0 48.333 -9.33301 67 -28s28 -41 28 -67c0 -26.667 -9.33301 -49.167 -28 -67.5s-41 -27.5 -67 -27.5c-26.667 0 -49.167 9.16699 -67.5 27.5s-27.5 40.833 -27.5 67.5c0 26 9.16699 48.333 27.5 67s40.833 28 67.5 28zM155 685
c11.333 0 20.833 3.83301 28.5 11.5s11.5 17.167 11.5 28.5s-3.83301 20.833 -11.5 28.5s-17.167 11.5 -28.5 11.5s-20.833 -3.83301 -28.5 -11.5s-11.5 -17.167 -11.5 -28.5s3.83301 -20.833 11.5 -28.5s17.167 -11.5 28.5 -11.5z" />
    <glyph glyph-name="ogonek" unicode="&#x2db;" horiz-adv-x="330" 
d="M120 0l-0.000976562 -110c0 -27.333 3.5 -45.166 10.5 -53.499s23.5 -12.5 49.5 -12.5h90v-54h-90c-45.333 0 -76.666 8.66699 -93.999 26s-26 48.666 -26 93.999v110h60z" />
    <glyph glyph-name="tilde" unicode="&#x2dc;" horiz-adv-x="370" 
d="M250 800h60v-27c0 -30 -5.83301 -50.833 -17.5 -62.5s-32.5 -17.5 -62.5 -17.5h-90c-8.66699 0 -14.167 -2 -16.5 -6s-3.5 -10.667 -3.5 -20v-27h-60v27c0 30 5.83301 50.833 17.5 62.5s32.5 17.5 62.5 17.5h90c8 0 13.333 2 16 6s4 10.667 4 20v27z" />
    <glyph glyph-name="hungarumlaut" unicode="&#x2dd;" horiz-adv-x="480" 
d="M160 790h95l-130 -150h-65zM325 790h95l-130 -150h-65z" />
    <glyph glyph-name="uni03A9" unicode="&#x3a9;" horiz-adv-x="680" 
d="M540 84h110v-84h-200v131c27.333 0 45.833 5.16699 55.5 15.5s14.5 29.5 14.5 57.5v316c0 28 -5 47.667 -15 59s-28.333 17 -55 17h-220c-26.667 0 -45 -5.66699 -55 -17s-15 -31 -15 -59v-316c0 -28 4.83301 -47.167 14.5 -57.5s28.167 -15.5 55.5 -15.5v-131h-200v84
h110v10c-2 0 -4.5 0.333008 -7.5 1s-8.5 3.16699 -16.5 7.5s-15.167 10 -21.5 17s-12 18 -17 33s-7.5 32.167 -7.5 51.5v316c0 54.667 13 95 39 121s66.333 39 121 39h220c54.667 0 95 -13 121 -39s39 -66.333 39 -121v-316c0 -19.333 -2.33301 -36.5 -7 -51.5
s-10.5 -26 -17.5 -33s-14 -12.667 -21 -17s-12.833 -6.83301 -17.5 -7.5l-7 -1v-10z" />
    <glyph glyph-name="uni03BC" unicode="&#x3bc;" 
d="M480 560h90v-400c0 -54.667 -13 -95 -39 -121s-66.333 -39 -121 -39h-250v-160h-90v720h90v-476h250c26.667 0 45 5.66699 55 17s15 31 15 59v400z" />
    <glyph glyph-name="pi" unicode="&#x3c0;" 
d="M610 560v-84h-80v-476h-90v476h-240v-476h-90v476h-80v84h580z" />
    <glyph glyph-name="endash" unicode="&#x2013;" horiz-adv-x="580" 
d="M520 322v-84h-460v84h460z" />
    <glyph glyph-name="emdash" unicode="&#x2014;" horiz-adv-x="720" 
d="M660 322v-84h-600v84h600z" />
    <glyph glyph-name="quoteleft" unicode="&#x2018;" horiz-adv-x="270" 
d="M145 720h65l-43 -170h-107z" />
    <glyph glyph-name="quoteright" unicode="&#x2019;" horiz-adv-x="270" 
d="M125 550h-65l42 170h108z" />
    <glyph glyph-name="quotesinglbase" unicode="&#x201a;" horiz-adv-x="270" 
d="M125 0h-65l42 170h108z" />
    <glyph glyph-name="quotedblleft" unicode="&#x201c;" horiz-adv-x="430" 
d="M60 550l85 170h65l-43 -170h-107zM305 720h65l-43 -170h-107z" />
    <glyph glyph-name="quotedblright" unicode="&#x201d;" horiz-adv-x="430" 
d="M370 720l-85 -170h-65l42 170h108zM125 550h-65l42 170h108z" />
    <glyph glyph-name="quotedblbase" unicode="&#x201e;" horiz-adv-x="430" 
d="M370 170l-85 -170h-65l42 170h108zM125 0h-65l42 170h108z" />
    <glyph glyph-name="dagger" unicode="&#x2020;" horiz-adv-x="680" 
d="M620 476h-235v-596h-90v596h-235v84h235v160h90v-160h235v-84z" />
    <glyph glyph-name="daggerdbl" unicode="&#x2021;" horiz-adv-x="680" 
d="M620 476h-235v-352h235v-84h-235v-160h-90v160h-235v84h235v352h-235v84h235v160h90v-160h235v-84z" />
    <glyph glyph-name="bullet" unicode="&#x2022;" horiz-adv-x="330" 
d="M165 385c28.667 0 53.334 -10.167 74.001 -30.5s31 -45.166 31 -74.499s-10.333 -54.166 -31 -74.499s-45.334 -30.5 -74.001 -30.5s-53.334 10.167 -74.001 30.5s-31 45.166 -31 74.499s10.333 54.166 31 74.499s45.334 30.5 74.001 30.5z" />
    <glyph glyph-name="ellipsis" unicode="&#x2026;" horiz-adv-x="610" 
d="M125 120c18 0 33.333 -6.33301 46 -19s19 -28 19 -46s-6.33301 -33.333 -19 -46s-28 -19 -46 -19s-33.333 6.33301 -46 19s-19 28 -19 46s6.33301 33.333 19 46s28 19 46 19zM485 120c18 0 33.333 -6.33301 46 -19s19 -28 19 -46s-6.33301 -33.333 -19 -46
s-28 -19 -46 -19s-33.333 6.33301 -46 19s-19 28 -19 46s6.33301 33.333 19 46s28 19 46 19zM305 120c18 0 33.333 -6.33301 46 -19s19 -28 19 -46s-6.33301 -33.333 -19 -46s-28 -19 -46 -19s-33.333 6.33301 -46 19s-19 28 -19 46s6.33301 33.333 19 46s28 19 46 19z" />
    <glyph glyph-name="perthousand" unicode="&#x2030;" horiz-adv-x="1270" 
d="M375 480c0 -45.333 -8.83301 -76.666 -26.5 -93.999s-48.834 -26 -93.501 -26h-70c-44.667 0 -75.834 8.66699 -93.501 26s-26.5 48.666 -26.5 93.999v120c0 45.333 8.83301 76.666 26.5 93.999s48.834 26 93.501 26h70c44.667 0 75.834 -8.66699 93.501 -26
s26.5 -48.666 26.5 -93.999v-120zM125 480c0 -27.333 3.5 -45.166 10.5 -53.499s23.5 -12.5 49.5 -12.5h70c25.333 0 41.666 4.16699 48.999 12.5s11 26.166 11 53.499v120c0 26.667 -3.66699 44.334 -11 53.001s-23.666 13 -48.999 13h-70c-26 0 -42.5 -4.33301 -49.5 -13
s-10.5 -26.334 -10.5 -53.001v-120zM705 360c44.667 0 75.834 -8.66699 93.501 -26s26.5 -48.666 26.5 -93.999v-120c0 -45.333 -8.83301 -76.666 -26.5 -93.999s-48.834 -26 -93.501 -26h-70c-44.667 0 -75.834 8.66699 -93.501 26s-26.5 48.666 -26.5 93.999v120
c0 45.333 8.83301 76.666 26.5 93.999s48.834 26 93.501 26h70zM765 120v120c0 26.667 -3.66699 44.334 -11 53.001s-23.666 13 -48.999 13h-70c-26 0 -42.5 -4.33301 -49.5 -13s-10.5 -26.334 -10.5 -53.001v-120c0 -27.333 3.5 -45.166 10.5 -53.499
s23.5 -12.5 49.5 -12.5h70c25.333 0 41.666 4.16699 48.999 12.5s11 26.166 11 53.499zM1085 360c44.667 0 75.834 -8.66699 93.501 -26s26.5 -48.666 26.5 -93.999v-120c0 -45.333 -8.83301 -76.666 -26.5 -93.999s-48.834 -26 -93.501 -26h-70
c-44.667 0 -75.834 8.66699 -93.501 26s-26.5 48.666 -26.5 93.999v120c0 45.333 8.83301 76.666 26.5 93.999s48.834 26 93.501 26h70zM1145 120v120c0 26.667 -3.66699 44.334 -11 53.001s-23.666 13 -48.999 13h-70c-26 0 -42.5 -4.33301 -49.5 -13
s-10.5 -26.334 -10.5 -53.001v-120c0 -27.333 3.5 -45.166 10.5 -53.499s23.5 -12.5 49.5 -12.5h70c25.333 0 41.666 4.16699 48.999 12.5s11 26.166 11 53.499zM591 720h67l-360 -720h-67z" />
    <glyph glyph-name="guilsinglleft" unicode="&#x2039;" horiz-adv-x="382" 
d="M322 480l-150 -200l150 -200h-112l-150 200l150 200h112z" />
    <glyph glyph-name="guilsinglright" unicode="&#x203a;" horiz-adv-x="382" 
d="M60 480h112l150 -200l-150 -200h-112l150 200z" />
    <glyph glyph-name="fraction" unicode="&#x2044;" horiz-adv-x="467" 
d="M380 720h67l-360 -720h-67z" />
    <glyph glyph-name="Euro" unicode="&#x20ac;" horiz-adv-x="750" 
d="M600 160v70h90v-70c0 -54.667 -13 -95 -39 -121s-66.333 -39 -121 -39h-260c-54.667 0 -95 13 -121 39s-39 66.333 -39 121v100h-80v54h370v-54h-200v-100c0 -28 5 -47.667 15 -59s28.333 -17 55 -17h260c26.667 0 45 5.66699 55 17s15 31 15 59zM530 720
c54.667 0 95 -13 121 -39s39 -66.333 39 -121v-70h-90v70c0 28 -5 47.667 -15 59s-28.333 17 -55 17h-260c-26.667 0 -45 -5.66699 -55 -17s-15 -31 -15 -59v-100h200v-54h-370v54h80v100c0 54.667 13 95 39 121s66.333 39 121 39h260z" />
    <glyph glyph-name="afii61289" unicode="&#x2113;" horiz-adv-x="425" 
d="M255 720c44.667 0 75.834 -8.66797 93.501 -26.001s26.5 -48.666 26.5 -93.999v-210c0 -45.333 -8.83301 -76.666 -26.5 -93.999s-48.834 -26 -93.501 -26h-130v-150c0 -27.333 3.5 -45.166 10.5 -53.499s23.5 -12.5 49.5 -12.5h100v-54h-100
c-44.667 0 -75.834 8.66699 -93.501 26s-26.5 48.666 -26.5 93.999v480c0 45.333 8.83301 76.666 26.5 93.999s48.834 26 93.501 26h70zM315 389.999v210.001c0 26.667 -3.66699 44.334 -11 53.001s-23.666 13 -48.999 13h-70c-26 0 -42.5 -4.33301 -49.5 -13
s-10.5 -26.334 -10.5 -53.001v-276h130c25.333 0 41.666 4.16699 48.999 12.5s11 26.166 11 53.499z" />
    <glyph glyph-name="trademark" unicode="&#x2122;" horiz-adv-x="850" 
d="M672 720h108v-360h-60v306h-10l-78 -206h-85l-77 206h-10v-306h-60v360h107l78 -206h10zM20 666v54h320v-54h-130v-306h-60v306h-130z" />
    <glyph glyph-name="Omega" unicode="&#x2126;" horiz-adv-x="680" 
d="M540 84h110v-84h-200v131c27.333 0 45.833 5.16699 55.5 15.5s14.5 29.5 14.5 57.5v316c0 28 -5 47.667 -15 59s-28.333 17 -55 17h-220c-26.667 0 -45 -5.66699 -55 -17s-15 -31 -15 -59v-316c0 -28 4.83301 -47.167 14.5 -57.5s28.167 -15.5 55.5 -15.5v-131h-200v84
h110v10c-2 0 -4.5 0.333008 -7.5 1s-8.5 3.16699 -16.5 7.5s-15.167 10 -21.5 17s-12 18 -17 33s-7.5 32.167 -7.5 51.5v316c0 54.667 13 95 39 121s66.333 39 121 39h220c54.667 0 95 -13 121 -39s39 -66.333 39 -121v-316c0 -19.333 -2.33301 -36.5 -7 -51.5
s-10.5 -26 -17.5 -33s-14 -12.667 -21 -17s-12.833 -6.83301 -17.5 -7.5l-7 -1v-10z" />
    <glyph glyph-name="estimated" unicode="&#x212e;" horiz-adv-x="860" 
d="M718 180h34.999c-32 -57.333 -76.833 -103.333 -134.5 -138s-120.5 -52 -188.5 -52c-102 0 -189.167 36.167 -261.5 108.5s-108.5 159.5 -108.5 261.5s36.167 189.167 108.5 261.5s159.5 108.5 261.5 108.5s189.167 -36.167 261.5 -108.5s108.5 -159.5 108.5 -261.5v-14
h-580v-253c61.333 -48.667 131.333 -73 210 -73c60 0 115.333 14.5 166 43.5s91.334 67.833 122.001 116.5zM219.999 627v-253h420v253c-61.333 48.667 -131.333 73 -210 73s-148.667 -24.333 -210 -73z" />
    <glyph glyph-name="partialdiff" unicode="&#x2202;" horiz-adv-x="630" 
d="M405 760c55.333 0 95.833 -13 121.5 -39s38.5 -66.333 38.5 -121v-440c0 -54.667 -12.833 -95 -38.5 -121s-66.167 -39 -121.5 -39h-180c-55.333 0 -95.833 13 -121.5 39s-38.5 66.333 -38.5 121v160c0 54.667 12.833 95 38.5 121s66.167 39 121.5 39h250v120
c0 28 -5 47.667 -15 59s-28.333 17 -55 17h-260v84h260zM475 160v236h-250c-26.667 0 -45 -5.66699 -55 -17s-15 -31 -15 -59v-160c0 -28 5 -47.667 15 -59s28.333 -17 55 -17h180c26.667 0 45 5.66699 55 17s15 31 15 59z" />
    <glyph glyph-name="Delta" unicode="&#x2206;" horiz-adv-x="680" 
d="M410 720l250 -720h-640l247 720h143zM144 84h392l-192 552h-10z" />
    <glyph glyph-name="product" unicode="&#x220f;" horiz-adv-x="720" 
d="M70 720h580v-720h-90v636h-400v-636h-90v720z" />
    <glyph glyph-name="summation" unicode="&#x2211;" 
d="M610 636h-490v-10l290 -308v-77l-290 -307v-10h490v-84h-580v127l290 308v10l-290 307v128h580v-84z" />
    <glyph glyph-name="minus" unicode="&#x2212;" horiz-adv-x="600" 
d="M540 322v-84h-480v84h480z" />
    <glyph glyph-name="uni2215" unicode="&#x2215;" horiz-adv-x="467" 
d="M380 720h67l-360 -720h-67z" />
    <glyph glyph-name="uni2219" unicode="&#x2219;" horiz-adv-x="250" 
d="M125 345c18 0 33.333 -6.33301 46 -19s19 -28 19 -46s-6.33301 -33.333 -19 -46s-28 -19 -46 -19s-33.333 6.33301 -46 19s-19 28 -19 46s6.33301 33.333 19 46s28 19 46 19z" />
    <glyph glyph-name="radical" unicode="&#x221a;" horiz-adv-x="680" 
d="M598 940h62l-278 -1120h-107l-136 546h-99v54h147l136 -546h10z" />
    <glyph glyph-name="infinity" unicode="&#x221e;" horiz-adv-x="910" 
d="M690 470c54.667 0 95 -13 121 -39s39 -66.333 39 -121v-60c0 -54.667 -13 -95 -39 -121s-66.333 -39 -121 -39h-120c-19.333 0 -36.5 2.33301 -51.5 7s-26 10.5 -33 17.5s-12.667 14 -17 21s-6.83301 12.833 -7.5 17.5l-1 7h-10c0 -2 -0.333008 -4.5 -1 -7.5
s-3.16699 -8.5 -7.5 -16.5s-10 -15.167 -17 -21.5s-18 -12 -33 -17s-32.167 -7.5 -51.5 -7.5h-120c-54.667 0 -95 13 -121 39s-39 66.333 -39 121v60c0 54.667 13 95 39 121s66.333 39 121 39h120c19.333 0 36.5 -2.33301 51.5 -7s26 -10.5 33 -17.5s12.667 -14 17 -21
s6.83301 -12.833 7.5 -17.5l1 -7h10c0 2 0.333008 4.5 1 7.5s3.16699 8.5 7.5 16.5s10 15.167 17 21.5s18 12 33 17s32.167 7.5 51.5 7.5h120zM410 250v60c0 28 -5 47.667 -15 59s-28.333 17 -55 17h-120c-26.667 0 -45 -5.66699 -55 -17s-15 -31 -15 -59v-60
c0 -28 5 -47.667 15 -59s28.333 -17 55 -17h120c26.667 0 45 5.66699 55 17s15 31 15 59zM760 250v60c0 28 -5 47.667 -15 59s-28.333 17 -55 17h-120c-26.667 0 -45 -5.66699 -55 -17s-15 -31 -15 -59v-60c0 -28 5 -47.667 15 -59s28.333 -17 55 -17h120
c26.667 0 45 5.66699 55 17s15 31 15 59z" />
    <glyph glyph-name="integral" unicode="&#x222b;" horiz-adv-x="440" 
d="M310 800l100.001 0.00195312v-54h-100c-26 0 -42.5 -4.33301 -49.5 -13s-10.5 -26.334 -10.5 -53.001v-680c0 -45.333 -8.66699 -76.666 -26 -93.999s-48.666 -26 -93.999 -26h-100v54h100c25.333 0 41.666 4.16699 48.999 12.5s11 26.166 11 53.499v680
c0 45.333 8.66699 76.666 26 93.999s48.666 26 93.999 26z" />
    <glyph glyph-name="approxequal" unicode="&#x2248;" horiz-adv-x="600" 
d="M450 540h90v-42c0 -50 -10.833 -85.833 -32.5 -107.5s-57.5 -32.5 -107.5 -32.5h-200c-19.333 0 -32.5 -4.16699 -39.5 -12.5s-10.5 -22.833 -10.5 -43.5v-42h-90v42c0 50 10.833 85.833 32.5 107.5s57.5 32.5 107.5 32.5h200c19.333 0 32.5 4.16699 39.5 12.5
s10.5 22.833 10.5 43.5v42zM450 258v42h90v-42c0 -50 -10.833 -85.833 -32.5 -107.5s-57.5 -32.5 -107.5 -32.5h-200c-19.333 0 -32.5 -4.16699 -39.5 -12.5s-10.5 -22.833 -10.5 -43.5v-42h-90v42c0 50 10.833 85.833 32.5 107.5s57.5 32.5 107.5 32.5h200
c19.333 0 32.5 4.16699 39.5 12.5s10.5 22.833 10.5 43.5z" />
    <glyph glyph-name="notequal" unicode="&#x2260;" horiz-adv-x="600" 
d="M540 326h-184l-46 -92h230v-84h-272l-45 -90h-67l45 90h-141v84h183l46 92h-229v84h271l45 90h67l-45 -90h142v-84z" />
    <glyph glyph-name="lessequal" unicode="&#x2264;" horiz-adv-x="600" 
d="M60 40v84h480v-84h-480zM60 270v140l480 111v-86l-390 -90v-10l390 -90v-86z" />
    <glyph glyph-name="greaterequal" unicode="&#x2265;" horiz-adv-x="600" 
d="M540 40h-480v84h480v-84zM540 270l-480 -111v86l390 90v10l-390 90v86l480 -111v-140z" />
    <glyph glyph-name="lozenge" unicode="&#x25ca;" horiz-adv-x="662" 
d="M60 360l229 360h84l229 -360l-229 -360h-84zM531 360l-195 306h-10l-195 -306l195 -306h10z" />
    <glyph glyph-name="f_f_j" unicode="&#xe095;" horiz-adv-x="890" 
d="M490 560h330v-620c0 -50 -10.833 -85.833 -32.5 -107.5s-57.5 -32.5 -107.5 -32.5h-80v84h80c19.333 0 32.5 4.16699 39.5 12.5s10.5 22.833 10.5 43.5v536h-240v-476h-90v476h-240v-476h-90v620c0 50 10.833 85.833 32.5 107.5s57.5 32.5 107.5 32.5h150v-84h-150
c-19.333 0 -32.5 -4.16699 -39.5 -12.5s-10.5 -22.833 -10.5 -43.5v-60h240v60c0 50 10.833 85.833 32.5 107.5s57.5 32.5 107.5 32.5h160v-84h-160c-19.333 0 -32.5 -4.16699 -39.5 -12.5s-10.5 -22.833 -10.5 -43.5v-60z" />
    <glyph glyph-name="f_j" unicode="&#xe09a;" horiz-adv-x="560" 
d="M160 560h330v-620c0 -50 -10.833 -85.833 -32.5 -107.5s-57.5 -32.5 -107.5 -32.5h-80v84h80c19.333 0 32.5 4.16699 39.5 12.5s10.5 22.833 10.5 43.5v536h-240v-476h-90v620c0 50 10.833 85.833 32.5 107.5s57.5 32.5 107.5 32.5h160v-84h-160
c-19.333 0 -32.5 -4.16699 -39.5 -12.5s-10.5 -22.833 -10.5 -43.5v-60z" />
    <glyph glyph-name="lslash.sc" unicode="&#xf6f9;" horiz-adv-x="620" 
d="M230 84h370v-84h-460v187l-120 -60v61l120 60v312h90v-267l170 85v-61l-170 -85v-148z" />
    <glyph glyph-name="oe.sc" unicode="&#xf6fa;" horiz-adv-x="990" 
d="M935 476h-370v-154h360v-84h-360v-154h370v-84h-710c-55.333 0 -95.833 13 -121.5 39s-38.5 66.333 -38.5 121v240c0 54.667 12.833 95 38.5 121s66.167 39 121.5 39h710v-84zM225 84h250v392h-250c-26.667 0 -45 -5.66699 -55 -17s-15 -31 -15 -59v-240
c0 -28 5 -47.667 15 -59s28.333 -17 55 -17z" />
    <glyph glyph-name="scaron.sc" unicode="&#xf6fd;" horiz-adv-x="620" 
d="M560 370h-90v30c0 28 -5 47.667 -15 59s-28.333 17 -55 17h-180c-26.667 0 -45 -5.66699 -55 -17s-15 -31 -15 -59c0 -15.333 4.33301 -26.333 13 -33s27.667 -13.667 57 -21l180 -45c31.333 -8 54.333 -14.333 69 -19s30.334 -12.167 47.001 -22.5
s28.167 -23.5 34.5 -39.5s9.5 -36 9.5 -60c0 -54.667 -13 -95 -39 -121s-66.333 -39 -121 -39h-180c-54.667 0 -95 13 -121 39s-39 66.333 -39 121v30h90v-30c0 -28 5 -47.667 15 -59s28.333 -17 55 -17h180c26.667 0 45 5.66699 55 17s15 31 15 59
c0 15.333 -4.33301 26.333 -13 33s-27.667 13.667 -57 21l-180 45c-31.333 8 -54.333 14.333 -69 19s-30.334 12.167 -47.001 22.5s-28.167 23.5 -34.5 39.5s-9.5 36 -9.5 60c0 54.667 13 95 39 121s66.333 39 121 39h180c54.667 0 95 -13 121 -39s39 -66.333 39 -121v-30z
M349 640h-78l-114 150h75l73 -96h10l72 96h76z" />
    <glyph glyph-name="zcaron.sc" unicode="&#xf6ff;" horiz-adv-x="610" 
d="M555 427l-410 -333v-10h410v-84h-500v132l410 334v10h-410v84h500v-133zM344 640h-78l-114 150h75l73 -96h10l72 96h76z" />
    <glyph glyph-name="a.sc" unicode="&#xf761;" horiz-adv-x="602" 
d="M371 560l211 -560h-96l-52 138h-266l-52 -138h-96l212 560h139zM200 222h202l-96 254h-10z" />
    <glyph glyph-name="b.sc" unicode="&#xf762;" horiz-adv-x="635" 
d="M500 285v-10c2 0 4.5 -0.333008 7.5 -1s8.5 -3.16699 16.5 -7.5s15.167 -10 21.5 -17s12 -18 17 -33s7.5 -32.167 7.5 -51.5v-5c0 -54.667 -13 -95 -39 -121s-66.333 -39 -121 -39h-340v560h340c54.667 0 95 -13 121 -39s39 -66.333 39 -121v-5
c0 -19.333 -2.33301 -36.5 -7 -51.5s-10.5 -26 -17.5 -33s-14 -12.667 -21 -17s-12.833 -6.83301 -17.5 -7.5zM480 160v5c0 28 -4.83301 47.167 -14.5 57.5s-28.167 15.5 -55.5 15.5h-250v-154h250c26.667 0 45 5.66699 55 17s15 31 15 59zM160 476v-154h250
c27.333 0 45.833 5.16699 55.5 15.5s14.5 29.5 14.5 57.5v5c0 28 -5 47.667 -15 59s-28.333 17 -55 17h-250z" />
    <glyph glyph-name="c.sc" unicode="&#xf763;" horiz-adv-x="625" 
d="M475 190h90v-30c0 -54.667 -12.833 -95 -38.5 -121s-66.167 -39 -121.5 -39h-180c-55.333 0 -95.833 13 -121.5 39s-38.5 66.333 -38.5 121v240c0 54.667 12.833 95 38.5 121s66.167 39 121.5 39h180c55.333 0 95.833 -13 121.5 -39s38.5 -66.333 38.5 -121v-30h-90v30
c0 28 -5 47.667 -15 59s-28.333 17 -55 17h-180c-26.667 0 -45 -5.66699 -55 -17s-15 -31 -15 -59v-240c0 -28 5 -47.667 15 -59s28.333 -17 55 -17h180c26.667 0 45 5.66699 55 17s15 31 15 59v30z" />
    <glyph glyph-name="d.sc" unicode="&#xf764;" horiz-adv-x="635" 
d="M410 560c54.667 0 95 -13 121 -39s39 -66.333 39 -121v-240c0 -54.667 -13 -95 -39 -121s-66.333 -39 -121 -39h-340v560h340zM480 160v240c0 28 -5 47.667 -15 59s-28.333 17 -55 17h-250v-392h250c26.667 0 45 5.66699 55 17s15 31 15 59z" />
    <glyph glyph-name="e.sc" unicode="&#xf765;" horiz-adv-x="585" 
d="M530 476h-370v-154h360v-84h-360v-154h370v-84h-460v560h460v-84z" />
    <glyph glyph-name="f.sc" unicode="&#xf766;" horiz-adv-x="575" 
d="M160 0h-90v560h460v-84h-370v-154h360v-84h-360v-238z" />
    <glyph glyph-name="g.sc" unicode="&#xf767;" horiz-adv-x="630" 
d="M565 370h-90v30c0 28 -5 47.667 -15 59s-28.333 17 -55 17h-180c-26.667 0 -45 -5.66699 -55 -17s-15 -31 -15 -59v-240c0 -28 5 -47.667 15 -59s28.333 -17 55 -17h180c26.667 0 45 5.66699 55 17s15 31 15 59v78h-160v84h250v-162c0 -54.667 -12.833 -95 -38.5 -121
s-66.167 -39 -121.5 -39h-180c-55.333 0 -95.833 13 -121.5 39s-38.5 66.333 -38.5 121v240c0 54.667 12.833 95 38.5 121s66.167 39 121.5 39h180c55.333 0 95.833 -13 121.5 -39s38.5 -66.333 38.5 -121v-30z" />
    <glyph glyph-name="h.sc" unicode="&#xf768;" 
d="M480 560h90v-560h-90v238h-320v-238h-90v560h90v-238h320v238z" />
    <glyph glyph-name="i.sc" unicode="&#xf769;" horiz-adv-x="230" 
d="M70 0v560h90v-560h-90z" />
    <glyph glyph-name="j.sc" unicode="&#xf76a;" horiz-adv-x="620" 
d="M460 560h90v-400c0 -54.667 -13 -95 -39 -121s-66.333 -39 -121 -39h-180c-54.667 0 -95 13 -121 39s-39 66.333 -39 121v120h90v-120c0 -28 5 -47.667 15 -59s28.333 -17 55 -17h180c26.667 0 45 5.66699 55 17s15 31 15 59v400z" />
    <glyph glyph-name="k.sc" unicode="&#xf76b;" horiz-adv-x="610" 
d="M405 280l185 -280h-108l-157 238h-165v-238h-90v560h90v-238h165l157 238h108z" />
    <glyph glyph-name="l.sc" unicode="&#xf76c;" horiz-adv-x="550" 
d="M160 560v-476h370v-84h-460v560h90z" />
    <glyph glyph-name="m.sc" unicode="&#xf76d;" horiz-adv-x="750" 
d="M522 560h158v-560h-90v476h-10l-143 -356h-125l-142 356h-10v-476h-90v560h157l143 -356h10z" />
    <glyph glyph-name="n.sc" unicode="&#xf76e;" 
d="M480 560h90v-560h-155l-245 476h-10v-476h-90v560h155l245 -476h10v476z" />
    <glyph glyph-name="o.sc" unicode="&#xf76f;" horiz-adv-x="630" 
d="M405 560c55.333 0 95.833 -13 121.5 -39s38.5 -66.333 38.5 -121v-240c0 -54.667 -12.833 -95 -38.5 -121s-66.167 -39 -121.5 -39h-180c-55.333 0 -95.833 13 -121.5 39s-38.5 66.333 -38.5 121v240c0 54.667 12.833 95 38.5 121s66.167 39 121.5 39h180zM475 160v240
c0 28 -5 47.667 -15 59s-28.333 17 -55 17h-180c-26.667 0 -45 -5.66699 -55 -17s-15 -31 -15 -59v-240c0 -28 5 -47.667 15 -59s28.333 -17 55 -17h180c26.667 0 45 5.66699 55 17s15 31 15 59z" />
    <glyph glyph-name="p.sc" unicode="&#xf770;" horiz-adv-x="620" 
d="M410 560c54.667 0 95 -13 121 -39s39 -66.333 39 -121v-60c0 -54.667 -13 -95 -39 -121s-66.333 -39 -121 -39h-250v-180h-90v560h340zM480 340v60c0 28 -5 47.667 -15 59s-28.333 17 -55 17h-250v-212h250c26.667 0 45 5.66699 55 17s15 31 15 59z" />
    <glyph glyph-name="q.sc" unicode="&#xf771;" horiz-adv-x="630" 
d="M405 560c55.333 0 95.833 -13 121.5 -39s38.5 -66.333 38.5 -121v-240c0 -54.667 -12.833 -95 -38.5 -121s-66.167 -39 -121.5 -39h-45v-160h-90v160h-45c-55.333 0 -95.833 13 -121.5 39s-38.5 66.333 -38.5 121v240c0 54.667 12.833 95 38.5 121s66.167 39 121.5 39
h180zM475 160v240c0 28 -5 47.667 -15 59s-28.333 17 -55 17h-180c-26.667 0 -45 -5.66699 -55 -17s-15 -31 -15 -59v-240c0 -28 5 -47.667 15 -59s28.333 -17 55 -17h180c26.667 0 45 5.66699 55 17s15 31 15 59z" />
    <glyph glyph-name="r.sc" unicode="&#xf772;" horiz-adv-x="630" 
d="M570 340c0 -51.333 -11.168 -90 -33.501 -116s-57.166 -40.333 -104.499 -43l120 -181h-108l-119 180h-165v-180h-90v560h340c54.667 0 95 -13 121 -39s39 -66.333 39 -121v-60zM479.999 340v60c0 28 -5 47.667 -15 59s-28.333 17 -55 17h-250v-212h250
c26.667 0 45 5.66699 55 17s15 31 15 59z" />
    <glyph glyph-name="s.sc" unicode="&#xf773;" horiz-adv-x="620" 
d="M560 370h-90v30c0 28 -5 47.667 -15 59s-28.333 17 -55 17h-180c-26.667 0 -45 -5.66699 -55 -17s-15 -31 -15 -59c0 -15.333 4.33301 -26.333 13 -33s27.667 -13.667 57 -21l180 -45c31.333 -8 54.333 -14.333 69 -19s30.334 -12.167 47.001 -22.5
s28.167 -23.5 34.5 -39.5s9.5 -36 9.5 -60c0 -54.667 -13 -95 -39 -121s-66.333 -39 -121 -39h-180c-54.667 0 -95 13 -121 39s-39 66.333 -39 121v30h90v-30c0 -28 5 -47.667 15 -59s28.333 -17 55 -17h180c26.667 0 45 5.66699 55 17s15 31 15 59
c0 15.333 -4.33301 26.333 -13 33s-27.667 13.667 -57 21l-180 45c-31.333 8 -54.333 14.333 -69 19s-30.334 12.167 -47.001 22.5s-28.167 23.5 -34.5 39.5s-9.5 36 -9.5 60c0 54.667 13 95 39 121s66.333 39 121 39h180c54.667 0 95 -13 121 -39s39 -66.333 39 -121v-30z
" />
    <glyph glyph-name="t.sc" unicode="&#xf774;" horiz-adv-x="540" 
d="M520 560v-84h-205v-476h-90v476h-205v84h500z" />
    <glyph glyph-name="u.sc" unicode="&#xf775;" 
d="M480 560h90v-400c0 -54.667 -13 -95 -39 -121s-66.333 -39 -121 -39h-180c-54.667 0 -95 13 -121 39s-39 66.333 -39 121v400h90v-400c0 -28 5 -47.667 15 -59s28.333 -17 55 -17h180c26.667 0 45 5.66699 55 17s15 31 15 59v400z" />
    <glyph glyph-name="v.sc" unicode="&#xf776;" horiz-adv-x="602" 
d="M296 84h10l180 476h96l-211 -560h-139l-212 560h96z" />
    <glyph glyph-name="w.sc" unicode="&#xf777;" horiz-adv-x="896" 
d="M773 560h93l-144 -560h-146l-123 476h-10l-122 -476h-147l-144 560h93l122 -476h10l123 476h140l123 -476h10z" />
    <glyph glyph-name="x.sc" unicode="&#xf778;" horiz-adv-x="581" 
d="M375 280l186 -280h-108l-158 238h-10l-157 -238h-108l185 280l-185 280h108l157 -238h10l158 238h108z" />
    <glyph glyph-name="y.sc" unicode="&#xf779;" horiz-adv-x="584" 
d="M459 560h105l-227 -385v-175h-90v174l-227 386h104l163 -276h10z" />
    <glyph glyph-name="z.sc" unicode="&#xf77a;" horiz-adv-x="610" 
d="M555 427l-410 -333v-10h410v-84h-500v132l410 334v10h-410v84h500v-133z" />
    <glyph glyph-name="agrave.sc" unicode="&#xf7e0;" horiz-adv-x="602" 
d="M371 560l211 -560h-96l-52 138h-266l-52 -138h-96l212 560h139zM200 222h202l-96 254h-10zM356 640h-65l-130 150h95z" />
    <glyph glyph-name="aacute.sc" unicode="&#xf7e1;" horiz-adv-x="602" 
d="M232 560h139l211 -560h-96l-52 138h-266l-52 -138h-96zM402 222l-96 254h-10l-96 -254h202zM246 640l100 150h95l-130 -150h-65z" />
    <glyph glyph-name="acircumflex.sc" unicode="&#xf7e2;" horiz-adv-x="602" 
d="M371 560l211 -560h-96l-52 138h-266l-52 -138h-96l212 560h139zM200 222h202l-96 254h-10zM296 736l-72 -96h-76l114 150h79l113 -150h-75l-73 96h-10z" />
    <glyph glyph-name="atilde.sc" unicode="&#xf7e3;" horiz-adv-x="602" 
d="M371 560l211 -560h-96l-52 138h-266l-52 -138h-96l212 560h139zM200 222h202l-96 254h-10zM236 667v-27h-60v27c0 30 5.83301 50.833 17.5 62.5s32.5 17.5 62.5 17.5h90c8.66699 0 14.167 1.83301 16.5 5.5s3.5 10.5 3.5 20.5v27h60v-27
c0 -30 -5.83301 -50.833 -17.5 -62.5s-32.5 -17.5 -62.5 -17.5h-90c-8 0 -13.333 -2 -16 -6s-4 -10.667 -4 -20z" />
    <glyph glyph-name="adieresis.sc" unicode="&#xf7e4;" horiz-adv-x="602" 
d="M371 560l211 -560h-96l-52 138h-266l-52 -138h-96l212 560h139zM200 222h202l-96 254h-10zM381 630c-15.333 0 -28.333 5.33301 -39 16s-16 23.667 -16 39s5.33301 28.333 16 39s23.667 16 39 16s28.333 -5.33301 39 -16s16 -23.667 16 -39s-5.33301 -28.333 -16 -39
s-23.667 -16 -39 -16zM221 630c-15.333 0 -28.333 5.33301 -39 16s-16 23.667 -16 39s5.33301 28.333 16 39s23.667 16 39 16s28.333 -5.33301 39 -16s16 -23.667 16 -39s-5.33301 -28.333 -16 -39s-23.667 -16 -39 -16z" />
    <glyph glyph-name="aring.sc" unicode="&#xf7e5;" horiz-adv-x="602" 
d="M301 630c-26 0 -48.333 9.16699 -67 27.5s-28 40.833 -28 67.5c0 26 9.33301 48.333 28 67s41 28 67 28c26.667 0 49.167 -9.33301 67.5 -28s27.5 -41 27.5 -67c0 -26.667 -9.16699 -49.167 -27.5 -67.5s-40.833 -27.5 -67.5 -27.5zM301 765
c-11.333 0 -20.833 -3.83301 -28.5 -11.5s-11.5 -17.167 -11.5 -28.5s3.83301 -20.833 11.5 -28.5s17.167 -11.5 28.5 -11.5s20.833 3.83301 28.5 11.5s11.5 17.167 11.5 28.5s-3.83301 20.833 -11.5 28.5s-17.167 11.5 -28.5 11.5zM371 560l211 -560h-96l-52 138h-266
l-52 -138h-96l212 560h139zM200 222h202l-96 254h-10z" />
    <glyph glyph-name="ae.sc" unicode="&#xf7e6;" horiz-adv-x="921" 
d="M866 476h-370v-154h360v-84h-360v-154h370v-84h-460v138h-203l-79 -138h-104l321 560h525v-84zM251 222h155v254h-10z" />
    <glyph glyph-name="ccedilla.sc" unicode="&#xf7e7;" horiz-adv-x="625" 
d="M565 370h-90v30c0 28 -5 47.667 -15 59s-28.333 17 -55 17h-180c-26.667 0 -45 -5.66699 -55 -17s-15 -31 -15 -59v-240c0 -28 5 -47.667 15 -59s28.333 -17 55 -17h180c26.667 0 45 5.66699 55 17s15 31 15 59v30h90v-30c0 -54.667 -12.833 -95 -38.5 -121
s-66.167 -39 -121.5 -39h-95v-45h50c30 0 50.833 -5.83301 62.5 -17.5s17.5 -32.5 17.5 -62.5v-25c0 -30 -5.83301 -50.833 -17.5 -62.5s-32.5 -17.5 -62.5 -17.5h-170v54h170c8 0 13.333 2 16 6s4 10.667 4 20v25c0 9.33301 -1.33301 16 -4 20s-8 6 -16 6h-110v99h-25
c-55.333 0 -95.833 13 -121.5 39s-38.5 66.333 -38.5 121v240c0 54.667 12.833 95 38.5 121s66.167 39 121.5 39h180c55.333 0 95.833 -13 121.5 -39s38.5 -66.333 38.5 -121v-30z" />
    <glyph glyph-name="egrave.sc" unicode="&#xf7e8;" horiz-adv-x="585" 
d="M355 640h-65l-130 150h95zM530 476h-370v-154h360v-84h-360v-154h370v-84h-460v560h460v-84z" />
    <glyph glyph-name="eacute.sc" unicode="&#xf7e9;" horiz-adv-x="585" 
d="M440 790l-130 -150h-65l100 150h95zM530 476h-370v-154h360v-84h-360v-154h370v-84h-460v560h460v-84z" />
    <glyph glyph-name="ecircumflex.sc" unicode="&#xf7ea;" horiz-adv-x="585" 
d="M530 476h-370v-154h360v-84h-360v-154h370v-84h-460v560h460v-84zM295 736l-73 -96h-75l114 150h78l114 -150h-76l-72 96h-10z" />
    <glyph glyph-name="edieresis.sc" unicode="&#xf7eb;" horiz-adv-x="585" 
d="M530 476h-370v-154h360v-84h-360v-154h370v-84h-460v560h460v-84zM380 630c-14.667 0 -27.5 5.33301 -38.5 16s-16.5 23.667 -16.5 39s5.5 28.333 16.5 39s23.833 16 38.5 16s27.5 -5.33301 38.5 -16s16.5 -23.667 16.5 -39s-5.5 -28.333 -16.5 -39
s-23.833 -16 -38.5 -16zM220 630c-14.667 0 -27.5 5.33301 -38.5 16s-16.5 23.667 -16.5 39s5.5 28.333 16.5 39s23.833 16 38.5 16s27.5 -5.33301 38.5 -16s16.5 -23.667 16.5 -39s-5.5 -28.333 -16.5 -39s-23.833 -16 -38.5 -16z" />
    <glyph glyph-name="igrave.sc" unicode="&#xf7ec;" horiz-adv-x="230" 
d="M160 0h-90v560h90v-560zM-25 790h95l100 -150h-65z" />
    <glyph glyph-name="iacute.sc" unicode="&#xf7ed;" horiz-adv-x="230" 
d="M70 0v560h90v-560h-90zM255 790l-130 -150h-65l100 150h95z" />
    <glyph glyph-name="icircumflex.sc" unicode="&#xf7ee;" horiz-adv-x="230" 
d="M70 0v560h90v-560h-90zM154 790l113 -150h-75l-72 96h-10l-73 -96h-75l113 150h79z" />
    <glyph glyph-name="idieresis.sc" unicode="&#xf7ef;" horiz-adv-x="230" 
d="M70 0v560h90v-560h-90zM195 740c15.333 0 28.333 -5.33301 39 -16s16 -23.667 16 -39s-5.33301 -28.333 -16 -39s-23.667 -16 -39 -16s-28.333 5.33301 -39 16s-16 23.667 -16 39s5.33301 28.333 16 39s23.667 16 39 16zM90 685c0 -15.333 -5.33301 -28.333 -16 -39
s-23.667 -16 -39 -16s-28.333 5.33301 -39 16s-16 23.667 -16 39s5.33301 28.333 16 39s23.667 16 39 16s28.333 -5.33301 39 -16s16 -23.667 16 -39z" />
    <glyph glyph-name="eth.sc" unicode="&#xf7f0;" horiz-adv-x="675" 
d="M450 560c54.667 0 95 -13 121 -39s39 -66.333 39 -121v-240c0 -54.667 -13 -95 -39 -121s-66.333 -39 -121 -39h-340v238h-80v84h80v238h340zM520 160v240c0 28 -5 47.667 -15 59s-28.333 17 -55 17h-250v-154h160v-84h-160v-154h250c26.667 0 45 5.66699 55 17
s15 31 15 59z" />
    <glyph glyph-name="ntilde.sc" unicode="&#xf7f1;" 
d="M255 667v-27h-60v27c0 30 5.83301 50.833 17.5 62.5s32.5 17.5 62.5 17.5h90c8 0 13.333 2 16 6s4 10.667 4 20v27h60v-27c0 -30 -5.83301 -50.833 -17.5 -62.5s-32.5 -17.5 -62.5 -17.5h-90c-8.66699 0 -14.167 -2 -16.5 -6s-3.5 -10.667 -3.5 -20zM480 560h90v-560
h-155l-245 476h-10v-476h-90v560h155l245 -476h10v476z" />
    <glyph glyph-name="ograve.sc" unicode="&#xf7f2;" horiz-adv-x="630" 
d="M405 560c55.333 0 95.833 -13 121.5 -39s38.5 -66.333 38.5 -121v-240c0 -54.667 -12.833 -95 -38.5 -121s-66.167 -39 -121.5 -39h-180c-55.333 0 -95.833 13 -121.5 39s-38.5 66.333 -38.5 121v240c0 54.667 12.833 95 38.5 121s66.167 39 121.5 39h180zM475 160v240
c0 28 -5 47.667 -15 59s-28.333 17 -55 17h-180c-26.667 0 -45 -5.66699 -55 -17s-15 -31 -15 -59v-240c0 -28 5 -47.667 15 -59s28.333 -17 55 -17h180c26.667 0 45 5.66699 55 17s15 31 15 59zM370 640h-65l-130 150h95z" />
    <glyph glyph-name="oacute.sc" unicode="&#xf7f3;" horiz-adv-x="630" 
d="M225 560h180c55.333 0 95.833 -13 121.5 -39s38.5 -66.333 38.5 -121v-240c0 -54.667 -12.833 -95 -38.5 -121s-66.167 -39 -121.5 -39h-180c-55.333 0 -95.833 13 -121.5 39s-38.5 66.333 -38.5 121v240c0 54.667 12.833 95 38.5 121s66.167 39 121.5 39zM155 160
c0 -28 5 -47.667 15 -59s28.333 -17 55 -17h180c26.667 0 45 5.66699 55 17s15 31 15 59v240c0 28 -5 47.667 -15 59s-28.333 17 -55 17h-180c-26.667 0 -45 -5.66699 -55 -17s-15 -31 -15 -59v-240zM260 640l100 150h95l-130 -150h-65z" />
    <glyph glyph-name="ocircumflex.sc" unicode="&#xf7f4;" horiz-adv-x="630" 
d="M405 560c55.333 0 95.833 -13 121.5 -39s38.5 -66.333 38.5 -121v-240c0 -54.667 -12.833 -95 -38.5 -121s-66.167 -39 -121.5 -39h-180c-55.333 0 -95.833 13 -121.5 39s-38.5 66.333 -38.5 121v240c0 54.667 12.833 95 38.5 121s66.167 39 121.5 39h180zM475 160v240
c0 28 -5 47.667 -15 59s-28.333 17 -55 17h-180c-26.667 0 -45 -5.66699 -55 -17s-15 -31 -15 -59v-240c0 -28 5 -47.667 15 -59s28.333 -17 55 -17h180c26.667 0 45 5.66699 55 17s15 31 15 59zM310 736l-73 -96h-75l114 150h78l114 -150h-76l-72 96h-10z" />
    <glyph glyph-name="otilde.sc" unicode="&#xf7f5;" horiz-adv-x="630" 
d="M250 667v-27h-60v27c0 30 5.83301 50.833 17.5 62.5s32.5 17.5 62.5 17.5h90c8 0 13.333 2 16 6s4 10.667 4 20v27h60v-27c0 -30 -5.83301 -50.833 -17.5 -62.5s-32.5 -17.5 -62.5 -17.5h-90c-8.66699 0 -14.167 -2 -16.5 -6s-3.5 -10.667 -3.5 -20zM405 560
c55.333 0 95.833 -13 121.5 -39s38.5 -66.333 38.5 -121v-240c0 -54.667 -12.833 -95 -38.5 -121s-66.167 -39 -121.5 -39h-180c-55.333 0 -95.833 13 -121.5 39s-38.5 66.333 -38.5 121v240c0 54.667 12.833 95 38.5 121s66.167 39 121.5 39h180zM475 160v240
c0 28 -5 47.667 -15 59s-28.333 17 -55 17h-180c-26.667 0 -45 -5.66699 -55 -17s-15 -31 -15 -59v-240c0 -28 5 -47.667 15 -59s28.333 -17 55 -17h180c26.667 0 45 5.66699 55 17s15 31 15 59z" />
    <glyph glyph-name="odieresis.sc" unicode="&#xf7f6;" horiz-adv-x="630" 
d="M405 560c55.333 0 95.833 -13 121.5 -39s38.5 -66.333 38.5 -121v-240c0 -54.667 -12.833 -95 -38.5 -121s-66.167 -39 -121.5 -39h-180c-55.333 0 -95.833 13 -121.5 39s-38.5 66.333 -38.5 121v240c0 54.667 12.833 95 38.5 121s66.167 39 121.5 39h180zM475 160v240
c0 28 -5 47.667 -15 59s-28.333 17 -55 17h-180c-26.667 0 -45 -5.66699 -55 -17s-15 -31 -15 -59v-240c0 -28 5 -47.667 15 -59s28.333 -17 55 -17h180c26.667 0 45 5.66699 55 17s15 31 15 59zM395 630c-15.333 0 -28.333 5.33301 -39 16s-16 23.667 -16 39
s5.33301 28.333 16 39s23.667 16 39 16s28.333 -5.33301 39 -16s16 -23.667 16 -39s-5.33301 -28.333 -16 -39s-23.667 -16 -39 -16zM235 630c-15.333 0 -28.333 5.33301 -39 16s-16 23.667 -16 39s5.33301 28.333 16 39s23.667 16 39 16s28.333 -5.33301 39 -16
s16 -23.667 16 -39s-5.33301 -28.333 -16 -39s-23.667 -16 -39 -16z" />
    <glyph glyph-name="oslash.sc" unicode="&#xf7f8;" horiz-adv-x="630" 
d="M405 560c55.333 0 95.833 -13 121.5 -39s38.5 -66.333 38.5 -121v-240c0 -54.667 -12.833 -95 -38.5 -121s-66.167 -39 -121.5 -39h-180c-55.333 0 -95.833 13 -121.5 39s-38.5 66.333 -38.5 121v240c0 54.667 12.833 95 38.5 121s66.167 39 121.5 39h180zM225 476
c-26.667 0 -45 -5.66699 -55 -17s-15 -31 -15 -59v-170l320 160v10c0 28 -5 47.667 -15 59s-28.333 17 -55 17h-180zM405 84c26.667 0 45 5.66699 55 17s15 31 15 59v170l-320 -160v-10c0 -28 5 -47.667 15 -59s28.333 -17 55 -17h180z" />
    <glyph glyph-name="ugrave.sc" unicode="&#xf7f9;" 
d="M480 560h90v-400c0 -54.667 -13 -95 -39 -121s-66.333 -39 -121 -39h-180c-54.667 0 -95 13 -121 39s-39 66.333 -39 121v400h90v-400c0 -28 5 -47.667 15 -59s28.333 -17 55 -17h180c26.667 0 45 5.66699 55 17s15 31 15 59v400zM375 640h-65l-130 150h95z" />
    <glyph glyph-name="uacute.sc" unicode="&#xf7fa;" 
d="M160 560v-400c0 -28 5 -47.667 15 -59s28.333 -17 55 -17h180c26.667 0 45 5.66699 55 17s15 31 15 59v400h90v-400c0 -54.667 -13 -95 -39 -121s-66.333 -39 -121 -39h-180c-54.667 0 -95 13 -121 39s-39 66.333 -39 121v400h90zM265 640l100 150h95l-130 -150h-65z" />
    <glyph glyph-name="ucircumflex.sc" unicode="&#xf7fb;" 
d="M480 560h90v-400c0 -54.667 -13 -95 -39 -121s-66.333 -39 -121 -39h-180c-54.667 0 -95 13 -121 39s-39 66.333 -39 121v400h90v-400c0 -28 5 -47.667 15 -59s28.333 -17 55 -17h180c26.667 0 45 5.66699 55 17s15 31 15 59v400zM315 736l-73 -96h-75l114 150h78
l114 -150h-76l-72 96h-10z" />
    <glyph glyph-name="udieresis.sc" unicode="&#xf7fc;" 
d="M480 560h90v-400c0 -54.667 -13 -95 -39 -121s-66.333 -39 -121 -39h-180c-54.667 0 -95 13 -121 39s-39 66.333 -39 121v400h90v-400c0 -28 5 -47.667 15 -59s28.333 -17 55 -17h180c26.667 0 45 5.66699 55 17s15 31 15 59v400zM400 630
c-14.667 0 -27.5 5.33301 -38.5 16s-16.5 23.667 -16.5 39s5.5 28.333 16.5 39s23.833 16 38.5 16s27.5 -5.33301 38.5 -16s16.5 -23.667 16.5 -39s-5.5 -28.333 -16.5 -39s-23.833 -16 -38.5 -16zM240 630c-14.667 0 -27.5 5.33301 -38.5 16s-16.5 23.667 -16.5 39
s5.5 28.333 16.5 39s23.833 16 38.5 16s27.5 -5.33301 38.5 -16s16.5 -23.667 16.5 -39s-5.5 -28.333 -16.5 -39s-23.833 -16 -38.5 -16z" />
    <glyph glyph-name="yacute.sc" unicode="&#xf7fd;" horiz-adv-x="584" 
d="M432 790l-130 -150h-65l100 150h95zM459 560h105l-227 -385v-175h-90v174l-227 386h104l163 -276h10z" />
    <glyph glyph-name="thorn.sc" unicode="&#xf7fe;" horiz-adv-x="620" 
d="M410 470c54.667 0 95 -13 121 -39s39 -66.333 39 -121v-60c0 -54.667 -13 -95 -39 -121s-66.333 -39 -121 -39h-250v-90h-90v560h90v-90h250zM480 250v60c0 28 -5 47.667 -15 59s-28.333 17 -55 17h-250v-212h250c26.667 0 45 5.66699 55 17s15 31 15 59z" />
    <glyph glyph-name="ydieresis.sc" unicode="&#xf7ff;" horiz-adv-x="584" 
d="M459 560h105l-227 -385v-175h-90v174l-227 386h104l163 -276h10zM372 630c-14.667 0 -27.5 5.33301 -38.5 16s-16.5 23.667 -16.5 39s5.5 28.333 16.5 39s23.833 16 38.5 16s27.5 -5.33301 38.5 -16s16.5 -23.667 16.5 -39s-5.5 -28.333 -16.5 -39s-23.833 -16 -38.5 -16
zM212 630c-14.667 0 -27.5 5.33301 -38.5 16s-16.5 23.667 -16.5 39s5.5 28.333 16.5 39s23.833 16 38.5 16s27.5 -5.33301 38.5 -16s16.5 -23.667 16.5 -39s-5.5 -28.333 -16.5 -39s-23.833 -16 -38.5 -16z" />
    <glyph glyph-name="Lslash.salt" unicode="&#xf800;" horiz-adv-x="700" 
d="M300 84h380v-84h-380c-54.667 0 -95 13 -121 39s-39 66.333 -39 121v107l-120 -60v61l120 60v392h90v-347l240 120v-61l-240 -120v-152c0 -28 5 -47.667 15 -59s28.333 -17 55 -17z" />
    <glyph glyph-name="four.salt" unicode="&#xf801;" horiz-adv-x="665" 
d="M505 720h90v-720h-90v220h-290c-55.333 0 -95.833 13 -121.5 39s-38.5 66.333 -38.5 121v340h90v-340c0 -28 5 -47.667 15 -59s28.333 -17 55 -17h290v416z" />
    <glyph glyph-name="seven.salt" unicode="&#xf802;" horiz-adv-x="590" 
d="M360 636h-340v84h340c54.667 0 95 -13 121 -39s39 -66.333 39 -121v-560h-90v560c0 28 -5 47.667 -15 59s-28.333 17 -55 17z" />
    <glyph glyph-name="A.salt" unicode="&#xf803;" horiz-adv-x="720" 
d="M490 720c54.667 0 95 -13 121 -39s39 -66.333 39 -121v-560h-90v258h-400v-258h-90v560c0 54.667 13 95 39 121s66.333 39 121 39h260zM160 342h400v218c0 28 -5 47.667 -15 59s-28.333 17 -55 17h-260c-26.667 0 -45 -5.66699 -55 -17s-15 -31 -15 -59v-218z" />
    <glyph glyph-name="E.salt" unicode="&#xf804;" horiz-adv-x="660" 
d="M225 636c-26.667 0 -45 -5.66699 -55 -17s-15 -31 -15 -59v-158h440v-84h-440v-158c0 -28 5 -47.667 15 -59s28.333 -17 55 -17h380v-84h-380c-55.333 0 -95.833 13 -121.5 39s-38.5 66.333 -38.5 121v400c0 54.667 12.833 95 38.5 121s66.167 39 121.5 39h380v-84h-380z
" />
    <glyph glyph-name="F.salt" unicode="&#xf805;" horiz-adv-x="655" 
d="M160 0h-90v560c0 54.667 13 95 39 121s66.333 39 121 39h380v-84h-380c-26.667 0 -45 -5.66699 -55 -17s-15 -31 -15 -59v-158h440v-84h-440v-318z" />
    <glyph glyph-name="J.salt" unicode="&#xf806;" horiz-adv-x="630" 
d="M400 84c26.667 0 45 5.66699 55 17s15 31 15 59v560h90v-560c0 -54.667 -13 -95 -39 -121s-66.333 -39 -121 -39h-380v84h380z" />
    <glyph glyph-name="K.salt" unicode="&#xf807;" horiz-adv-x="720" 
d="M650 475c0 -19.333 -2.33301 -36.5 -7 -51.5s-10.5 -26 -17.5 -33s-14 -12.667 -21 -17s-12.833 -6.83301 -17.5 -7.5l-7 -1v-10c2 0 4.5 -0.333008 7.5 -1s8.5 -3.16699 16.5 -7.5s15.167 -10 21.5 -17s12 -18 17 -33s7.5 -32.167 7.5 -51.5v-245h-90v245
c0 28 -4.83301 47.167 -14.5 57.5s-28.167 15.5 -55.5 15.5h-330v-318h-90v720h90v-318h330c27.333 0 45.833 5.16699 55.5 15.5s14.5 29.5 14.5 57.5v245h90v-245z" />
    <glyph glyph-name="L.salt" unicode="&#xf808;" horiz-adv-x="630" 
d="M230 84h380v-84h-380c-54.667 0 -95 13 -121 39s-39 66.333 -39 121v560h90v-560c0 -28 5 -47.667 15 -59s28.333 -17 55 -17z" />
    <glyph glyph-name="M.salt" unicode="&#xf809;" horiz-adv-x="1050" 
d="M820 720c54.667 0 95 -13 121 -39s39 -66.333 39 -121v-560h-90v560c0 28 -5 47.667 -15 59s-28.333 17 -55 17h-180c-26.667 0 -45 -5.66699 -55 -17s-15 -31 -15 -59v-560h-90v560c0 28 -5 47.667 -15 59s-28.333 17 -55 17h-180c-26.667 0 -45 -5.66699 -55 -17
s-15 -31 -15 -59v-560h-90v560c0 54.667 13 95 39 121s66.333 39 121 39h180c19.333 0 36.5 -2.33301 51.5 -7s26 -10.5 33 -17.5s12.667 -14 17 -21s6.83301 -12.833 7.5 -17.5l1 -7h10c0 2 0.333008 4.5 1 7.5s3.16699 8.5 7.5 16.5s10 15.167 17 21.5s18 12 33 17
s32.167 7.5 51.5 7.5h180z" />
    <glyph glyph-name="N.salt" unicode="&#xf810;" horiz-adv-x="720" 
d="M560 0v560c0 28 -5 47.667 -15 59s-28.333 17 -55 17h-260c-26.667 0 -45 -5.66699 -55 -17s-15 -31 -15 -59v-560h-90v560c0 54.667 13 95 39 121s66.333 39 121 39h260c54.667 0 95 -13 121 -39s39 -66.333 39 -121v-560h-90z" />
    <glyph glyph-name="R.salt" unicode="&#xf811;" horiz-adv-x="720" 
d="M490 720c54.667 0 95 -13 121 -39s39 -66.333 39 -121v-143c0 -19.333 -2.33301 -36.5 -7 -51.5s-10.5 -26 -17.5 -33s-14 -12.667 -21 -17s-12.833 -6.83301 -17.5 -7.5l-7 -1v-10c2 0 4.5 -0.333008 7.5 -1s8.5 -3.16699 16.5 -7.5s15.167 -10 21.5 -17s12 -18 17 -33
s7.5 -32.167 7.5 -51.5v-187h-90v187c0 28 -4.83301 47.167 -14.5 57.5s-28.167 15.5 -55.5 15.5h-330v-260h-90v720h420zM560 417v143c0 28 -5 47.667 -15 59s-28.333 17 -55 17h-330v-292h330c27.333 0 45.833 5.16699 55.5 15.5s14.5 29.5 14.5 57.5z" />
    <glyph glyph-name="W.salt" unicode="&#xf812;" horiz-adv-x="1050" 
d="M820 0h-180c-19.333 -0 -36.5 2.33301 -51.5 7s-26 10.5 -33 17.5s-12.667 14 -17 21s-6.83301 12.833 -7.5 17.5l-1 7h-10c0 -2 -0.333008 -4.5 -1 -7.5s-3.16699 -8.5 -7.5 -16.5s-10 -15.167 -17 -21.5s-18 -12 -33 -17s-32.167 -7.5 -51.5 -7.5h-180
c-54.667 0 -95 13 -121 39s-39 66.333 -39 121v560h90v-560c0 -28 5 -47.667 15 -59s28.333 -17 55 -17h180c26.667 0 45 5.66699 55 17s15 31 15 59v560h90v-560c0 -28 5 -47.667 15 -59s28.333 -17 55 -17h180c26.667 0 45 5.66699 55 17s15 31 15 59v560h90v-560
c0 -54.667 -13 -95 -39 -121s-66.333 -39 -121 -39z" />
    <glyph glyph-name="X.salt" unicode="&#xf813;" horiz-adv-x="720" 
d="M650 475c0 -19.333 -2.33301 -36.5 -7 -51.5s-10.5 -26 -17.5 -33s-14 -12.667 -21 -17s-12.833 -6.83301 -17.5 -7.5l-7 -1v-10c2 0 4.5 -0.333008 7.5 -1s8.5 -3.16699 16.5 -7.5s15.167 -10 21.5 -17s12 -18 17 -33s7.5 -32.167 7.5 -51.5v-245h-90v245
c0 28 -4.83301 47.167 -14.5 57.5s-28.167 15.5 -55.5 15.5h-260c-27.333 0 -45.833 -5.16699 -55.5 -15.5s-14.5 -29.5 -14.5 -57.5v-245h-90v245c0 19.333 2.33301 36.5 7 51.5s10.5 26 17.5 33s14 12.667 21 17s12.833 6.83301 17.5 7.5l7 1v10
c-2 0 -4.5 0.333008 -7.5 1s-8.5 3.16699 -16.5 7.5s-15.167 10 -21.5 17s-12 18 -17 33s-7.5 32.167 -7.5 51.5v245h90v-245c0 -28 4.83301 -47.167 14.5 -57.5s28.167 -15.5 55.5 -15.5h260c27.333 0 45.833 5.16699 55.5 15.5s14.5 29.5 14.5 57.5v245h90v-245z" />
    <glyph glyph-name="Y.salt" unicode="&#xf814;" horiz-adv-x="690" 
d="M545 720h90v-300c0 -54.667 -12.833 -95 -38.5 -121s-66.167 -39 -121.5 -39h-85v-260h-90v260h-85c-55.333 0 -95.833 13 -121.5 39s-38.5 66.333 -38.5 121v300h90v-300c0 -28 5 -47.667 15 -59s28.333 -17 55 -17h260c26.667 0 45 5.66699 55 17s15 31 15 59v300z" />
    <glyph glyph-name="g.salt" unicode="&#xf815;" horiz-adv-x="635" 
d="M405 560c55.333 0 95.833 -13 121.5 -39s38.5 -66.333 38.5 -121v-460c0 -50 -10.833 -85.833 -32.5 -107.5s-57.5 -32.5 -107.5 -32.5h-200v84h200c19.333 0 32.5 4.16699 39.5 12.5s10.5 22.833 10.5 43.5v60h-250c-55.333 0 -95.833 13 -121.5 39
s-38.5 66.333 -38.5 121v240c0 54.667 12.833 95 38.5 121s66.167 39 121.5 39h180zM475 84v316c0 28 -5 47.667 -15 59s-28.333 17 -55 17h-180c-26.667 0 -45 -5.66699 -55 -17s-15 -31 -15 -59v-240c0 -28 5 -47.667 15 -59s28.333 -17 55 -17h250z" />
    <glyph glyph-name="k.salt" unicode="&#xf816;" 
d="M570 395c0 -19.333 -2.33301 -36.5 -7 -51.5s-10.5 -26 -17.5 -33s-14 -12.667 -21 -17s-12.833 -6.83301 -17.5 -7.5l-7 -1v-10c2 0 4.5 -0.333008 7.5 -1s8.5 -3.16699 16.5 -7.5s15.167 -10 21.5 -17s12 -18 17 -33s7.5 -32.167 7.5 -51.5v-165h-90v165
c0 28 -4.83301 47.167 -14.5 57.5s-28.167 15.5 -55.5 15.5h-250v-238h-90v760h90v-438h250c27.333 0 45.833 5.16699 55.5 15.5s14.5 29.5 14.5 57.5v165h90v-165z" />
    <glyph glyph-name="w.salt" unicode="&#xf817;" horiz-adv-x="930" 
d="M700 0h-120c-19.333 -0 -36.5 2.33301 -51.5 7s-26 10.5 -33 17.5s-12.667 14 -17 21s-6.83301 12.833 -7.5 17.5l-1 7h-10c0 -2 -0.333008 -4.5 -1 -7.5s-3.16699 -8.5 -7.5 -16.5s-10 -15.167 -17 -21.5s-18 -12 -33 -17s-32.167 -7.5 -51.5 -7.5h-120
c-54.667 0 -95 13 -121 39s-39 66.333 -39 121v400h90v-400c0 -28 5 -47.667 15 -59s28.333 -17 55 -17h120c26.667 0 45 5.66699 55 17s15 31 15 59v400h90v-400c0 -28 5 -47.667 15 -59s28.333 -17 55 -17h120c26.667 0 45 5.66699 55 17s15 31 15 59v400h90v-400
c0 -54.667 -13 -95 -39 -121s-66.333 -39 -121 -39z" />
    <glyph glyph-name="x.salt" unicode="&#xf818;" 
d="M570 395c0 -19.333 -2.33301 -36.5 -7 -51.5s-10.5 -26 -17.5 -33s-14 -12.667 -21 -17s-12.833 -6.83301 -17.5 -7.5l-7 -1v-10c2 0 4.5 -0.333008 7.5 -1s8.5 -3.16699 16.5 -7.5s15.167 -10 21.5 -17s12 -18 17 -33s7.5 -32.167 7.5 -51.5v-165h-90v165
c0 28 -4.83301 47.167 -14.5 57.5s-28.167 15.5 -55.5 15.5h-180c-27.333 0 -45.833 -5.16699 -55.5 -15.5s-14.5 -29.5 -14.5 -57.5v-165h-90v165c0 19.333 2.33301 36.5 7 51.5s10.5 26 17.5 33s14 12.667 21 17s12.833 6.83301 17.5 7.5l7 1v10
c-2 0 -4.5 0.333008 -7.5 1s-8.5 3.16699 -16.5 7.5s-15.167 10 -21.5 17s-12 18 -17 33s-7.5 32.167 -7.5 51.5v165h90v-165c0 -28 4.83301 -47.167 14.5 -57.5s28.167 -15.5 55.5 -15.5h180c27.333 0 45.833 5.16699 55.5 15.5s14.5 29.5 14.5 57.5v165h90v-165z" />
    <glyph glyph-name="y.salt" unicode="&#xf819;" 
d="M480 560h90v-620c0 -50 -10.833 -85.833 -32.5 -107.5s-57.5 -32.5 -107.5 -32.5h-200v84h200c19.333 0 32.5 4.16699 39.5 12.5s10.5 22.833 10.5 43.5v60h-250c-54.667 0 -95 13 -121 39s-39 66.333 -39 121v400h90v-400c0 -28 5 -47.667 15 -59s28.333 -17 55 -17h250
v476z" />
    <glyph glyph-name="OE.salt" unicode="&#xf820;" horiz-adv-x="1150" 
d="M715 636c-26.667 0 -45 -5.66699 -55 -17s-15 -31 -15 -59v-158h440v-84h-440v-158c0 -28 5 -47.667 15 -59s28.333 -17 55 -17h380v-84h-380c-19.333 -0 -36.5 2.33301 -51.5 7s-26 10.5 -33 17.5s-12.667 14 -17 21s-6.83301 12.833 -7.5 17.5l-1 7h-10
c0 -2 -0.333008 -4.5 -1 -7.5s-3.16699 -8.5 -7.5 -16.5s-10 -15.167 -17 -21.5s-18 -12 -33 -17s-32.167 -7.5 -51.5 -7.5h-260c-55.333 0 -95.833 13 -121.5 39s-38.5 66.333 -38.5 121v400c0 54.667 12.833 95 38.5 121s66.167 39 121.5 39h260
c19.333 0 36.5 -2.33301 51.5 -7s26 -10.5 33 -17.5s12.667 -14 17 -21s6.83301 -12.833 7.5 -17.5l1 -7h10c0 2 0.333008 4.5 1 7.5s3.16699 8.5 7.5 16.5s10 15.167 17 21.5s18 12 33 17s32.167 7.5 51.5 7.5h380v-84h-380zM555 160v400c0 28 -5 47.667 -15 59
s-28.333 17 -55 17h-260c-26.667 0 -45 -5.66699 -55 -17s-15 -31 -15 -59v-400c0 -28 5 -47.667 15 -59s28.333 -17 55 -17h260c26.667 0 45 5.66699 55 17s15 31 15 59z" />
    <glyph glyph-name="trademark.salt" unicode="&#xf821;" horiz-adv-x="1000" 
d="M810 720c45.333 0 76.6689 -8.66602 94.002 -25.999s26 -48.666 26 -93.999v-240h-60v240c0 26.667 -3.66699 44.334 -11 53.001s-23.666 13 -48.999 13h-55c-24.667 0 -40.834 -4.33301 -48.501 -13s-11.5 -26.334 -11.5 -53.001v-240h-60v240
c0 26.667 -3.83301 44.334 -11.5 53.001s-23.834 13 -48.501 13h-55c-26 0 -42.5 -4.33301 -49.5 -13s-10.5 -26.334 -10.5 -53.001v-240h-60v240c0 45.333 8.66699 76.666 26 93.999s48.666 26 93.999 26h55c24 0 43 -4.16699 57 -12.5s22 -16.833 24 -25.5l4 -12h10
c0 1.33301 0.333008 3.16602 1 5.49902s2.66699 6.33301 6 12s7.83301 10.667 13.5 15s14.167 8.33301 25.5 12s24.333 5.5 39 5.5h55zM20.0029 666.001v54h320v-54h-130v-306h-60v306h-130z" />
    <glyph glyph-name="Ydieresis.salt" unicode="&#xf822;" horiz-adv-x="690" 
d="M545 720h90v-300c0 -54.667 -12.833 -95 -38.5 -121s-66.167 -39 -121.5 -39h-85v-260h-90v260h-85c-55.333 0 -95.833 13 -121.5 39s-38.5 66.333 -38.5 121v300h90v-300c0 -28 5 -47.667 15 -59s28.333 -17 55 -17h260c26.667 0 45 5.66699 55 17s15 31 15 59v300z
M425 790c-15.333 0 -28.333 5.33301 -39 16s-16 23.667 -16 39s5.33301 28.333 16 39s23.667 16 39 16s28.333 -5.33301 39 -16s16 -23.667 16 -39s-5.33301 -28.333 -16 -39s-23.667 -16 -39 -16zM265 790c-15.333 0 -28.333 5.33301 -39 16s-16 23.667 -16 39
s5.33301 28.333 16 39s23.667 16 39 16s28.333 -5.33301 39 -16s16 -23.667 16 -39s-5.33301 -28.333 -16 -39s-23.667 -16 -39 -16z" />
    <glyph glyph-name="yen.salt" unicode="&#xf823;" horiz-adv-x="690" 
d="M545 720h90v-300c0 -54.667 -12.833 -95 -38.5 -121s-66.167 -39 -121.5 -39h-85v-86h125v-54h-125v-120h-90v120h-125v54h125v86h-85c-55.333 0 -95.833 13 -121.5 39s-38.5 66.333 -38.5 121v300h90v-300c0 -28 5 -47.667 15 -59s28.333 -17 55 -17h260
c26.667 0 45 5.66699 55 17s15 31 15 59v300z" />
    <glyph glyph-name="registered.salt" unicode="&#xf824;" horiz-adv-x="800" 
d="M400 700c94 0 174.167 -33.167 240.5 -99.5s99.5 -146.5 99.5 -240.5s-33.167 -174.167 -99.5 -240.5s-146.5 -99.5 -240.5 -99.5s-174.167 33.167 -240.5 99.5s-99.5 146.5 -99.5 240.5s33.167 174.167 99.5 240.5s146.5 99.5 240.5 99.5zM400 80
c77.333 0 143.333 27.333 198 82s82 120.667 82 198s-27.333 143.333 -82 198s-120.667 82 -198 82s-143.333 -27.333 -198 -82s-82 -120.667 -82 -198s27.333 -143.333 82 -198s120.667 -82 198 -82zM440 540c44.667 0 75.834 -8.33203 93.501 -24.999s26.5 -45 26.5 -85
v-33c0 -18 -4.16699 -32.333 -12.5 -43s-16.833 -17 -25.5 -19l-12 -3v-10c1.33301 0 3.16602 -0.333008 5.49902 -1s6.33301 -2.33398 12 -5.00098s10.667 -6 15 -10s8.33301 -10.333 12 -19s5.5 -18.667 5.5 -30v-77h-60v77c0 14 -4 24.667 -12 32s-24 11 -48 11h-130
v-120h-60v360h190zM500 397.001l-0.000976562 33c0 22 -3.66699 36.833 -11 44.5s-23.666 11.5 -48.999 11.5h-130v-132h130c24 0 40 3.66699 48 11s12 18 12 32z" />
    <glyph glyph-name="onequarter.salt" unicode="&#xf825;" horiz-adv-x="750" 
d="M620 360h59.999v-360h-60v110h-130c-45.333 0 -76.666 8.66699 -93.999 26s-26 48.666 -26 93.999v130h60v-130c0 -27.333 3.5 -45.166 10.5 -53.499s23.5 -12.5 49.5 -12.5h130v196zM109.999 360v306h-80v54h140v-360h-60zM425.999 720h67l-360 -720h-67z" />
    <glyph glyph-name="threequarters.salt" unicode="&#xf826;" horiz-adv-x="910" 
d="M370 470c0 -40 -8.83203 -68.3301 -26.499 -84.9971s-48.834 -25 -93.501 -25h-70c-45.333 0 -76.666 8.66699 -93.999 26s-26 48.666 -26 93.999v10h60v-10c0 -27.333 3.5 -45.166 10.5 -53.499s23.5 -12.5 49.5 -12.5h70c25.333 0 41.666 3.83301 48.999 11.5
s11 22.5 11 44.5c0 14 -4 24.667 -12 32s-24 11 -48 11h-90v54h90c24 0 40 3.66699 48 11s12 18 12 32c0 22 -3.66699 36.833 -11 44.5s-23.666 11.5 -48.999 11.5h-70c-26 0 -42.5 -4.33301 -49.5 -13s-10.5 -26.334 -10.5 -53.001v-10h-60v10
c0 45.333 8.66699 76.666 26 93.999s48.666 26 93.999 26h70c44.667 0 75.834 -8.33301 93.501 -25s26.5 -45 26.5 -85c0 -18 -4.16699 -32.333 -12.5 -43s-16.833 -17 -25.5 -19l-12 -3v-10c1.33301 0 3.16602 -0.333008 5.49902 -1s6.33301 -2.33398 12 -5.00098
s10.667 -6 15 -10s8.33301 -10.333 12 -19s5.5 -18.667 5.5 -30zM780.001 360.003h59.999v-360h-60v110h-130c-45.333 0 -76.666 8.66699 -93.999 26s-26 48.666 -26 93.999v130h60v-130c0 -27.333 3.5 -45.166 10.5 -53.499s23.5 -12.5 49.5 -12.5h130v196zM586 720.003h67
l-360 -720h-67z" />
    <glyph glyph-name="Agrave.salt" unicode="&#xf827;" horiz-adv-x="720" 
d="M490 720c54.667 0 95 -13 121 -39s39 -66.333 39 -121v-560h-90v258h-400v-258h-90v560c0 54.667 13 95 39 121s66.333 39 121 39h260zM560 342v218c0 28 -5 47.667 -15 59s-28.333 17 -55 17h-260c-26.667 0 -45 -5.66699 -55 -17s-15 -31 -15 -59v-218h400zM415 800
h-65l-130 150h95z" />
    <glyph glyph-name="Aacute.salt" unicode="&#xf828;" horiz-adv-x="720" 
d="M230 720h260c54.667 0 95 -13 121 -39s39 -66.333 39 -121v-560h-90v258h-400v-258h-90v560c0 54.667 13 95 39 121s66.333 39 121 39zM160 342h400v218c0 28 -5 47.667 -15 59s-28.333 17 -55 17h-260c-26.667 0 -45 -5.66699 -55 -17s-15 -31 -15 -59v-218zM305 800
l100 150h95l-130 -150h-65z" />
    <glyph glyph-name="Acircumflex.salt" unicode="&#xf829;" horiz-adv-x="720" 
d="M490 720c54.667 0 95 -13 121 -39s39 -66.333 39 -121v-560h-90v258h-400v-258h-90v560c0 54.667 13 95 39 121s66.333 39 121 39h260zM560 342v218c0 28 -5 47.667 -15 59s-28.333 17 -55 17h-260c-26.667 0 -45 -5.66699 -55 -17s-15 -31 -15 -59v-218h400zM355 896
l-73 -96h-75l114 150h78l114 -150h-76l-72 96h-10z" />
    <glyph glyph-name="Atilde.salt" unicode="&#xf830;" horiz-adv-x="720" 
d="M490 720c54.667 0 95 -13 121 -39s39 -66.333 39 -121v-560h-90v258h-400v-258h-90v560c0 54.667 13 95 39 121s66.333 39 121 39h260zM560 342v218c0 28 -5 47.667 -15 59s-28.333 17 -55 17h-260c-26.667 0 -45 -5.66699 -55 -17s-15 -31 -15 -59v-218h400zM295 827
v-27h-60v27c0 30 5.83301 50.833 17.5 62.5s32.5 17.5 62.5 17.5h90c8 0 13.333 2 16 6s4 10.667 4 20v27h60v-27c0 -30 -5.83301 -50.833 -17.5 -62.5s-32.5 -17.5 -62.5 -17.5h-90c-8.66699 0 -14.167 -2 -16.5 -6s-3.5 -10.667 -3.5 -20z" />
    <glyph glyph-name="Adieresis.salt" unicode="&#xf831;" horiz-adv-x="720" 
d="M490 720c54.667 0 95 -13 121 -39s39 -66.333 39 -121v-560h-90v258h-400v-258h-90v560c0 54.667 13 95 39 121s66.333 39 121 39h260zM560 342v218c0 28 -5 47.667 -15 59s-28.333 17 -55 17h-260c-26.667 0 -45 -5.66699 -55 -17s-15 -31 -15 -59v-218h400zM440 790
c-14.667 0 -27.5 5.33301 -38.5 16s-16.5 23.667 -16.5 39s5.5 28.333 16.5 39s23.833 16 38.5 16s27.5 -5.33301 38.5 -16s16.5 -23.667 16.5 -39s-5.5 -28.333 -16.5 -39s-23.833 -16 -38.5 -16zM280 790c-14.667 0 -27.5 5.33301 -38.5 16s-16.5 23.667 -16.5 39
s5.5 28.333 16.5 39s23.833 16 38.5 16s27.5 -5.33301 38.5 -16s16.5 -23.667 16.5 -39s-5.5 -28.333 -16.5 -39s-23.833 -16 -38.5 -16z" />
    <glyph glyph-name="Aring.salt" unicode="&#xf832;" horiz-adv-x="720" 
d="M490 720c54.667 0 95 -13 121 -39s39 -66.333 39 -121v-560h-90v258h-400v-258h-90v560c0 54.667 13 95 39 121s66.333 39 121 39h260zM560 342v218c0 28 -5 47.667 -15 59s-28.333 17 -55 17h-260c-26.667 0 -45 -5.66699 -55 -17s-15 -31 -15 -59v-218h400zM360 790
c-26.667 0 -49.167 9.16699 -67.5 27.5s-27.5 40.833 -27.5 67.5c0 26 9.16699 48.333 27.5 67s40.833 28 67.5 28c26 0 48.333 -9.33301 67 -28s28 -41 28 -67c0 -26.667 -9.33301 -49.167 -28 -67.5s-41 -27.5 -67 -27.5zM360 925c-10.667 0 -20 -3.83301 -28 -11.5
s-12 -17.167 -12 -28.5s4 -20.833 12 -28.5s17.333 -11.5 28 -11.5s20 3.83301 28 11.5s12 17.167 12 28.5s-4 20.833 -12 28.5s-17.333 11.5 -28 11.5z" />
    <glyph glyph-name="AE.salt" unicode="&#xf833;" horiz-adv-x="1155" 
d="M720 636c-26.667 0 -45 -5.66699 -55 -17s-15 -31 -15 -59v-158h440v-84h-440v-158c0 -28 5 -47.667 15 -59s28.333 -17 55 -17h380v-84h-380c-54.667 0 -95 13 -121 39s-39 66.333 -39 121v98h-400v-258h-90v560c0 54.667 13 95 39 121s66.333 39 121 39h260
c19.333 0 36.5 -2.33301 51.5 -7s26 -10.5 33 -17.5s12.667 -14 17 -21s6.83301 -12.833 7.5 -17.5l1 -7h10c0 2 0.333008 4.5 1 7.5s3.16699 8.5 7.5 16.5s10 15.167 17 21.5s18 12 33 17s32.167 7.5 51.5 7.5h380v-84h-380zM160 342h400v218c0 28 -5 47.667 -15 59
s-28.333 17 -55 17h-260c-26.667 0 -45 -5.66699 -55 -17s-15 -31 -15 -59v-218z" />
    <glyph glyph-name="Egrave.salt" unicode="&#xf834;" horiz-adv-x="660" 
d="M225 636c-26.667 0 -45 -5.66699 -55 -17s-15 -31 -15 -59v-158h440v-84h-440v-158c0 -28 5 -47.667 15 -59s28.333 -17 55 -17h380v-84h-380c-55.333 0 -95.833 13 -121.5 39s-38.5 66.333 -38.5 121v400c0 54.667 12.833 95 38.5 121s66.167 39 121.5 39h380v-84h-380z
M390 800h-65l-130 150h95z" />
    <glyph glyph-name="Eacute.salt" unicode="&#xf835;" horiz-adv-x="660" 
d="M225 636c-26.667 0 -45 -5.66699 -55 -17s-15 -31 -15 -59v-158h440v-84h-440v-158c0 -28 5 -47.667 15 -59s28.333 -17 55 -17h380v-84h-380c-55.333 0 -95.833 13 -121.5 39s-38.5 66.333 -38.5 121v400c0 54.667 12.833 95 38.5 121s66.167 39 121.5 39h380v-84h-380z
M475 950l-130 -150h-65l100 150h95z" />
    <glyph glyph-name="Ecircumflex.salt" unicode="&#xf836;" horiz-adv-x="660" 
d="M225 636c-26.667 0 -45 -5.66699 -55 -17s-15 -31 -15 -59v-158h440v-84h-440v-158c0 -28 5 -47.667 15 -59s28.333 -17 55 -17h380v-84h-380c-55.333 0 -95.833 13 -121.5 39s-38.5 66.333 -38.5 121v400c0 54.667 12.833 95 38.5 121s66.167 39 121.5 39h380v-84h-380z
M330 896l-73 -96h-75l114 150h78l114 -150h-76l-72 96h-10z" />
    <glyph glyph-name="Edieresis.salt" unicode="&#xf837;" horiz-adv-x="660" 
d="M225 636c-26.667 0 -45 -5.66699 -55 -17s-15 -31 -15 -59v-158h440v-84h-440v-158c0 -28 5 -47.667 15 -59s28.333 -17 55 -17h380v-84h-380c-55.333 0 -95.833 13 -121.5 39s-38.5 66.333 -38.5 121v400c0 54.667 12.833 95 38.5 121s66.167 39 121.5 39h380v-84h-380z
M415 790c-15.333 0 -28.333 5.33301 -39 16s-16 23.667 -16 39s5.33301 28.333 16 39s23.667 16 39 16s28.333 -5.33301 39 -16s16 -23.667 16 -39s-5.33301 -28.333 -16 -39s-23.667 -16 -39 -16zM255 790c-15.333 0 -28.333 5.33301 -39 16s-16 23.667 -16 39
s5.33301 28.333 16 39s23.667 16 39 16s28.333 -5.33301 39 -16s16 -23.667 16 -39s-5.33301 -28.333 -16 -39s-23.667 -16 -39 -16z" />
    <glyph glyph-name="Ntilde.salt" unicode="&#xf838;" horiz-adv-x="720" 
d="M490 720c54.667 0 95 -13 121 -39s39 -66.333 39 -121v-560h-90v560c0 28 -5 47.667 -15 59s-28.333 17 -55 17h-260c-26.667 0 -45 -5.66699 -55 -17s-15 -31 -15 -59v-560h-90v560c0 54.667 13 95 39 121s66.333 39 121 39h260zM295 827v-27h-60v27
c0 30 5.83301 50.833 17.5 62.5s32.5 17.5 62.5 17.5h90c8 0 13.333 2 16 6s4 10.667 4 20v27h60v-27c0 -30 -5.83301 -50.833 -17.5 -62.5s-32.5 -17.5 -62.5 -17.5h-90c-8.66699 0 -14.167 -2 -16.5 -6s-3.5 -10.667 -3.5 -20z" />
    <glyph glyph-name="Yacute.salt" unicode="&#xf839;" horiz-adv-x="690" 
d="M485 950l-130 -150h-65l100 150h95zM545 720h90v-300c0 -54.667 -12.833 -95 -38.5 -121s-66.167 -39 -121.5 -39h-85v-260h-90v260h-85c-55.333 0 -95.833 13 -121.5 39s-38.5 66.333 -38.5 121v300h90v-300c0 -28 5 -47.667 15 -59s28.333 -17 55 -17h260
c26.667 0 45 5.66699 55 17s15 31 15 59v300z" />
    <glyph glyph-name="yacute.salt" unicode="&#xf840;" 
d="M480 560h90v-620c0 -50 -10.833 -85.833 -32.5 -107.5s-57.5 -32.5 -107.5 -32.5h-200v84h200c19.333 0 32.5 4.16699 39.5 12.5s10.5 22.833 10.5 43.5v60h-250c-54.667 0 -95 13 -121 39s-39 66.333 -39 121v400h90v-400c0 -28 5 -47.667 15 -59s28.333 -17 55 -17h250
v476zM460 790l-130 -150h-65l100 150h95z" />
    <glyph glyph-name="ydieresis.salt" unicode="&#xf841;" 
d="M480 560h90v-620c0 -50 -10.833 -85.833 -32.5 -107.5s-57.5 -32.5 -107.5 -32.5h-200v84h200c19.333 0 32.5 4.16699 39.5 12.5s10.5 22.833 10.5 43.5v60h-250c-54.667 0 -95 13 -121 39s-39 66.333 -39 121v400h90v-400c0 -28 5 -47.667 15 -59s28.333 -17 55 -17h250
v476zM240 630c-14.667 0 -27.5 5.33301 -38.5 16s-16.5 23.667 -16.5 39s5.5 28.333 16.5 39s23.833 16 38.5 16s27.5 -5.33301 38.5 -16s16.5 -23.667 16.5 -39s-5.5 -28.333 -16.5 -39s-23.833 -16 -38.5 -16zM400 630c-14.667 0 -27.5 5.33301 -38.5 16
s-16.5 23.667 -16.5 39s5.5 28.333 16.5 39s23.833 16 38.5 16s27.5 -5.33301 38.5 -16s16.5 -23.667 16.5 -39s-5.5 -28.333 -16.5 -39s-23.833 -16 -38.5 -16z" />
    <glyph glyph-name="lslashsc.salt" unicode="&#xf842;" horiz-adv-x="620" 
d="M230 160c0 -28 5 -47.667 15 -59s28.333 -17 55 -17h300v-84h-300c-54.667 0 -95 13 -121 39s-39 66.333 -39 121v27l-120 -60v61l120 60v312h90v-267l170 85v-61l-170 -85v-72z" />
    <glyph glyph-name="oesc.salt" unicode="&#xf843;" horiz-adv-x="990" 
d="M635 476c-26.667 0 -45 -5.66699 -55 -17s-15 -31 -15 -59v-78h360v-84h-360v-78c0 -28 5 -47.667 15 -59s28.333 -17 55 -17h300v-84h-300c-19.333 -0 -36.5 2.33301 -51.5 7s-26 10.5 -33 17.5s-12.667 14 -17 21s-6.83301 12.833 -7.5 17.5l-1 7h-10
c0 -2 -0.333008 -4.5 -1 -7.5s-3.16699 -8.5 -7.5 -16.5s-10 -15.167 -17 -21.5s-18 -12 -33 -17s-32.167 -7.5 -51.5 -7.5h-180c-55.333 0 -95.833 13 -121.5 39s-38.5 66.333 -38.5 121v240c0 54.667 12.833 95 38.5 121s66.167 39 121.5 39h180
c19.333 0 36.5 -2.33301 51.5 -7s26 -10.5 33 -17.5s12.667 -14 17 -21s6.83301 -12.833 7.5 -17.5l1 -7h10c0 2 0.333008 4.5 1 7.5s3.16699 8.5 7.5 16.5s10 15.167 17 21.5s18 12 33 17s32.167 7.5 51.5 7.5h300v-84h-300zM475 160v240c0 28 -5 47.667 -15 59
s-28.333 17 -55 17h-180c-26.667 0 -45 -5.66699 -55 -17s-15 -31 -15 -59v-240c0 -28 5 -47.667 15 -59s28.333 -17 55 -17h180c26.667 0 45 5.66699 55 17s15 31 15 59z" />
    <glyph glyph-name="asc.salt" unicode="&#xf844;" 
d="M410 560c54.667 0 95 -13 121 -39s39 -66.333 39 -121v-400h-90v178h-320v-178h-90v400c0 54.667 13 95 39 121s66.333 39 121 39h180zM160 262h320v138c0 28 -5 47.667 -15 59s-28.333 17 -55 17h-180c-26.667 0 -45 -5.66699 -55 -17s-15 -31 -15 -59v-138z" />
    <glyph glyph-name="esc.salt" unicode="&#xf845;" horiz-adv-x="580" 
d="M225 476c-26.667 0 -45 -5.66699 -55 -17s-15 -31 -15 -59v-78h360v-84h-360v-78c0 -28 5 -47.667 15 -59s28.333 -17 55 -17h300v-84h-300c-55.333 0 -95.833 13 -121.5 39s-38.5 66.333 -38.5 121v240c0 54.667 12.833 95 38.5 121s66.167 39 121.5 39h300v-84h-300z
" />
    <glyph glyph-name="fsc.salt" unicode="&#xf846;" horiz-adv-x="575" 
d="M160 0h-90v400c0 54.667 13 95 39 121s66.333 39 121 39h300v-84h-300c-26.667 0 -45 -5.66699 -55 -17s-15 -31 -15 -59v-78h360v-84h-360v-238z" />
    <glyph glyph-name="jsc.salt" unicode="&#xf847;" horiz-adv-x="550" 
d="M390 160v400h90v-400c0 -54.667 -13 -95 -39 -121s-66.333 -39 -121 -39h-300v84h300c26.667 0 45 5.66699 55 17s15 31 15 59z" />
    <glyph glyph-name="ksc.salt" unicode="&#xf848;" 
d="M570 395c0 -19.333 -2.33301 -36.5 -7 -51.5s-10.5 -26 -17.5 -33s-14 -12.667 -21 -17s-12.833 -6.83301 -17.5 -7.5l-7 -1v-10c2 0 4.5 -0.333008 7.5 -1s8.5 -3.16699 16.5 -7.5s15.167 -10 21.5 -17s12 -18 17 -33s7.5 -32.167 7.5 -51.5v-165h-90v165
c0 28 -4.83301 47.167 -14.5 57.5s-28.167 15.5 -55.5 15.5h-250v-238h-90v560h90v-238h250c27.333 0 45.833 5.16699 55.5 15.5s14.5 29.5 14.5 57.5v165h90v-165z" />
    <glyph glyph-name="lsc.salt" unicode="&#xf849;" horiz-adv-x="550" 
d="M160 160c0 -28 5 -47.667 15 -59s28.333 -17 55 -17h300v-84h-300c-54.667 0 -95 13 -121 39s-39 66.333 -39 121v400h90v-400z" />
    <glyph glyph-name="msc.salt" unicode="&#xf850;" horiz-adv-x="930" 
d="M700 560c54.667 0 95 -13 121 -39s39 -66.333 39 -121v-400h-90v400c0 28 -5 47.667 -15 59s-28.333 17 -55 17h-120c-26.667 0 -45 -5.66699 -55 -17s-15 -31 -15 -59v-400h-90v400c0 28 -5 47.667 -15 59s-28.333 17 -55 17h-120c-26.667 0 -45 -5.66699 -55 -17
s-15 -31 -15 -59v-400h-90v400c0 54.667 13 95 39 121s66.333 39 121 39h120c19.333 0 36.5 -2.33301 51.5 -7s26 -10.5 33 -17.5s12.667 -14 17 -21s6.83301 -12.833 7.5 -17.5l1 -7h10c0 2 0.333008 4.5 1 7.5s3.16699 8.5 7.5 16.5s10 15.167 17 21.5s18 12 33 17
s32.167 7.5 51.5 7.5h120z" />
    <glyph glyph-name="nsc.salt" unicode="&#xf851;" 
d="M480 0v400c0 28 -5 47.667 -15 59s-28.333 17 -55 17h-180c-26.667 0 -45 -5.66699 -55 -17s-15 -31 -15 -59v-400h-90v400c0 54.667 13 95 39 121s66.333 39 121 39h180c54.667 0 95 -13 121 -39s39 -66.333 39 -121v-400h-90z" />
    <glyph glyph-name="rsc.salt" unicode="&#xf852;" 
d="M410 560c54.667 0 95 -13 121 -39s39 -66.333 39 -121v-63c0 -19.333 -2.33301 -36.5 -7 -51.5s-10.5 -26 -17.5 -33s-14 -12.667 -21 -17s-12.833 -6.83301 -17.5 -7.5l-7 -1v-10c2 0 4.5 -0.333008 7.5 -1s8.5 -3.16699 16.5 -7.5s15.167 -10 21.5 -17s12 -18 17 -33
s7.5 -32.167 7.5 -51.5v-107h-90v107c0 28 -4.83301 47.167 -14.5 57.5s-28.167 15.5 -55.5 15.5h-250v-180h-90v560h340zM480 337v63c0 28 -5 47.667 -15 59s-28.333 17 -55 17h-250v-212h250c27.333 0 45.833 5.16699 55.5 15.5s14.5 29.5 14.5 57.5z" />
    <glyph glyph-name="wsc.salt" unicode="&#xf853;" horiz-adv-x="930" 
d="M700 0h-120c-19.333 -0 -36.5 2.33301 -51.5 7s-26 10.5 -33 17.5s-12.667 14 -17 21s-6.83301 12.833 -7.5 17.5l-1 7h-10c0 -2 -0.333008 -4.5 -1 -7.5s-3.16699 -8.5 -7.5 -16.5s-10 -15.167 -17 -21.5s-18 -12 -33 -17s-32.167 -7.5 -51.5 -7.5h-120
c-54.667 0 -95 13 -121 39s-39 66.333 -39 121v400h90v-400c0 -28 5 -47.667 15 -59s28.333 -17 55 -17h120c26.667 0 45 5.66699 55 17s15 31 15 59v400h90v-400c0 -28 5 -47.667 15 -59s28.333 -17 55 -17h120c26.667 0 45 5.66699 55 17s15 31 15 59v400h90v-400
c0 -54.667 -13 -95 -39 -121s-66.333 -39 -121 -39z" />
    <glyph glyph-name="xsc.salt" unicode="&#xf854;" 
d="M570 395c0 -19.333 -2.33301 -36.5 -7 -51.5s-10.5 -26 -17.5 -33s-14 -12.667 -21 -17s-12.833 -6.83301 -17.5 -7.5l-7 -1v-10c2 0 4.5 -0.333008 7.5 -1s8.5 -3.16699 16.5 -7.5s15.167 -10 21.5 -17s12 -18 17 -33s7.5 -32.167 7.5 -51.5v-165h-90v165
c0 28 -4.83301 47.167 -14.5 57.5s-28.167 15.5 -55.5 15.5h-180c-27.333 0 -45.833 -5.16699 -55.5 -15.5s-14.5 -29.5 -14.5 -57.5v-165h-90v165c0 19.333 2.33301 36.5 7 51.5s10.5 26 17.5 33s14 12.667 21 17s12.833 6.83301 17.5 7.5l7 1v10
c-2 0 -4.5 0.333008 -7.5 1s-8.5 3.16699 -16.5 7.5s-15.167 10 -21.5 17s-12 18 -17 33s-7.5 32.167 -7.5 51.5v165h90v-165c0 -28 4.83301 -47.167 14.5 -57.5s28.167 -15.5 55.5 -15.5h180c27.333 0 45.833 5.16699 55.5 15.5s14.5 29.5 14.5 57.5v165h90v-165z" />
    <glyph glyph-name="ysc.salt" unicode="&#xf855;" horiz-adv-x="610" 
d="M465 560h90v-210c0 -54.667 -12.833 -95 -38.5 -121s-66.167 -39 -121.5 -39h-45v-190h-90v190h-45c-55.333 0 -95.833 13 -121.5 39s-38.5 66.333 -38.5 121v210h90v-210c0 -28 5 -47.667 15 -59s28.333 -17 55 -17h180c26.667 0 45 5.66699 55 17s15 31 15 59v210z" />
    <glyph glyph-name="agravesc.salt" unicode="&#xf856;" 
d="M410 560c54.667 0 95 -13 121 -39s39 -66.333 39 -121v-400h-90v178h-320v-178h-90v400c0 54.667 13 95 39 121s66.333 39 121 39h180zM480 262v138c0 28 -5 47.667 -15 59s-28.333 17 -55 17h-180c-26.667 0 -45 -5.66699 -55 -17s-15 -31 -15 -59v-138h320zM375 640
h-65l-130 150h95z" />
    <glyph glyph-name="aacutesc.salt" unicode="&#xf857;" 
d="M410 560c54.667 0 95 -13 121 -39s39 -66.333 39 -121v-400h-90v178h-320v-178h-90v400c0 54.667 13 95 39 121s66.333 39 121 39h180zM480 262v138c0 28 -5 47.667 -15 59s-28.333 17 -55 17h-180c-26.667 0 -45 -5.66699 -55 -17s-15 -31 -15 -59v-138h320zM460 790
l-130 -150h-65l100 150h95z" />
    <glyph glyph-name="acircumflexsc.salt" unicode="&#xf858;" 
d="M410 560c54.667 0 95 -13 121 -39s39 -66.333 39 -121v-400h-90v178h-320v-178h-90v400c0 54.667 13 95 39 121s66.333 39 121 39h180zM480 262v138c0 28 -5 47.667 -15 59s-28.333 17 -55 17h-180c-26.667 0 -45 -5.66699 -55 -17s-15 -31 -15 -59v-138h320zM315 736
l-73 -96h-75l114 150h78l114 -150h-76l-72 96h-10z" />
    <glyph glyph-name="atildesc.salt" unicode="&#xf859;" 
d="M410 560c54.667 0 95 -13 121 -39s39 -66.333 39 -121v-400h-90v178h-320v-178h-90v400c0 54.667 13 95 39 121s66.333 39 121 39h180zM480 262v138c0 28 -5 47.667 -15 59s-28.333 17 -55 17h-180c-26.667 0 -45 -5.66699 -55 -17s-15 -31 -15 -59v-138h320zM255 667
v-27h-60v27c0 30 5.83301 50.833 17.5 62.5s32.5 17.5 62.5 17.5h90c8 0 13.333 2 16 6s4 10.667 4 20v27h60v-27c0 -30 -5.83301 -50.833 -17.5 -62.5s-32.5 -17.5 -62.5 -17.5h-90c-8.66699 0 -14.167 -2 -16.5 -6s-3.5 -10.667 -3.5 -20z" />
    <glyph glyph-name="adieresissc.salt" unicode="&#xf860;" 
d="M410 560c54.667 0 95 -13 121 -39s39 -66.333 39 -121v-400h-90v178h-320v-178h-90v400c0 54.667 13 95 39 121s66.333 39 121 39h180zM480 262v138c0 28 -5 47.667 -15 59s-28.333 17 -55 17h-180c-26.667 0 -45 -5.66699 -55 -17s-15 -31 -15 -59v-138h320zM400 630
c-14.667 0 -27.5 5.33301 -38.5 16s-16.5 23.667 -16.5 39s5.5 28.333 16.5 39s23.833 16 38.5 16s27.5 -5.33301 38.5 -16s16.5 -23.667 16.5 -39s-5.5 -28.333 -16.5 -39s-23.833 -16 -38.5 -16zM240 630c-14.667 0 -27.5 5.33301 -38.5 16s-16.5 23.667 -16.5 39
s5.5 28.333 16.5 39s23.833 16 38.5 16s27.5 -5.33301 38.5 -16s16.5 -23.667 16.5 -39s-5.5 -28.333 -16.5 -39s-23.833 -16 -38.5 -16z" />
    <glyph glyph-name="aringsc.salt" unicode="&#xf861;" 
d="M410 560c54.667 0 95 -13 121 -39s39 -66.333 39 -121v-400h-90v178h-320v-178h-90v400c0 54.667 13 95 39 121s66.333 39 121 39h180zM480 262v138c0 28 -5 47.667 -15 59s-28.333 17 -55 17h-180c-26.667 0 -45 -5.66699 -55 -17s-15 -31 -15 -59v-138h320zM320 630
c-26.667 0 -49.167 9.16699 -67.5 27.5s-27.5 40.833 -27.5 67.5c0 26 9.16699 48.333 27.5 67s40.833 28 67.5 28c26 0 48.333 -9.33301 67 -28s28 -41 28 -67c0 -26.667 -9.33301 -49.167 -28 -67.5s-41 -27.5 -67 -27.5zM320 765c-10.667 0 -20 -3.83301 -28 -11.5
s-12 -17.167 -12 -28.5s4 -20.833 12 -28.5s17.333 -11.5 28 -11.5s20 3.83301 28 11.5s12 17.167 12 28.5s-4 20.833 -12 28.5s-17.333 11.5 -28 11.5z" />
    <glyph glyph-name="aesc.salt" unicode="&#xf862;" horiz-adv-x="995" 
d="M640 476c-26.667 0 -45 -5.66699 -55 -17s-15 -31 -15 -59v-78h360v-84h-360v-78c0 -28 5 -47.667 15 -59s28.333 -17 55 -17h300v-84h-300c-54.667 0 -95 13 -121 39s-39 66.333 -39 121v18h-320v-178h-90v400c0 54.667 13 95 39 121s66.333 39 121 39h180
c19.333 0 36.5 -2.33301 51.5 -7s26 -10.5 33 -17.5s12.667 -14 17 -21s6.83301 -12.833 7.5 -17.5l1 -7h10c0 2 0.333008 4.5 1 7.5s3.16699 8.5 7.5 16.5s10 15.167 17 21.5s18 12 33 17s32.167 7.5 51.5 7.5h300v-84h-300zM480 262v138c0 28 -5 47.667 -15 59
s-28.333 17 -55 17h-180c-26.667 0 -45 -5.66699 -55 -17s-15 -31 -15 -59v-138h320z" />
    <glyph glyph-name="egravesc.salt" unicode="&#xf863;" horiz-adv-x="580" 
d="M225 476c-26.667 0 -45 -5.66699 -55 -17s-15 -31 -15 -59v-78h360v-84h-360v-78c0 -28 5 -47.667 15 -59s28.333 -17 55 -17h300v-84h-300c-55.333 0 -95.833 13 -121.5 39s-38.5 66.333 -38.5 121v240c0 54.667 12.833 95 38.5 121s66.167 39 121.5 39h300v-84h-300z
M350 640h-65l-130 150h95z" />
    <glyph glyph-name="eacutesc.salt" unicode="&#xf864;" horiz-adv-x="580" 
d="M435 790l-130 -150h-65l100 150h95zM225 476c-26.667 0 -45 -5.66699 -55 -17s-15 -31 -15 -59v-78h360v-84h-360v-78c0 -28 5 -47.667 15 -59s28.333 -17 55 -17h300v-84h-300c-55.333 0 -95.833 13 -121.5 39s-38.5 66.333 -38.5 121v240c0 54.667 12.833 95 38.5 121
s66.167 39 121.5 39h300v-84h-300z" />
    <glyph glyph-name="ecircumflexsc.salt" unicode="&#xf865;" horiz-adv-x="580" 
d="M225 476c-26.667 0 -45 -5.66699 -55 -17s-15 -31 -15 -59v-78h360v-84h-360v-78c0 -28 5 -47.667 15 -59s28.333 -17 55 -17h300v-84h-300c-55.333 0 -95.833 13 -121.5 39s-38.5 66.333 -38.5 121v240c0 54.667 12.833 95 38.5 121s66.167 39 121.5 39h300v-84h-300z
M290 736l-73 -96h-75l114 150h78l114 -150h-76l-72 96h-10z" />
    <glyph glyph-name="edieresissc.salt" unicode="&#xf866;" horiz-adv-x="580" 
d="M225 476c-26.667 0 -45 -5.66699 -55 -17s-15 -31 -15 -59v-78h360v-84h-360v-78c0 -28 5 -47.667 15 -59s28.333 -17 55 -17h300v-84h-300c-55.333 0 -95.833 13 -121.5 39s-38.5 66.333 -38.5 121v240c0 54.667 12.833 95 38.5 121s66.167 39 121.5 39h300v-84h-300z
M375 630c-15.333 0 -28.333 5.33301 -39 16s-16 23.667 -16 39s5.33301 28.333 16 39s23.667 16 39 16s28.333 -5.33301 39 -16s16 -23.667 16 -39s-5.33301 -28.333 -16 -39s-23.667 -16 -39 -16zM215 630c-15.333 0 -28.333 5.33301 -39 16s-16 23.667 -16 39
s5.33301 28.333 16 39s23.667 16 39 16s28.333 -5.33301 39 -16s16 -23.667 16 -39s-5.33301 -28.333 -16 -39s-23.667 -16 -39 -16z" />
    <glyph glyph-name="ntildesc.salt" unicode="&#xf867;" 
d="M410 560c54.667 0 95 -13 121 -39s39 -66.333 39 -121v-400h-90v400c0 28 -5 47.667 -15 59s-28.333 17 -55 17h-180c-26.667 0 -45 -5.66699 -55 -17s-15 -31 -15 -59v-400h-90v400c0 54.667 13 95 39 121s66.333 39 121 39h180zM255 667v-27h-60v27
c0 30 5.83301 50.833 17.5 62.5s32.5 17.5 62.5 17.5h90c8 0 13.333 2 16 6s4 10.667 4 20v27h60v-27c0 -30 -5.83301 -50.833 -17.5 -62.5s-32.5 -17.5 -62.5 -17.5h-90c-8.66699 0 -14.167 -2 -16.5 -6s-3.5 -10.667 -3.5 -20z" />
    <glyph glyph-name="yacutesc.salt" unicode="&#xf868;" horiz-adv-x="610" 
d="M445 790l-130 -150h-65l100 150h95zM465 560h90v-210c0 -54.667 -12.833 -95 -38.5 -121s-66.167 -39 -121.5 -39h-45v-190h-90v190h-45c-55.333 0 -95.833 13 -121.5 39s-38.5 66.333 -38.5 121v210h90v-210c0 -28 5 -47.667 15 -59s28.333 -17 55 -17h180
c26.667 0 45 5.66699 55 17s15 31 15 59v210z" />
    <glyph glyph-name="ydieresissc.salt" unicode="&#xf869;" horiz-adv-x="610" 
d="M385 630c-15.333 0 -28.333 5.33301 -39 16s-16 23.667 -16 39s5.33301 28.333 16 39s23.667 16 39 16s28.333 -5.33301 39 -16s16 -23.667 16 -39s-5.33301 -28.333 -16 -39s-23.667 -16 -39 -16zM225 630c-15.333 0 -28.333 5.33301 -39 16s-16 23.667 -16 39
s5.33301 28.333 16 39s23.667 16 39 16s28.333 -5.33301 39 -16s16 -23.667 16 -39s-5.33301 -28.333 -16 -39s-23.667 -16 -39 -16zM465 560h90v-210c0 -54.667 -12.833 -95 -38.5 -121s-66.167 -39 -121.5 -39h-45v-190h-90v190h-45c-55.333 0 -95.833 13 -121.5 39
s-38.5 66.333 -38.5 121v210h90v-210c0 -28 5 -47.667 15 -59s28.333 -17 55 -17h180c26.667 0 45 5.66699 55 17s15 31 15 59v210z" />
    <glyph glyph-name="f_f" unicode="&#xfb00;" horiz-adv-x="745" 
d="M540 676c-19.333 0 -32.5 -4.16699 -39.5 -12.5s-10.5 -22.833 -10.5 -43.5v-60h190v-84h-190v-476h-90v476h-240v-476h-90v620c0 50 10.833 85.833 32.5 107.5s57.5 32.5 107.5 32.5h150v-84h-150c-19.333 0 -32.5 -4.16699 -39.5 -12.5s-10.5 -22.833 -10.5 -43.5v-60
h240v60c0 50 10.833 85.833 32.5 107.5s57.5 32.5 107.5 32.5h160v-84h-160z" />
    <glyph glyph-name="fi" unicode="&#xfb01;" horiz-adv-x="560" 
d="M160 560h330v-560h-90v476h-240v-476h-90v620c0 50 10.833 85.833 32.5 107.5s57.5 32.5 107.5 32.5h160v-84h-160c-19.333 0 -32.5 -4.16699 -39.5 -12.5s-10.5 -22.833 -10.5 -43.5v-60z" />
    <glyph glyph-name="fl" unicode="&#xfb02;" horiz-adv-x="650" 
d="M540 84h80v-84h-80c-50 -0 -85.833 10.833 -107.5 32.5s-32.5 57.5 -32.5 107.5v536h-190c-19.333 0 -32.5 -4.16699 -39.5 -12.5s-10.5 -22.833 -10.5 -43.5v-60h190v-84h-190v-476h-90v620c0 50 10.833 85.833 32.5 107.5s57.5 32.5 107.5 32.5h280v-620
c0 -20.667 3.5 -35.167 10.5 -43.5s20.167 -12.5 39.5 -12.5z" />
    <glyph glyph-name="f_f_i" unicode="&#xfb03;" horiz-adv-x="890" 
d="M490 560h330v-560h-90v476h-240v-476h-90v476h-240v-476h-90v620c0 50 10.833 85.833 32.5 107.5s57.5 32.5 107.5 32.5h150v-84h-150c-19.333 0 -32.5 -4.16699 -39.5 -12.5s-10.5 -22.833 -10.5 -43.5v-60h240v60c0 50 10.833 85.833 32.5 107.5s57.5 32.5 107.5 32.5
h160v-84h-160c-19.333 0 -32.5 -4.16699 -39.5 -12.5s-10.5 -22.833 -10.5 -43.5v-60z" />
    <glyph glyph-name="f_f_l" unicode="&#xfb04;" horiz-adv-x="980" 
d="M870 84h80v-84h-80c-50 -0 -85.833 10.833 -107.5 32.5s-32.5 57.5 -32.5 107.5v536h-190c-19.333 0 -32.5 -4.16699 -39.5 -12.5s-10.5 -22.833 -10.5 -43.5v-60h190v-84h-190v-476h-90v476h-240v-476h-90v620c0 50 10.833 85.833 32.5 107.5s57.5 32.5 107.5 32.5h150
v-84h-150c-19.333 0 -32.5 -4.16699 -39.5 -12.5s-10.5 -22.833 -10.5 -43.5v-60h240v60c0 50 10.833 85.833 32.5 107.5s57.5 32.5 107.5 32.5h280v-620c0 -20.667 3.5 -35.167 10.5 -43.5s20.167 -12.5 39.5 -12.5z" />
    <glyph glyph-name="arrow1" unicode="&#xfb05;" horiz-adv-x="380" 
d="M320 210l-260 150l260 150v-300z" />
    <glyph glyph-name="arrow2" unicode="&#xfb06;" horiz-adv-x="420" 
d="M60 273l150 260l150 -260h-300z" />
    <glyph glyph-name="arrow3" unicode="&#xfb07;" horiz-adv-x="380" 
d="M60 210v300l260 -150z" />
    <glyph glyph-name="arrow4" unicode="&#xfb08;" horiz-adv-x="420" 
d="M210 187l-150 260h300z" />
    <glyph glyph-name="arrow5" unicode="&#xfb09;" horiz-adv-x="660" 
d="M330 630c74.667 0 138.334 -26.333 191.001 -79s79 -116.334 79 -191.001s-26.333 -138.334 -79 -191.001s-116.334 -79 -191.001 -79s-138.334 26.333 -191.001 79s-79 116.334 -79 191.001s26.333 138.334 79 191.001s116.334 79 191.001 79zM417 210v300l-260 -150z
" />
    <glyph glyph-name="arrow6" unicode="&#xfb10;" horiz-adv-x="660" 
d="M330 630c74.667 0 138.334 -26.333 191.001 -79s79 -116.334 79 -191.001s-26.333 -138.334 -79 -191.001s-116.334 -79 -191.001 -79s-138.334 26.333 -191.001 79s-79 116.334 -79 191.001s26.333 138.334 79 191.001s116.334 79 191.001 79zM180 273h300l-150 260z
" />
    <glyph glyph-name="arrow7" unicode="&#xfb11;" horiz-adv-x="660" 
d="M330 630c74.667 0 138.334 -26.333 191.001 -79s79 -116.334 79 -191.001s-26.333 -138.334 -79 -191.001s-116.334 -79 -191.001 -79s-138.334 26.333 -191.001 79s-79 116.334 -79 191.001s26.333 138.334 79 191.001s116.334 79 191.001 79zM243 210l260 150l-260 150
v-300z" />
    <glyph glyph-name="arrow8" unicode="&#xfb12;" horiz-adv-x="660" 
d="M330 630c74.667 0 138.334 -26.333 191.001 -79s79 -116.334 79 -191.001s-26.333 -138.334 -79 -191.001s-116.334 -79 -191.001 -79s-138.334 26.333 -191.001 79s-79 116.334 -79 191.001s26.333 138.334 79 191.001s116.334 79 191.001 79zM330 187l150 260h-300z
" />
    <glyph glyph-name=".null" horiz-adv-x="0" 
 />
    <glyph glyph-name="nonmarkingreturn" horiz-adv-x="333" 
 />
    </font>
</defs>
</svg>
