<?xml version="1.0" encoding="UTF-8" standalone="no"?>
<!-- Created with Inkscape (http://www.inkscape.org/) -->

<svg
   xmlns:dc="http://purl.org/dc/elements/1.1/"
   xmlns:cc="http://creativecommons.org/ns#"
   xmlns:rdf="http://www.w3.org/1999/02/22-rdf-syntax-ns#"
   xmlns:svg="http://www.w3.org/2000/svg"
   xmlns="http://www.w3.org/2000/svg"
   xmlns:sodipodi="http://sodipodi.sourceforge.net/DTD/sodipodi-0.dtd"
   xmlns:inkscape="http://www.inkscape.org/namespaces/inkscape"
   inkscape:version="0.92.3 (2405546, 2018-03-11)"
   sodipodi:docname="circle-phone-number.svg"
   id="svg7561"
   version="1.1"
   viewBox="0 0 66.145834 66.145835"
   height="66.145836mm"
   width="66.145836mm">
  <sodipodi:namedview
     inkscape:window-maximized="1"
     inkscape:window-y="-8"
     inkscape:window-x="-8"
     inkscape:window-height="1017"
     inkscape:window-width="1920"
     inkscape:guide-bbox="true"
     showguides="true"
     showgrid="false"
     inkscape:current-layer="g8270"
     inkscape:document-units="mm"
     inkscape:cy="125"
     inkscape:cx="125"
     inkscape:zoom="3.392"
     inkscape:pageshadow="2"
     inkscape:pageopacity="0.0"
     borderopacity="1.0"
     bordercolor="#666666"
     pagecolor="#ffffff"
     id="base"
     fit-margin-top="0"
     fit-margin-left="0"
     fit-margin-right="0"
     fit-margin-bottom="0">
    <sodipodi:guide
       position="42.936478,21.468514"
       orientation="0,1"
       id="guide1354"
       inkscape:locked="false" />
    <sodipodi:guide
       position="21.468426,43.650189"
       orientation="1,0"
       id="guide1221"
       inkscape:locked="false" />
    <sodipodi:guide
       position="10.11251,31.195136"
       orientation="1,0"
       id="guide1223"
       inkscape:locked="false" />
    <sodipodi:guide
       position="29.833402,32.473088"
       orientation="0,1"
       id="guide1225"
       inkscape:locked="false" />
    <sodipodi:guide
       position="32.824858,17.615237"
       orientation="1,0"
       id="guide1227"
       inkscape:locked="false" />
    <sodipodi:guide
       position="20.107739,10.465031"
       orientation="0,1"
       id="guide1229"
       inkscape:locked="false" />
    <sodipodi:guide
       position="21.468426,42.935938"
       orientation="0,1"
       id="guide1231"
       inkscape:locked="false" />
    <sodipodi:guide
       position="42.936478,21.468514"
       orientation="1,0"
       id="guide1233"
       inkscape:locked="false" />
    <sodipodi:guide
       position="21.468426,5.8442903e-005"
       orientation="0,1"
       id="guide1235"
       inkscape:locked="false" />
    <sodipodi:guide
       position="0.00059925404,21.468514"
       orientation="1,0"
       id="guide1237"
       inkscape:locked="false" />
  </sodipodi:namedview>
  <defs
     id="defs7555" />
  <metadata
     id="metadata7558">
    <rdf:RDF>
      <cc:Work
         rdf:about="">
        <dc:format>image/svg+xml</dc:format>
        <dc:type
           rdf:resource="http://purl.org/dc/dcmitype/StillImage" />
        <dc:title></dc:title>
      </cc:Work>
    </rdf:RDF>
  </metadata>
  <g
     id="layer1"
     inkscape:groupmode="layer"
     inkscape:label="Layer 1"
     transform="translate(46.216788,8.0730095)">
    <g
       id="g8334"
       transform="matrix(0.05460556,0,0,0.05460556,-15.477571,4.8773816)">
      <g
         id="g8270"
         transform="translate(0.85654588)">
        <path
           style="fill:#000000;fill-opacity:1;stroke:none;stroke-width:5788936.5;stroke-linecap:butt;stroke-linejoin:miter;stroke-miterlimit:3.9000001;stroke-dasharray:none;stroke-opacity:1;paint-order:normal"
           d="M 41.880858,-237.1625 A 605.66851,605.66851 0 0 0 -563.78854,368.5069 605.66851,605.66851 0 0 0 41.880858,974.1763 605.66851,605.66851 0 0 0 647.55026,368.5069 605.66851,605.66851 0 0 0 41.880858,-237.1625 Z M -137.32404,58.061969 c 4.1129,0 7.2012,0.44535 9.25766,1.326692 5.28802,1.762668 13.07326,12.923395 23.35553,33.48793 3.23158,5.581797 7.641343,13.510639 13.223147,23.792909 5.581797,10.28226 10.724103,19.60437 15.424566,27.97707 4.700463,8.3727 9.253824,16.22974 13.660509,23.57422 0.881334,1.17511 3.45249,4.85235 7.712282,11.02171 4.259793,6.16936 7.405308,11.38346 9.461761,15.64325 2.056454,4.2598 3.090749,8.45418 3.090749,12.56709 0,5.87558 -4.179811,13.21548 -12.55251,22.02885 -8.372699,8.81337 -17.479421,16.8858 -27.321018,24.23028 -9.841596,7.34447 -18.948316,15.12972 -27.321026,23.35553 -8.3727,8.22581 -12.56708,14.99134 -12.56708,20.27937 0,2.64401 0.73253,5.9477 2.20143,9.91371 1.46889,3.96601 2.71857,6.96794 3.7468,9.02439 1.02822,2.05645 3.08223,5.59011 6.16691,10.58435 3.08468,4.99424 4.7797,7.78077 5.07348,8.36834 22.327212,40.24772 47.880546,74.76419 76.670895,103.55454 28.79034069,28.79034 63.306811,54.35826 103.554531,76.68547 0.587564,0.2938 3.388677,1.9742 8.382918,5.05888 4.994249,3.08468 8.513315,5.1533 10.569768,6.18153 2.056453,1.02822 5.072953,2.26329 9.038968,3.73222 3.96602,1.46885 7.2697,2.21597 9.91371,2.21597 5.28803,0 12.03898,-4.19435 20.26479,-12.56706 8.22582,-8.37272 16.01106,-17.47943 23.35554,-27.32104 7.34448,-9.84159 15.43148,-18.94831 24.24485,-27.32101 8.81337,-8.3727 16.15331,-12.55251 22.02887,-12.55251 4.1129,0 8.30725,1.01971 12.56705,3.07617 4.25981,2.05645 9.47395,5.21654 15.64331,9.47634 6.16928,4.2598 9.83201,6.83094 11.00706,7.71228 7.34449,4.40668 15.20156,8.96004 23.57427,13.66052 8.37272,4.70046 17.70939,9.84276 27.99166,15.42456 10.28226,5.5818 18.21107,9.99157 23.7929,13.22315 20.56454,10.28227 31.72522,18.06753 33.48795,23.35549 0.88132,2.05646 1.32665,5.13024 1.32665,9.24314 0,7.93202 -1.46504,18.28841 -4.40282,31.06783 -2.93786,12.77935 -6.02612,22.84858 -9.2577,30.19306 -6.16936,14.6889 -24.09559,30.25943 -53.76727,46.71106 -27.61522,14.9827 -54.93544,22.46625 -81.96306,22.46625 -7.93202,0 -15.64547,-0.50258 -23.13687,-1.53081 -7.49136,-1.02823 -15.93735,-2.86687 -25.33827,-5.51085 -9.40094,-2.64405 -16.38185,-4.76985 -20.93543,-6.3856 -4.55358,-1.61583 -12.6978,-4.63229 -24.44896,-9.03899 -11.751161,-4.40671 -18.947472,-7.04964 -21.591481,-7.93097 -28.790341,-10.28227 -54.501847,-22.4773 -77.122835,-36.57867 -37.603718,-23.20859 -76.458156,-54.8667 -116.558994,-94.96755 -40.10084,-40.10082 -71.7444,-78.95525 -94.95294,-116.55897 -14.10139,-22.62098 -26.2964,-48.31792 -36.57867,-77.10826 -0.88134,-2.64401 -3.52428,-9.84032 -7.93097,-21.59148 -4.40668,-11.75116 -7.42318,-19.90996 -9.03897,-24.46354 -1.61579,-4.55357 -3.74159,-11.53449 -6.3856,-20.93542 -2.64401,-9.40093 -4.48263,-17.84691 -5.51086,-25.33828 -1.02822,-7.49137 -1.54537,-15.19023 -1.54537,-23.12227 0,-27.02767 7.49807,-54.36241 22.4808,-81.97764 16.45163,-29.671682 32.02212,-47.583362 46.71107,-53.752722 7.34448,-3.231566 17.39912,-6.319866 30.1785,-9.257654 12.77939,-2.937787 23.13579,-4.402855 31.06782,-4.402855 z"
           id="path1219"
           inkscape:connector-curvature="0"
           inkscape:export-xdpi="96"
           inkscape:export-ydpi="96" />
        <g
           transform="translate(-58.774881,29.07265)"
           id="g8688"
           inkscape:export-xdpi="96"
           inkscape:export-ydpi="96" />
        <g
           id="g3015"
           transform="matrix(0.28604896,0,0,-0.28604896,-371.62875,782.25921)"
           style="fill:#78e482;fill-opacity:1;stroke:none"
           inkscape:export-xdpi="96"
           inkscape:export-ydpi="96" />
      </g>
      <g
         id="g8272" />
      <g
         id="g8274" />
      <g
         id="g8276" />
      <g
         id="g8278" />
      <g
         id="g8280" />
      <g
         id="g8282" />
      <g
         id="g8284" />
      <g
         id="g8286" />
      <g
         id="g8288" />
      <g
         id="g8290" />
      <g
         id="g8292" />
      <g
         id="g8294" />
      <g
         id="g8296" />
      <g
         id="g8298" />
      <g
         id="g8300" />
    </g>
  </g>
</svg>
