<?xml version="1.0" encoding="UTF-8" standalone="no"?>
<svg
   xmlns:dc="http://purl.org/dc/elements/1.1/"
   xmlns:cc="http://creativecommons.org/ns#"
   xmlns:rdf="http://www.w3.org/1999/02/22-rdf-syntax-ns#"
   xmlns:svg="http://www.w3.org/2000/svg"
   xmlns="http://www.w3.org/2000/svg"
   xmlns:sodipodi="http://sodipodi.sourceforge.net/DTD/sodipodi-0.dtd"
   xmlns:inkscape="http://www.inkscape.org/namespaces/inkscape"
   width="134.26993"
   height="250"
   viewBox="88.428 12.828 11.124646 20.708498"
   version="1.1"
   id="svg4"
   sodipodi:docname="white-icon-facebook.svg"
   inkscape:version="0.92.3 (2405546, 2018-03-11)">
  <metadata
     id="metadata10">
    <rdf:RDF>
      <cc:Work
         rdf:about="">
        <dc:format>image/svg+xml</dc:format>
        <dc:type
           rdf:resource="http://purl.org/dc/dcmitype/StillImage" />
        <dc:title></dc:title>
      </cc:Work>
    </rdf:RDF>
  </metadata>
  <defs
     id="defs8" />
  <sodipodi:namedview
     pagecolor="#ffffff"
     bordercolor="#666666"
     borderopacity="1"
     objecttolerance="10"
     gridtolerance="10"
     guidetolerance="10"
     inkscape:pageopacity="0"
     inkscape:pageshadow="2"
     inkscape:window-width="1920"
     inkscape:window-height="1017"
     id="namedview6"
     showgrid="false"
     fit-margin-top="0"
     fit-margin-left="0"
     fit-margin-right="0"
     fit-margin-bottom="0"
     inkscape:zoom="2.1360282"
     inkscape:cx="221.12312"
     inkscape:cy="89.630969"
     inkscape:window-x="-8"
     inkscape:window-y="-8"
     inkscape:window-maximized="1"
     inkscape:current-layer="svg4" />
  <path
     style="color:#000000;font-style:normal;font-variant:normal;font-weight:normal;font-stretch:normal;font-size:medium;line-height:normal;font-family:sans-serif;font-variant-ligatures:normal;font-variant-position:normal;font-variant-caps:normal;font-variant-numeric:normal;font-variant-alternates:normal;font-feature-settings:normal;text-indent:0;text-align:start;text-decoration:none;text-decoration-line:none;text-decoration-style:solid;text-decoration-color:#000000;letter-spacing:normal;word-spacing:normal;text-transform:none;writing-mode:lr-tb;direction:ltr;text-orientation:mixed;dominant-baseline:auto;baseline-shift:baseline;text-anchor:start;white-space:normal;shape-padding:0;clip-rule:nonzero;display:inline;overflow:visible;visibility:visible;opacity:1;isolation:auto;mix-blend-mode:normal;color-interpolation:sRGB;color-interpolation-filters:linearRGB;solid-color:#000000;solid-opacity:1;vector-effect:none;fill:#ffffff;fill-opacity:1;fill-rule:nonzero;stroke:none;stroke-width:0.7653001;stroke-linecap:butt;stroke-linejoin:miter;stroke-miterlimit:4;stroke-dasharray:none;stroke-dashoffset:0;stroke-opacity:1;color-rendering:auto;image-rendering:auto;shape-rendering:auto;text-rendering:auto;enable-background:accumulate"
     d="m 96.433594,12.826172 c -1.431552,0 -2.680944,0.443158 -3.564453,1.316406 -0.88351,0.873248 -1.378907,2.15856 -1.378907,3.753906 v 2.232422 h -3.0625 v 4.3125 h 3.0625 v 9.09961 l 4.427735,-0.002 v -0.380859 -8.716797 h 3.007812 l 0.554688,-4.3125 h -3.5625 v -1.880859 c 0,-0.477919 0.07362,-0.80869 0.236328,-1.001953 0.162706,-0.193264 0.46305,-0.341797 1.138672,-0.341797 l 2.259765,-0.002 v -3.888672 l -0.332031,-0.04297 c -0.364134,-0.04826 -1.471356,-0.144531 -2.787109,-0.144531 z m 0,0.765625 c 1.119791,0 1.93089,0.07497 2.353515,0.119141 v 2.427734 h -1.49414 c -0.796847,0 -1.376687,0.20197 -1.72461,0.615234 -0.347922,0.413264 -0.416015,0.945401 -0.416015,1.494141 v 2.646484 h 3.458984 l -0.359375,2.78125 h -3.099609 v 9.09961 h -2.896485 v -9.09961 h -3.0625 v -2.78125 h 3.0625 v -2.998047 c 0,-1.439549 0.430302,-2.497259 1.150391,-3.208984 0.720089,-0.711725 1.751496,-1.095703 3.027344,-1.095703 z"
     id="path2"
     inkscape:connector-curvature="0" />
</svg>
