<?xml version="1.0" encoding="UTF-8" standalone="no"?>
<svg
   xmlns:dc="http://purl.org/dc/elements/1.1/"
   xmlns:cc="http://creativecommons.org/ns#"
   xmlns:rdf="http://www.w3.org/1999/02/22-rdf-syntax-ns#"
   xmlns:svg="http://www.w3.org/2000/svg"
   xmlns="http://www.w3.org/2000/svg"
   xmlns:sodipodi="http://sodipodi.sourceforge.net/DTD/sodipodi-0.dtd"
   xmlns:inkscape="http://www.inkscape.org/namespaces/inkscape"
   viewBox="0 -256 250.00001 250.00001"
   id="svg3013"
   version="1.1"
   inkscape:version="0.92.3 (2405546, 2018-03-11)"
   width="250"
   height="250"
   sodipodi:docname="white-icon-phone-number.svg">
  <metadata
     id="metadata3023">
    <rdf:RDF>
      <cc:Work
         rdf:about="">
        <dc:format>image/svg+xml</dc:format>
        <dc:type
           rdf:resource="http://purl.org/dc/dcmitype/StillImage" />
        <dc:title></dc:title>
      </cc:Work>
    </rdf:RDF>
  </metadata>
  <defs
     id="defs3021" />
  <sodipodi:namedview
     pagecolor="#ffffff"
     bordercolor="#666666"
     borderopacity="1"
     objecttolerance="10"
     gridtolerance="10"
     guidetolerance="10"
     inkscape:pageopacity="0"
     inkscape:pageshadow="2"
     inkscape:window-width="1920"
     inkscape:window-height="1017"
     id="namedview3019"
     showgrid="false"
     inkscape:zoom="2.1071429"
     inkscape:cx="-37.809675"
     inkscape:cy="169.51578"
     inkscape:window-x="-8"
     inkscape:window-y="-8"
     inkscape:window-maximized="1"
     inkscape:current-layer="svg3013"
     fit-margin-top="0"
     fit-margin-left="0"
     fit-margin-right="0"
     fit-margin-bottom="0" />
  <g
     transform="matrix(0.17127992,0,0,-0.17127992,4.4189372,-10.418935)"
     id="g3015"
     inkscape:export-xdpi="96"
     inkscape:export-ydpi="96"
     style="fill:#ffffff;stroke:none;stroke-width:51.59901047;stroke-miterlimit:4;stroke-dasharray:none;stroke-opacity:1;fill-opacity:1">
    <path
       style="color:#000000;font-style:normal;font-variant:normal;font-weight:normal;font-stretch:normal;font-size:medium;line-height:normal;font-family:sans-serif;font-variant-ligatures:normal;font-variant-position:normal;font-variant-caps:normal;font-variant-numeric:normal;font-variant-alternates:normal;font-feature-settings:normal;text-indent:0;text-align:start;text-decoration:none;text-decoration-line:none;text-decoration-style:solid;text-decoration-color:#000000;letter-spacing:normal;word-spacing:normal;text-transform:none;writing-mode:lr-tb;direction:ltr;text-orientation:mixed;dominant-baseline:auto;baseline-shift:baseline;text-anchor:start;white-space:normal;shape-padding:0;clip-rule:nonzero;display:inline;overflow:visible;visibility:visible;opacity:1;isolation:auto;mix-blend-mode:normal;color-interpolation:sRGB;color-interpolation-filters:linearRGB;solid-color:#000000;solid-opacity:1;vector-effect:none;fill:#ffffff;fill-opacity:1;fill-rule:nonzero;stroke:none;stroke-width:51.59901047;stroke-linecap:butt;stroke-linejoin:miter;stroke-miterlimit:4;stroke-dasharray:none;stroke-dashoffset:0;stroke-opacity:1;color-rendering:auto;image-rendering:auto;shape-rendering:auto;text-rendering:auto;enable-background:accumulate"
       d="m 1069,-25.798828 c -19.1148,0 -37.7925,1.238142 -56.0078,3.738281 -18.5111,2.540737 -38.76293,6.977023 -60.97658,13.2246095 C 930.40883,-2.7590276 914.29999,2.1308239 902.87305,6.1855469 892.16519,9.9851095 873.66323,16.823068 846.94141,26.84375 820.34092,36.818931 803.48204,42.978642 798.8418,44.525391 l -0.25977,0.08594 -0.25976,0.0918 C 731.50905,68.564987 671.50712,96.976511 618.40625,130.07227 530.92302,184.07162 441.33429,257.18134 349.25781,349.25781 257.18134,441.33429 184.07162,530.92302 130.07227,618.40625 96.976511,671.50712 68.564987,731.50905 44.703125,798.32227 l -0.0918,0.25976 -0.08594,0.25977 c -1.546749,4.64024 -7.70646,21.49912 -17.681641,48.09961 -10.020682,26.72182 -16.8586405,45.22378 -20.6582031,55.93164 -4.054723,11.42694 -8.9445745,27.53578 -15.0214844,49.14257 -6.2475865,22.21365 -10.6838725,42.46548 -13.2246095,60.97658 -2.500139,18.2153 -3.738281,36.893 -3.738281,56.0078 0,66.1006 18.4386128,132.535 54.121094,198.3027 l 0.05664,0.1035 0.05859,0.1036 c 38.48913,69.4179 74.69184,114.7537 118.38477,133.1914 19.04585,8.3569 43.04182,15.5797 72.89843,22.4433 30.13587,6.9278 55.09418,10.6543 76.2793,10.6543 10.91469,0 20.33087,-0.6598 30.44336,-4.8359 16.91526,-6.0814 24.19043,-17.1833 33.96875,-31.2051 9.89459,-14.1885 20.39305,-32.7993 32.18164,-56.3086 7.52564,-13.0116 17.46247,-30.8976 30.08008,-54.1406 12.61881,-23.2452 24.2285,-44.3096 34.82226,-63.1797 10.45604,-18.6248 20.5619,-36.0519 30.33008,-52.3437 3.12603,-4.2395 7.83718,-10.9953 16.9043,-24.127 10.14123,-14.6873 17.92508,-27.3853 23.50391,-38.9414 6.07997,-12.5942 9.56445,-26.0835 9.56445,-39.7168 0,-25.5881 -14.62197,-45.694 -35.59375,-67.7695 C 482.19324,980.16538 460.41681,960.85193 436.92969,943.32422 415.48586,927.32136 395.71346,910.41095 377.58008,892.5957 360.5516,875.86597 356.79883,863.38359 356.79883,865 c 0,-1.22231 0.70973,-6.2901 3.39453,-13.53906 3.15679,-8.52333 5.81867,-14.79555 7.38281,-17.92383 1.45426,-2.90851 6.03152,-10.9037 12.87305,-21.98047 3.52264,-5.70332 6.25916,-10.16127 8.24805,-13.44726 1.98889,-3.286 2.50718,-3.82883 4.3789,-7.57227 l -0.51562,0.97851 C 442.21116,702.01386 498.80141,625.68296 562.24219,562.24219 625.68296,498.80141 702.01386,442.21116 791.51562,392.56055 l -0.97851,0.51562 c 3.74344,-1.87172 4.28627,-2.39001 7.57227,-4.3789 3.28599,-1.98889 7.74394,-4.72541 13.44726,-8.24805 11.07677,-6.84153 19.07196,-11.41879 21.98047,-12.87305 3.12828,-1.56414 9.4005,-4.22602 17.92383,-7.38281 7.24896,-2.6848 12.31675,-3.39453 13.53906,-3.39453 -1.61641,0 10.86597,3.75277 27.5957,20.78125 17.81525,18.13338 34.72566,37.90578 50.72852,59.34961 17.52771,23.48712 36.84116,45.26355 57.90628,65.27539 22.0755,20.97178 42.1814,35.59375 67.7695,35.59375 13.6333,0 27.1226,-3.48448 39.7168,-9.56445 11.5561,-5.57883 24.2541,-13.36268 38.9414,-23.50391 13.1317,-9.06712 19.8875,-13.77827 24.127,-16.9043 16.2918,-9.76818 33.7189,-19.87404 52.3437,-30.33008 18.8701,-10.59376 39.9345,-22.20345 63.1797,-34.82226 23.243,-12.61761 41.129,-22.55444 54.1406,-30.08008 23.5093,-11.78859 42.1201,-22.28705 56.3086,-32.18164 14.0218,-9.77832 25.1237,-17.05349 31.2051,-33.96875 4.1761,-10.11249 4.8359,-19.52867 4.8359,-30.44336 0,-21.18512 -3.7265,-46.14343 -10.6543,-76.2793 -6.8636,-29.85661 -14.0864,-53.85258 -22.4433,-72.89843 -18.4377,-43.69293 -63.7735,-79.89564 -133.1914,-118.38477 l -0.1036,-0.05859 -0.1035,-0.05664 C 1201.535,-7.3602152 1135.1006,-25.798828 1069,-25.798828 Z m 0,51.597656 c 56.5425,0 114.0838,15.55162 173.623,47.841797 65.0597,36.093515 100.9834,70.477035 110.5899,93.349605 l 0.084,0.20118 0.088,0.19921 c 6.2724,14.25561 13.025,35.84996 19.4707,63.88868 6.4055,27.86413 9.3457,49.90582 9.3457,64.7207 0,7.49051 -1.3672,11.89517 -0.9141,10.83789 l -0.4238,0.98633 -0.3379,1.01758 c 1.9659,-5.89784 -1.342,1.61606 -12.2832,9.24609 -10.9412,7.63003 -28.1053,17.49893 -50.7793,28.83594 l -0.707,0.35351 -0.6817,0.39454 c -12.2961,7.11878 -30.1638,17.04971 -53.3828,29.65429 -23.4215,12.71453 -44.6904,24.43816 -63.8203,35.17774 -19.1931,10.77504 -37.2393,21.22989 -54.1445,31.37304 l -1.1407,0.68555 -1.0664,0.79883 c -1.2907,0.96802 -10.232,7.27905 -24.1777,16.9082 -13.3127,9.1921 -24.2814,15.74159 -32.0586,19.49609 -6.7391,3.25337 -12.2498,4.43555 -17.2832,4.43555 -1.0786,0 -14.306,-4.37803 -32.2305,-21.40625 -18.9349,-17.98816 -36.2881,-37.54507 -52.09372,-58.72461 C 967.3453,382.84747 948.92238,361.28654 929.4043,341.41992 908.8007,320.4484 890.61641,305.20117 865,305.20117 c -10.77769,0 -20.7099,2.62361 -31.46094,6.60547 -9.47667,3.50988 -16.87112,6.51466 -23.07617,9.61719 -6.42482,3.21241 -14.42963,7.96848 -26.01953,15.12695 -5.63001,3.47736 -10.00539,6.15751 -13.05274,8.00195 -3.04734,1.84445 -6.33783,3.57615 -3.92773,2.3711 l -0.49414,0.24805 -0.48437,0.26757 C 673.31948,399.12217 592.9837,458.53192 525.75781,525.75781 458.53192,592.9837 399.12217,673.31948 347.43945,766.48438 l -0.26757,0.48437 -0.24805,0.49414 c 1.20505,-2.4101 -0.52665,0.88039 -2.3711,3.92773 -1.84444,3.04735 -4.52459,7.42273 -8.00195,13.05274 -7.15847,11.5899 -11.91454,19.59471 -15.12695,26.01953 -3.10253,6.20505 -6.10731,13.5995 -9.61719,23.07617 -3.98186,10.75104 -6.60547,20.68325 -6.60547,31.46094 0,25.61641 15.24723,43.8007 36.21875,64.4043 19.86662,19.51808 41.42755,37.941 64.65039,55.27148 21.17954,15.80562 40.73645,33.15882 58.72461,52.09372 17.02822,17.9245 21.40625,31.1519 21.40625,32.2305 0,5.0334 -1.18218,10.5441 -4.43555,17.2832 -3.7545,7.7772 -10.30399,18.7459 -19.49609,32.0586 -9.62915,13.9457 -15.94018,22.887 -16.9082,24.1777 l -0.79883,1.0664 -0.68555,1.1407 c -10.14315,16.9052 -20.598,34.9514 -31.37304,54.1445 -10.73958,19.1299 -22.46321,40.3988 -35.17774,63.8203 -12.60458,23.219 -22.53551,41.0867 -29.65429,53.3828 l -0.39454,0.6817 -0.35351,0.707 c -11.33701,22.674 -21.20591,39.8381 -28.83594,50.7793 -7.63003,10.9412 -15.14393,14.2491 -9.24609,12.2832 l -1.01758,0.3379 -0.98633,0.4238 c 1.05728,-0.4531 -3.34738,0.9141 -10.83789,0.9141 -14.81488,0 -36.85657,-2.9402 -64.7207,-9.3457 -28.03872,-6.4457 -49.63307,-13.1983 -63.88868,-19.4707 l -0.19921,-0.088 -0.20118,-0.084 C 144.11766,1343.6064 109.73414,1307.6827 73.640625,1242.623 41.350448,1183.0838 25.798828,1125.5425 25.798828,1069 c 0,-16.8852 1.095191,-33.2075 3.261719,-48.9922 2.125929,-15.4889 6.022977,-33.5704 11.775391,-54.02342 5.92309,-21.05988 10.699905,-36.61771 13.978515,-45.85743 3.533771,-9.95881 10.362479,-28.45684 20.341797,-55.06836 10.024819,-26.73285 15.865108,-42.54063 18.318359,-49.90039 l -0.177734,0.51953 C 116.0936,751.8469 143.00466,695.20094 173.89453,645.64844 l 0.0293,-0.0488 0.0312,-0.0488 c 51.33141,-83.16989 121.87857,-169.90005 211.78711,-259.80859 89.90854,-89.90854 176.6387,-160.4557 259.80859,-211.78711 l 0.0488,-0.0312 0.0488,-0.0293 C 695.20094,143.00466 751.8469,116.0936 815.67773,93.296875 l -0.51953,0.177734 c 7.35976,-2.453251 23.16754,-8.29354 49.90039,-18.318359 26.61152,-9.979318 45.10955,-16.808026 55.06836,-20.341797 9.23972,-3.27861 24.79755,-8.055425 45.85743,-13.978515 20.45302,-5.752414 38.53452,-9.649462 54.02342,-11.775391 15.7847,-2.166528 32.107,-3.261719 48.9922,-3.261719 z"
       id="path3017"
       inkscape:connector-curvature="0" />
  </g>
</svg>
